<?xml version="1.0" encoding="utf-8"?>
<!-- Generator: Adobe Illustrator 19.0.0, SVG Export Plug-In . SVG Version: 6.00 Build 0)  -->
<svg version="1.1" id="Layer_1" xmlns="http://www.w3.org/2000/svg" xmlns:xlink="http://www.w3.org/1999/xlink" x="0px" y="0px"
	 viewBox="0 0 1920 1520" style="enable-background:new 0 0 1920 1520;" xml:space="preserve">
<style type="text/css">
	.st0{fill:#053449;}
	.st1{fill:#02293F;}
	.st2{fill:url(#XMLID_44_);}
	.st3{opacity:0.33;fill:#032433;}
	.st4{fill:#021A23;}
	.st5{fill:#011A21;}
	.st6{fill:#012C44;}
	.st7{fill:#032433;}
	.st8{opacity:0.46;}
	.st9{opacity:5.000000e-002;fill:#FFFFFE;}
	.st10{opacity:0.23;fill:#FFFFFE;}
	.st11{opacity:0.69;fill:#FFFFFE;}
	.st12{fill:#08121A;}
</style>
<g id="XMLID_34_">
	<path id="XMLID_35_" class="st0" d="M445,256.1c0,20.6,0,41.1,0,61.7c-71.9,0-143.7,0-215.6,0c0-19.7,0-39.3,0-59
		c0.2,0.2,0.4,0.5,0.5,0.7c0.2-0.1,0.6-0.1,0.7-0.2c0.3,0.5,0.5,0.9,0.7,1.1c-0.2,0.7-0.3,1.2-0.4,1.8c0.1,0.1,0.2,0.1,0.3,0.2
		c0.3-0.3,0.6-0.5,0.9-0.8c0,0.1,0.1,0.2,0.2,0.5c0.1-0.5,0.2-0.9,0.3-1.3c0.2,0.1,0.3,0.1,0.3,0.1c0.6,0.7,0.6,0.7,1.3-0.2
		c0,0,0.1-0.1,0.1-0.1c0.2,0.1,0.3,0.3,0.6,0.5c-0.2-1.2,0.4-1.3,1.2-1.3c0,0.2,0,0.4,0.1,0.6c0.1,0,0.1,0,0.2,0.1
		c0.2-0.4,0.4-0.8,0.6-1.3c0.1,0.1,0.3,0.2,0.5,0.3c0.1-0.4,0.2-0.7,0.4-1.2c0.3,0.4,0.5,0.7,0.8,1.2c0-0.6,0.6-0.9,0.3-1.7
		c-0.2-0.4,0.6-1.3,1-1.8c0.3-0.4,0.7-0.8,1.1-1.1c0.1-0.5,0.1-1,0.2-1.4c0.4-0.2,0.7-0.3,1-0.4c0.2,0.4,0.3,0.8,0.6,1.3
		c0.2-0.3,0.2-0.5,0.4-0.9c0.2,0.5,0.4,0.9,0.6,1.4c0.3-0.8,0.5-1.4,0.8-2.1c0,0.1,0.1,0.1,0.1,0.2c0.4-0.3,0.8-0.5,1.3-0.8
		c0.4,1,0.7,1.9,1.1,2.9c1,0.1,1.2,0.3,0.9,1.7c0.2,0,0.6,0,0.6,0c0.4,0.8,0.9,0.5,1.4,0.2c0.2,1.6,0.2,1.6-0.1,2
		c-0.4,0.6-0.4,0.8,0.2,0.9c0.3-0.3,0.6-0.5,0.7-0.6c0.3-0.3,0.5-0.5,0.6-0.8c0.1,0,0.2,0,0.3,0.1c0,0.9,0,1.8,0,2.7
		c0.2-0.1,0.5-0.3,0.7-0.4c0.1,0,0.2,0.1,0.2,0.1c-0.5,1.1-1,2.3-0.2,3.5c0.1-0.2,0.2-0.4,0.3-0.7c0.3,0.9,0.5,1.5,1.1,2
		c0.6-0.6-0.7-1.5,0.3-1.7c0-0.7,0-1.2,0-1.8c0.3,0.1,0.5,0.1,0.6,0.1c0.3-0.4,0.6-0.8,0.9-1.2c0,0-0.1-0.1-0.2-0.2
		c0.3-0.2,0.6-0.3,0.7-0.5c0.4-0.4,0.8-0.9,1.1-1.3c0.3-0.4,0.6-0.9,1-1.3c0.3-0.2,0.7-0.3,1-0.4c0,0,0.1,0.4,0.2,0.6
		c0.5-0.2,0.7-0.7,1.2-1c0.5-0.3,0.7-1.2,0.7-1.8c0-0.8,0.7-1,0.9-1.5c0.1,0.2,0.2,0.5,0.4,0.8c0.2-0.3,0.3-0.5,0.6-1
		c0.2,0.6,0.3,0.9,0.4,1.3c0.6-0.8,1.1-1.4,1.7-2c0.3-0.3,0.6-0.5,0.9-0.7c0,0.2,0.1,0.5,0.1,0.7c0,0.1,0.1,0.1,0.1,0.1
		c1,0.2,0.2,1.8,1.4,1.8c0,0,0,0.1,0.1,0.1c0.3,0.6,0.7,1.2,0.3,1.9c0,0.1,0.1,0.2,0.2,0.4c0.2-0.2,0.3-0.4,0.4-0.5
		c0.4,0.5,0.8,0.9,1.4,1.5c0,0.3,0.6,1.8,1.1,2c0.4-0.6,0.9-1.2,1.4-2c0.2,0.5,0.5,1,0.7,1.4c-0.1,0.1-0.1,0.1-0.2,0.2
		c0.3,0,0.5,0.1,0.8,0.1c-0.1,1.8-0.1,1.9,1.1,2.4c0,0.5,0,1,0,1.4c0.1,0,0.2,0,0.2,0c0.1-0.1,0.2-0.3,0.2-0.4
		c0-0.5-0.1-1.1,0.7-1.2c0.3,0,0.8-0.5,0.9-0.8c0.2-0.7,0.6-0.8,1-0.7c0.2-0.4,0.3-0.8,0.5-0.9c0.4-0.1,0.8,0.1,1.2,0.1
		c-0.1-0.6,0.3-1.1,0.9-1.4c0.1-0.1,0.3-0.1,0.4-0.2c0.1-0.3,0.2-0.5,0.2-0.8c0,0,0,0,0,0c0-0.5,0.1-1,0.1-1.4
		c0.1,0,0.1-0.1,0.2-0.1c0.2,0.4,0.4,0.9,0.7,1.3c-0.1-1.4,0.9-2,1.9-2.6c0.3,0.5,0.2,1.3,0.9,1.5c0,0,0,0.2,0,0.3
		c-0.2,0.6-0.3,1.2-0.6,2c0.4-0.3,0.7-0.6,0.8-0.7c0.7,0.5,1.2,1,1.8,1.4c-0.4,1.4-0.4,1.4-1.2,1.7c0.3,0.1,0.5,0.2,0.7,0.3
		c0.2,0.1,0.3,0.4,0.3,0.5c0,0.3,0,0.6-0.1,0.9c0.1,0,0.1,0,0.2,0c-0.1,0.3-0.2,0.7-0.2,0.8c-0.4,0.1-0.8,0-1,0.2
		c-0.5,0.6,0.3,1,0.4,1.6c0.5-0.1,1-0.2,1.4-0.3c0.2-0.4-0.2-1.1,0.6-1c0.1,0.2,0.2,0.5,0.3,0.8c0.7-0.8,1.4-1.5,2.2-2.3
		c0.1-1,0.1-2.2,1.2-3.2c0.1,0.5,0.3,1,0.4,1.4c0.1,0,0.2,0,0.3,0c-0.1-1.3-0.1-2.5,0.8-3.4c0.3-0.2,0.5-0.3,0.9-0.5
		c0.2,0.6,0.3,1.2,0.4,1.7c0.1,0,0.4-0.1,0.6-0.1c0,0.2,0,0.5,0,0.7c-0.1,0.4-0.2,0.8-0.3,1.3c0.3,0,0.6,0.1,0.9,0.1
		c0,0.2,0,0.3,0,0.6c0.5-0.3,0.9-0.4,1.5-0.7c-0.4,1.1-0.7,2.1-1.1,3.2c0.2,0.1,0.6,0.3,0.9,0.4c0-0.1,0-0.2-0.1-0.3
		c0.2-0.2,0.5-0.5,0.7-0.5c0.4,0,0.7,0.3,1,0.4c-0.2,0.4-0.5,0.8-0.7,1.2c-0.1,0-0.2,0-0.2-0.1c0.1,0.2,0.2,0.3,0.3,0.4
		c0.4-0.3,0.8-0.5,1.2-0.7c0.1,0.1,0.1,0.2,0.2,0.3c-0.4,0.4-0.8,0.7-1.2,1.1c0.1,0.1,0.3,0.2,0.6,0.3c0,0.4,0,0.8,0,1.2
		c-0.2,0.2-0.6,0.4-0.9,0.6c0.2,0.4,1.4,0.2,0.8,1.2c0,0,0,0.1,0.1,0.1c0.3,0.6,0.6,1.3,1,1.9c1.1-0.6,1.1-0.6,0.6-1.3
		c0.2-0.2,0.3-0.3,0.5-0.5c-0.1-0.1-0.2-0.1-0.3-0.1c0.1-0.2,0.2-0.3,0.3-0.5c0.1-0.4,0.2-0.8,0.4-1.2c0,0,0.3,0,0.4,0
		c0.1,0,0.1,0.2,0.2,0.2c0.1-0.1,0.2-0.3,0.1-0.4c-0.2-0.2-0.4-0.5-0.7-0.7c-0.4-0.2-0.8-0.4-1.2-0.7c0.5-0.7,0.8-1.2,1.2-1.8
		c0-0.1-0.2-0.3-0.4-0.7c0.5,0,0.9,0,1.4,0c-0.1-0.4-0.3-0.9-0.4-1.2c-0.3,0.2-0.5,0.4-0.8,0.6c-0.2-0.3-0.3-0.5-0.5-0.9
		c0.1,0,0.3-0.1,0.6-0.2c-0.2-0.4-0.4-0.7-0.6-1.1c0.4-0.1,0.7-0.1,1-0.2c-0.2-0.5-0.7-0.7-0.7-1.4c0-0.7,0.1-0.9,0.4-1.1
		c0.5,0.3,0.9,0.5,1.3,0.6c0.2,0,0.4-0.3,0.8-0.5c0.3,0.2,0.7,0.4,1.1,0.7c0.1-0.4,0.3-0.8,0.4-1.2c-0.1,0-0.5-0.1-0.5-0.1
		c0-0.4,0.1-0.7,0.2-1.1c0-0.1,0.4,0,0.8-0.1c-0.1-0.5-0.1-1.1-0.2-1.7c0.1,0,0.2,0.1,0.2,0.1c0.2-0.3,0.6-0.5,0.6-0.8
		c0.1-0.5,0-0.6,0.6-0.6c0.1-1.1,0.3-2.2,1.3-2.9c0.2,0.1,0.5,0.3,0.8,0.5c0-0.3,0.1-0.5,0.1-0.9c0.4,0.1,0.7,0.3,1.1,0.4
		c0.1-0.3,0.2-0.5,0.3-0.8c0.3,0,0.6-0.1,0.9-0.1c0-0.1,0-0.2,0-0.3c0-0.1,0.1-0.2,0.2-0.3c1.1,0.8,0.1,1.7,0.3,2.7
		c0.4-0.5,0.8-0.9,1.2-1.3c0.1-0.1,0.3-0.3,0.4-0.3c0.2,0.1,0.4,0.3,0.4,0.4c0.1,0.6,0.3,1.1,0,1.8c-0.2,0.3,0,0.9,0.2,1.4
		c0.2,0.5,0.7,0.9,0.3,1.5c0,0,0.2,0.2,0.2,0.2c0.6-0.6,1.1-1.2,1.7-1.8c0,0,0.3,0.1,0.5,0.2l0.2,1.7c0.1,0.3,0.1,0.7,0.2,1
		c0.1,0,0.1,0,0.2,0c0.1-0.3,0.3-0.7,0.4-1c0.5,0.1,0.9,0.3,1.3,0.4c0.4-0.5,0.8-1.1,1.3-1.7c0.3,0.6,0.8,1,0.4,1.7
		c0,0.1,0,0.3,0,0.3c0.7,0.3,0.1,0.8,0.2,1.4c0.4-0.1,0.8-0.2,1.1-0.3c0.3,0.9-0.9,1.4-0.4,2.4c0.3-0.1,0.6-0.3,0.8-0.4
		c0.4,0.5,0.1,0.8-0.2,1.1c-0.4,0.4-0.4,1-0.1,1.2c0.4,0.4,0.2,0.6,0.1,0.9c-0.3,0.9-0.1,1.5,0.8,1.9c-0.1,1.6,0,1.8,1,1.9
		c0.3-0.3,0.6-0.8,0.6-0.8c0.7,0.4,0.9-0.2,1.2-0.6c0.8,0.8,0.1,1.5,0,2.3c1.1,0,1.8-0.6,2.5-1.3c0.2-0.2,0.3-0.4-0.1-0.6
		c-0.1-0.1,0-0.6,0.1-0.9c0-0.1,0.1-0.3,0.1-0.4c-0.2-1.1,0.1-1.7,1.2-2.3c0.4-0.2,0.8-0.9,0.7-1.1c-0.3-0.5-0.1-0.7,0.2-1
		c0.4-0.4,0.6-0.9,1-0.3c0.3-0.2,0.6-0.6,0.8-0.5c0.2,0,0.4,0.5,0.7,0.8c0.2-0.7-0.2-1.4,0.4-1.8c0.4-0.3,0.9-0.6,1.4-0.6
		c0.5,0,1.1,0.3,0.9,1c0.4-0.4,0.7-0.7,1.1-1.1c0.9,1.1,1.3,0.2,1.9-0.5c0.1,1,0.2,1.7,0.3,2.5c0.6-0.6,1-1.1,1.5-1.6
		c0.1,0.1,0.1,0.1,0.2,0.2c0.1-0.2,0.1-0.5,0.2-0.7c0.1,0,0.2,0,0.3,0c0.3,1,0.6,2,0.9,3.1c1.1-0.5,1.3-1.7,2.1-2.7
		c0.2,0.7,0.4,1.4,0.6,2.1c0.2-0.2,0.4-0.4,0.4-0.5c-0.1-0.5-0.2-0.9,0.3-1.2c0.3-0.2,0.5-0.5,0.8-0.8c0,0,0-0.2-0.1-0.4
		c0.1,0,0.2,0.1,0.2,0.1c0.2-0.2,0.4-0.4,0.5-0.6c0.1-0.1,0.2-0.2,0.3-0.3c0.1,0.1,0.1,0.2,0.2,0.3c0.3,0.4,0.7,0.7,1.1,1.2
		c0.1-0.3,0.1-0.6,0.2-0.7c0.4,0,0.8,0.1,1.2,0.1c0-0.4,0-0.7,0-1.2c0.2,0.2,0.4,0.3,0.6,0.5c0.1-0.4,0.2-0.7,0.2-1
		c0.6,1.2,0.7,1.5,0.6,2.5c0,0.2,0.1,0.3,0.2,0.5c0,0,0.1,0,0.2,0c0-0.2,0-0.4,0-0.6c0.4,0.1,0.8,0.2,1.2,0.3
		c0.1-0.4,0.2-0.7,0.3-1.1c0.3,0.4-0.2,1.3,0.7,1.1c-0.4,1-0.4,1.1,0.4,1.4c0.4,0.8-1,1.3-0.5,2c0.7-0.5,1.3-0.9,2-1.4
		c0.3,1.4,0.5,2.7,0.7,3.7c0.5,0.1,1,0.2,1.3,0.3c0.2-0.3,0.5-0.8,0.8-1.2c0.4-0.4,0.8-0.7,1.4-1.2c-0.1-0.8,0.7-0.5,1.3-0.6
		c-0.1-0.7-0.3-1.3,0.7-1.8c0.1,0.7,0.2,1.4,0.3,2.1c0.7-0.7,0.5-1.6,0.5-2.5c0-0.4,0.2-0.7,0.3-1.1c0.1-0.3,0.2-0.5,0.3-0.8
		c0.1-0.2,0.4-0.5,0.4-0.7c-0.1-0.5-0.4-1,0.3-1.3c0.1,0,0.1-0.2,0.2-0.3c0.1,0.1,0.2,0.2,0.3,0.3c0.1,0.5,0.2,1.1,0.4,1.6
		c0.1,0,0.2,0,0.3,0c-0.2-1.7,0.6-3.1,1.2-4.8c0.4,0.7,0.7,1.1,0.9,1.6c0.2,0.6,0.4,0.8,0.8,0.2c0.2-0.3,0.6-0.4,0.9-0.6
		c0.2,0.4,0.3,0.8,0.5,1.1c0,0,0,0.1,0,0.2c0,0.6,0.1,1.2,0.8,1.5c0.1,0,0.1,0.3,0.2,0.5c0.1,0.2,0.1,0.3,0.2,0.5
		c0.1-0.1,0.3-0.2,0.4-0.3c0.3-0.4,0.6-0.7,0.9-1.1c0.1,0,0.1,0.1,0.2,0.1c0,0.6,0.1,1.2,0.1,1.9c0.2,0,0.4,0.1,0.6,0.2
		c-0.1,0.6-0.3,1.1-0.4,1.7c0.3-0.1,0.5-0.2,0.9-0.4c0,0.6,0,1,0,1.5c0,0.2,0,0.5,0.1,0.5c0.9,0.4,0.4,1,0.3,1.5c0.5,0,0.9,0,1.5,0
		c-0.1,0.8-0.2,1.5-0.3,2.3c0.4-0.2,0.6-0.3,0.7-0.4c0.1-1,0.1-2,0.2-2.9c0.4,0.1,0.6,0.1,1,0.2c-0.3-0.4-0.4-0.6-0.6-0.9
		c0.3-0.5,0.6-0.9,1-1.6c0.2,0.4,0.3,0.7,0.4,1c0.4-0.2,0.8-0.4,1.2-0.7c-0.5-0.9,0.7-0.9,0.9-1.6c0.2,0.5,0.4,1.1,0.6,1.5
		c0.4-0.3,0.8-0.7,1.4-1.2c0.1,0.3,0.2,0.6,0.2,0.7c0.2,0.1,0.4,0.2,0.6,0.2c0.2,0,0.4-0.2,0.5-0.3c0.2-0.4,0.3-0.9,0.6-1.2
		c0.4-0.5,0.9-0.8,1.6-1.4c0.2-0.2,0.5-0.7,0.8-1.2c0.1,0,0.1,0,0.2,0.1c0,0.3,0.1,0.6,0.1,1c0.2,0,0.4,0,0.6,0
		c0,0.2-0.1,0.4-0.1,0.7c0.7,0,0.7,0.4,0.5,0.8c0.3,0.1,0.7,0.3,0.7,0.4c-0.2,1.1-0.4,2.2-0.8,3.3c-0.2,0.4-0.1,0.7,0.1,0.9
		c0.1,0.3,0.5,0.5,0.7,0.7c0.1-0.1,0.2-0.3,0.5-0.7c0.1,1,0.1,1.7,0.2,2.4c0.1,0,0.1,0,0.2,0.1c0.1-0.2,0.2-0.5,0.3-0.7
		c0.5-0.2,1-0.5,1.3-0.8c0.2-0.2,0.4-0.5,0.6-0.8c0.6,1.1,0.7,1.1,1.9,1.7c-0.3-0.9-0.5-1.7-0.8-2.4c0.5-0.2,1-0.2,1.1-0.4
		c0.2-0.2,0.1-0.6,0.2-0.9c0-0.6-0.1-1.1-0.1-1.8c0.5,0.4,0.8,0.6,0.9,0.8c0.2-0.7,0.4-1.4,0.7-2.2c0.7,0.4,1.3,0.9,1-0.3
		c0-0.1,0.1-0.1,0.1-0.2c0.3-1,0.6-2.1,0.9-3.1c0.1-0.3,0.1-0.8,0.3-0.9c0.7-0.4,1.4-0.7,2.2-1c0.1,0.3,0.2,0.6,0.3,0.9
		c0-0.4,0.1-0.7,0.1-1c1,0.6,0.4-0.4,0.7-0.6c0.2,0.1,0.4,0.1,0.6,0.2c0.1-0.2,0.1-0.4,0.2-0.6c0.6,0.6,1,0.7,1.3-0.2
		c0.3,0.5,0.5,1,0.6,1.5c0.1,0.6,0.1,1.2,0.1,1.8c0.2-0.1,0.4-0.1,0.8-0.2c-0.2,0.9-0.4,1.8-0.6,2.6c0.4,0.1,0.8,0.6,1.2-0.2
		c0.2-0.4,0.9-0.5,1.5-0.8c0-1.1,1.5-0.3,1.8-1.3c0.2,0.6,0.4,1,0.6,1.5c0.3-0.2,0.6-0.5,0.9-0.8c0.4,0.5-0.2,1.7,1.2,1.7
		c-0.1,0.5-0.2,1-0.3,1.5c0,0.2,0,0.5,0.1,0.6c0.2,0.2,0.5,0.2,0.8,0.2c0-0.2,0-0.4,0.1-0.6c0.1-0.5,0.3-1,0.5-1.7
		c0.3,0.5,0.4,0.7,0.4,0.8c0.5-0.2,1-0.4,1.5-0.6c1-0.4,0.4,1.1,1.1,0.9c0,0.4,0,0.8-0.1,1.1c0.1,0,0.1,0.1,0.2,0.1
		c0.2-0.2,0.5-0.4,0.7-0.6c0.1,1.1,0.2,2.2,0.3,3.5c0.4-0.5,0.7-0.9,1-1.3c0.1,0.1,0.2,0.1,0.3,0.2c0.1,0.3,0.1,0.6,0.2,1
		c0.4-0.1,0.7-0.2,0.9-0.3c0.5,0.7-0.3,1.7,0.6,2.5c0.1-0.5,0.1-0.7,0.2-1c0.1-0.3,0.3-0.7,0.5-1c0.1-0.1,0.6-0.1,0.7,0.1
		c0.3,0.5,0.4,0.7,0.9,0.2c0.1-0.1,0.4-0.1,0.6-0.1c0-0.2,0-0.4,0-0.8c0.2,0.2,0.3,0.3,0.4,0.5c0.2,0.4,0.2,1,0.5,1.1
		c0.6,0.3,0.5,1.1,0.4,1.1c-0.6,0.3,0,1.4-0.9,1.4c0,0.3-0.1,0.6,0.1,0.8c0.3,0.3,0.7,0.6,1,0.9c0.1-1.2,0.1-2.7,1.3-3.7
		c0.1,0.2,0.2,0.4,0.3,0.6c1.1-0.9,1.1-0.9,1.4-0.5c0.3-0.8,0.7-1.6,1-2.4c0.2,0.1,0.3,0.1,0.4,0.2c0-0.1-0.1-0.1-0.1-0.2
		c0.4-0.5,0.8-0.9,1.2-1.4c0.2,0.2,0.3,0.3,0.3,0.4c0.5,1-0.1,1.9,0.1,2.9c0.2,0,0.5-0.1,0.7-0.1c0.2-0.3,0.3-0.5,0.4-0.7
		c0.2-0.2,0.4-0.2,0.8-0.4c1.1,0.4,0,1.4,0.2,2.2c0.3-0.2,0.5-0.3,0.9-0.6c0,1-0.7,1.4-0.9,1.8c0.1,0.5,0.2,0.7,0.3,1
		c0,0,0.1,0,0.1,0c0.3-0.6,0.6-1.3,1.2-1.6c-0.4-0.9,0.5-1.1,0.8-1.6c0.1-0.1,0.2-0.3,0.3-0.4c0.3-0.4,0.6-0.8,0.9-1.3
		c0.1,0,0.2,0.1,0.2,0.1c0.1,0.5,0.2,1,0.2,1.4c0.3-0.3,0.6-0.6,0.7-0.8c0.3-0.7,0.3-1.5,0.7-1.8c0.8-0.5,1.2-1,1.2-1.9
		c0-0.8,0.5-1.2,1.1-1.1c0.2-0.5,0.4-1,0.6-1.6c0.3,0.4,0.6,0.7,0.8,1c0.5-0.5,0.7-0.4,1,0.5c0.2-0.1,0.5-0.2,0.7-0.2
		c0.2,0,0.4,0.2,0.5,0.4c0.1,0.1,0.1,0.4,0.1,0.4c0.2,0,0.4,0,0.5-0.1C444.6,256.4,444.8,256.3,445,256.1z"/>
</g>
<polygon id="XMLID_7_" class="st1" points="480.1,281.1 510.7,231.2 525.8,178.1 542.5,235.1 560,288.9 575.4,360.6 578.2,423 
	480.1,423 "/>
<g id="XMLID_27_">
	<path id="XMLID_28_" class="st0" d="M1475.5,336.3c0,30.8,0,61.7,0,92.5c-71.9,0-143.7,0-215.6,0c0-29.5,0-59,0-88.5
		c0.2,0.4,0.4,0.7,0.5,1.1c0.2-0.1,0.6-0.2,0.7-0.3c0.3,0.8,0.5,1.3,0.7,1.7c-0.2,1-0.3,1.8-0.4,2.7c0.1,0.1,0.2,0.2,0.3,0.3
		c0.3-0.4,0.6-0.8,0.9-1.3c0,0.1,0.1,0.3,0.2,0.7c0.1-0.8,0.2-1.4,0.3-2c0.2,0.1,0.3,0.1,0.3,0.2c0.6,1,0.6,1,1.3-0.3
		c0-0.1,0.1-0.1,0.1-0.2c0.2,0.2,0.3,0.4,0.6,0.8c-0.2-1.7,0.4-1.9,1.2-2c0,0.3,0,0.6,0.1,0.8c0.1,0,0.1,0.1,0.2,0.1
		c0.2-0.6,0.4-1.2,0.6-1.9c0.1,0.2,0.3,0.3,0.5,0.5c0.1-0.5,0.2-1.1,0.4-1.9c0.3,0.6,0.5,1.1,0.8,1.7c0-0.9,0.6-1.4,0.3-2.5
		c-0.2-0.6,0.6-1.9,1-2.8c0.3-0.6,0.7-1.1,1.1-1.6c0.1-0.7,0.1-1.4,0.2-2.1c0.4-0.2,0.7-0.4,1-0.6c0.2,0.6,0.3,1.2,0.6,1.9
		c0.2-0.5,0.2-0.8,0.4-1.3c0.2,0.8,0.4,1.3,0.6,2c0.3-1.2,0.5-2.1,0.8-3.1c0,0.1,0.1,0.2,0.1,0.2c0.4-0.4,0.8-0.8,1.3-1.2
		c0.4,1.5,0.7,2.9,1.1,4.4c1,0.1,1.2,0.4,0.9,2.5c0.2,0,0.6-0.1,0.6,0.1c0.4,1.2,0.9,0.7,1.4,0.3c0.2,2.4,0.2,2.4-0.1,3
		c-0.4,1-0.4,1.2,0.2,1.3c0.3-0.5,0.6-0.8,0.7-1c0.3-0.5,0.5-0.8,0.6-1.1c0.1,0,0.2,0.1,0.3,0.1c0,1.3,0,2.7,0,4
		c0.2-0.2,0.5-0.4,0.7-0.6c0.1,0,0.2,0.1,0.2,0.1c-0.5,1.7-1,3.4-0.2,5.3c0.1-0.3,0.2-0.7,0.3-1c0.3,1.3,0.5,2.3,1.1,3
		c0.6-0.9-0.7-2.2,0.3-2.6c0-1,0-1.8,0-2.7c0.3,0.1,0.5,0.1,0.6,0.1c0.3-0.7,0.6-1.2,0.9-1.8c0,0-0.1-0.2-0.2-0.3
		c0.3-0.3,0.6-0.4,0.7-0.7c0.4-0.6,0.8-1.3,1.1-2c0.3-0.6,0.6-1.4,1-1.9c0.3-0.3,0.7-0.4,1-0.6c0,0,0.1,0.5,0.2,0.9
		c0.5-0.3,0.7-1.1,1.2-1.5c0.5-0.4,0.7-1.8,0.7-2.7c0-1.1,0.7-1.4,0.9-2.3c0.1,0.3,0.2,0.7,0.4,1.2c0.2-0.4,0.3-0.8,0.6-1.4
		c0.2,0.9,0.3,1.4,0.4,2c0.6-1.1,1.1-2.1,1.7-3c0.3-0.4,0.6-0.7,0.9-1.1c0,0.3,0.1,0.7,0.1,1c0,0.1,0.1,0.2,0.1,0.2
		c1,0.3,0.2,2.7,1.4,2.8c0,0,0,0.1,0.1,0.2c0.3,0.9,0.7,1.8,0.3,2.9c0,0.1,0.1,0.3,0.2,0.5c0.2-0.3,0.3-0.5,0.4-0.7
		c0.4,0.7,0.8,1.3,1.4,2.2c0,0.5,0.6,2.7,1.1,3c0.4-0.9,0.9-1.8,1.4-3c0.2,0.8,0.5,1.5,0.7,2.2c-0.1,0.1-0.1,0.2-0.2,0.2
		c0.3,0,0.5,0.1,0.8,0.1c-0.1,2.7-0.1,2.9,1.1,3.6c0,0.7,0,1.4,0,2.1c0.1,0,0.2,0,0.2,0c0.1-0.2,0.2-0.4,0.2-0.6
		c0-0.8-0.1-1.7,0.7-1.8c0.3,0,0.8-0.7,0.9-1.3c0.2-1,0.6-1.2,1-1c0.2-0.5,0.3-1.3,0.5-1.4c0.4-0.2,0.8,0.1,1.2,0.2
		c-0.1-0.9,0.3-1.6,0.9-2.2c0.1-0.1,0.3-0.1,0.4-0.2c0.1-0.4,0.2-0.8,0.2-1.2c0,0,0,0,0,0c0-0.7,0.1-1.4,0.1-2.2
		c0.1,0,0.1-0.1,0.2-0.1c0.2,0.7,0.4,1.3,0.7,2c-0.1-2.1,0.9-2.9,1.9-3.9c0.3,0.8,0.2,1.9,0.9,2.2c0,0,0,0.3,0,0.5
		c-0.2,0.9-0.3,1.8-0.6,3c0.4-0.5,0.7-0.8,0.8-1c0.7,0.8,1.2,1.4,1.8,2.1c-0.4,2.1-0.4,2.1-1.2,2.6c0.3,0.2,0.5,0.2,0.7,0.4
		c0.2,0.2,0.3,0.5,0.3,0.8c0,0.5,0,0.9-0.1,1.4c0.1,0,0.1,0,0.2,0c-0.1,0.5-0.2,1-0.2,1.2c-0.4,0.1-0.8,0-1,0.3
		c-0.5,1,0.3,1.5,0.4,2.3c0.5-0.2,1-0.3,1.4-0.4c0.2-0.6-0.2-1.7,0.6-1.5c0.1,0.4,0.2,0.7,0.3,1.2c0.7-1.1,1.4-2.2,2.2-3.4
		c0.1-1.5,0.1-3.3,1.2-4.8c0.1,0.8,0.3,1.4,0.4,2.1c0.1,0,0.2,0,0.3,0c-0.1-1.9-0.1-3.8,0.8-5c0.3-0.2,0.5-0.4,0.9-0.7
		c0.2,0.9,0.3,1.8,0.4,2.6c0.1,0,0.4-0.1,0.6-0.2c0,0.4,0,0.7,0,1.1c-0.1,0.6-0.2,1.2-0.3,2c0.3,0,0.6,0.1,0.9,0.1
		c0,0.2,0,0.4,0,0.9c0.5-0.4,0.9-0.7,1.5-1.1c-0.4,1.7-0.7,3.1-1.1,4.7c0.2,0.2,0.6,0.4,0.9,0.6c0-0.2,0-0.3-0.1-0.5
		c0.2-0.3,0.5-0.8,0.7-0.8c0.4,0,0.7,0.4,1,0.6c-0.2,0.6-0.5,1.2-0.7,1.8c-0.1,0-0.2-0.1-0.2-0.1c0.1,0.2,0.2,0.5,0.3,0.6
		c0.4-0.4,0.8-0.7,1.2-1.1c0.1,0.1,0.1,0.3,0.2,0.4c-0.4,0.5-0.8,1.1-1.2,1.6c0.1,0.1,0.3,0.3,0.6,0.4c0,0.6,0,1.1,0,1.8
		c-0.2,0.2-0.6,0.6-0.9,0.9c0.2,0.7,1.4,0.4,0.8,1.8c0,0,0,0.1,0.1,0.2c0.3,1,0.6,1.9,1,2.9c1.1-0.9,1.1-0.9,0.6-1.9
		c0.2-0.2,0.3-0.5,0.5-0.7c-0.1-0.1-0.2-0.2-0.3-0.2c0.1-0.3,0.2-0.5,0.3-0.8c0.1-0.6,0.2-1.2,0.4-1.8c0-0.1,0.3,0,0.4,0
		c0.1,0,0.1,0.2,0.2,0.4c0.1-0.2,0.2-0.5,0.1-0.6c-0.2-0.4-0.4-0.7-0.7-1c-0.4-0.4-0.8-0.7-1.2-1c0.5-1.1,0.8-1.8,1.2-2.7
		c0-0.1-0.2-0.4-0.4-1c0.5,0,0.9,0,1.4,0c-0.1-0.7-0.3-1.3-0.4-1.9c-0.3,0.3-0.5,0.6-0.8,0.9c-0.2-0.4-0.3-0.8-0.5-1.3
		c0.1-0.1,0.3-0.2,0.6-0.3c-0.2-0.6-0.4-1.1-0.6-1.6c0.4-0.1,0.7-0.2,1-0.3c-0.2-0.8-0.7-1.1-0.7-2.1c0-1,0.1-1.3,0.4-1.6
		c0.5,0.4,0.9,0.8,1.3,0.9c0.2,0.1,0.4-0.4,0.8-0.8c0.3,0.3,0.7,0.7,1.1,1.1c0.1-0.6,0.3-1.2,0.4-1.8c-0.1-0.1-0.5-0.1-0.5-0.2
		c0-0.5,0.1-1.1,0.2-1.6c0-0.2,0.4-0.1,0.8-0.1c-0.1-0.8-0.1-1.7-0.2-2.6c0.1,0.1,0.2,0.1,0.2,0.2c0.2-0.4,0.6-0.7,0.6-1.2
		c0.1-0.8,0-0.9,0.6-0.8c0.1-1.7,0.3-3.2,1.3-4.3c0.2,0.2,0.5,0.4,0.8,0.7c0-0.4,0.1-0.7,0.1-1.3c0.4,0.2,0.7,0.4,1.1,0.6
		c0.1-0.4,0.2-0.8,0.3-1.2c0.3,0,0.6-0.1,0.9-0.1c0-0.2,0-0.3,0-0.5c0-0.1,0.1-0.3,0.2-0.5c1.1,1.2,0.1,2.6,0.3,4
		c0.4-0.7,0.8-1.4,1.2-2c0.1-0.2,0.3-0.5,0.4-0.4c0.2,0.1,0.4,0.4,0.4,0.7c0.1,0.9,0.3,1.7,0,2.6c-0.2,0.5,0,1.4,0.2,2
		c0.2,0.7,0.7,1.3,0.3,2.2c0,0,0.2,0.3,0.2,0.2c0.6-1,1.1-1.9,1.7-2.7c0-0.1,0.3,0.2,0.5,0.3l0.2,2.6c0.1,0.5,0.1,1,0.2,1.6
		c0.1,0,0.1,0,0.2,0c0.1-0.5,0.3-1,0.4-1.5c0.5,0.2,0.9,0.4,1.3,0.6c0.4-0.8,0.8-1.6,1.3-2.6c0.3,0.9,0.8,1.6,0.4,2.6
		c0,0.1,0,0.4,0,0.4c0.7,0.5,0.1,1.3,0.2,2.1c0.4-0.1,0.8-0.3,1.1-0.4c0.3,1.3-0.9,2.1-0.4,3.6c0.3-0.2,0.6-0.4,0.8-0.6
		c0.4,0.7,0.1,1.2-0.2,1.7c-0.4,0.6-0.4,1.5-0.1,1.9c0.4,0.5,0.2,0.9,0.1,1.4c-0.3,1.4-0.1,2.2,0.8,2.8c-0.1,2.4,0,2.7,1,2.8
		c0.3-0.5,0.6-1.3,0.6-1.2c0.7,0.7,0.9-0.3,1.2-1c0.8,1.2,0.1,2.3,0,3.5c1.1,0,1.8-0.9,2.5-1.9c0.2-0.3,0.3-0.6-0.1-1
		c-0.1-0.1,0-0.8,0.1-1.3c0-0.2,0.1-0.4,0.1-0.6c-0.2-1.7,0.1-2.6,1.2-3.5c0.4-0.3,0.8-1.4,0.7-1.7c-0.3-0.8-0.1-1,0.2-1.5
		c0.4-0.6,0.6-1.3,1-0.4c0.3-0.3,0.6-0.8,0.8-0.8c0.2,0.1,0.4,0.7,0.7,1.2c0.2-1.1-0.2-2.1,0.4-2.7c0.4-0.4,0.9-0.9,1.4-1
		c0.5,0,1.1,0.4,0.9,1.5c0.4-0.6,0.7-1.1,1.1-1.7c0.9,1.6,1.3,0.3,1.9-0.8c0.1,1.4,0.2,2.5,0.3,3.8c0.6-0.9,1-1.6,1.5-2.3
		c0.1,0.1,0.1,0.2,0.2,0.3c0.1-0.4,0.1-0.7,0.2-1.1c0.1,0,0.2,0,0.3,0c0.3,1.5,0.6,3,0.9,4.6c1.1-0.7,1.3-2.5,2.1-4.1
		c0.2,1.1,0.4,2,0.6,3.1c0.2-0.2,0.4-0.5,0.4-0.7c-0.1-0.7-0.2-1.3,0.3-1.7c0.3-0.2,0.5-0.7,0.8-1.3c0,0,0-0.3-0.1-0.6
		c0.1,0.1,0.2,0.1,0.2,0.2c0.2-0.3,0.4-0.6,0.5-0.9c0.1-0.2,0.2-0.3,0.3-0.5c0.1,0.2,0.1,0.3,0.2,0.5c0.3,0.6,0.7,1.1,1.1,1.8
		c0.1-0.5,0.1-0.9,0.2-1.1c0.4,0.1,0.8,0.1,1.2,0.2c0-0.6,0-1.1,0-1.7c0.2,0.3,0.4,0.5,0.6,0.7c0.1-0.5,0.2-1,0.2-1.5
		c0.6,1.8,0.7,2.3,0.6,3.7c0,0.2,0.1,0.5,0.2,0.7c0,0,0.1,0,0.2,0c0-0.4,0-0.7,0-0.9c0.4,0.2,0.8,0.3,1.2,0.5c0.1-0.6,0.2-1,0.3-1.6
		c0.3,0.6-0.2,1.9,0.7,1.6c-0.4,1.4-0.4,1.7,0.4,2c0.4,1.2-1,1.9-0.5,3c0.7-0.7,1.3-1.4,2-2.1c0.3,2.2,0.5,4,0.7,5.6
		c0.5,0.2,1,0.3,1.3,0.4c0.2-0.5,0.5-1.2,0.8-1.8c0.4-0.6,0.8-1.1,1.4-1.8c-0.1-1.2,0.7-0.7,1.3-0.9c-0.1-1-0.3-2,0.7-2.7
		c0.1,1.1,0.2,2.1,0.3,3.1c0.7-1.1,0.5-2.4,0.5-3.7c0-0.6,0.2-1.1,0.3-1.6c0.1-0.4,0.2-0.8,0.3-1.2c0.1-0.3,0.4-0.7,0.4-1
		c-0.1-0.7-0.4-1.4,0.3-1.9c0.1-0.1,0.1-0.3,0.2-0.4c0.1,0.2,0.2,0.3,0.3,0.5c0.1,0.8,0.2,1.6,0.4,2.4c0.1,0,0.2,0,0.3,0
		c-0.2-2.6,0.6-4.7,1.2-7.2c0.4,1,0.7,1.7,0.9,2.4c0.2,0.9,0.4,1.1,0.8,0.3c0.2-0.4,0.6-0.6,0.9-1c0.2,0.6,0.3,1.1,0.5,1.7
		c0,0.1,0,0.2,0,0.2c0,0.9,0.1,1.8,0.8,2.2c0.1,0.1,0.1,0.5,0.2,0.8c0.1,0.2,0.1,0.5,0.2,0.7c0.1-0.1,0.3-0.2,0.4-0.4
		c0.3-0.5,0.6-1.1,0.9-1.6c0.1,0,0.1,0.1,0.2,0.1c0,0.9,0.1,1.8,0.1,2.8c0.2,0.1,0.4,0.1,0.6,0.2c-0.1,0.9-0.3,1.7-0.4,2.6
		c0.3-0.2,0.5-0.3,0.9-0.5c0,0.9,0,1.5,0,2.2c0,0.3,0,0.7,0.1,0.8c0.9,0.5,0.4,1.4,0.3,2.3c0.5,0,0.9,0,1.5,0
		c-0.1,1.1-0.2,2.3-0.3,3.4c0.4-0.3,0.6-0.5,0.7-0.6c0.1-1.5,0.1-3,0.2-4.4c0.4,0.1,0.6,0.2,1,0.3c-0.3-0.6-0.4-1-0.6-1.3
		c0.3-0.7,0.6-1.4,1-2.3c0.2,0.6,0.3,1,0.4,1.4c0.4-0.3,0.8-0.6,1.2-1c-0.5-1.4,0.7-1.4,0.9-2.3c0.2,0.8,0.4,1.6,0.6,2.3
		c0.4-0.5,0.8-1.1,1.4-1.7c0.1,0.5,0.2,0.8,0.2,1.1c0.2,0.1,0.4,0.3,0.6,0.2c0.2,0,0.4-0.2,0.5-0.5c0.2-0.6,0.3-1.3,0.6-1.8
		c0.4-0.7,0.9-1.3,1.6-2.1c0.2-0.4,0.5-1.1,0.8-1.7c0.1,0,0.1,0.1,0.2,0.1c0,0.5,0.1,1,0.1,1.5c0.2,0,0.4,0,0.6-0.1
		c0,0.4-0.1,0.7-0.1,1.1c0.7,0,0.7,0.5,0.5,1.2c0.3,0.2,0.7,0.5,0.7,0.6c-0.2,1.7-0.4,3.3-0.8,4.9c-0.2,0.6-0.1,1,0.1,1.4
		c0.1,0.4,0.5,0.7,0.7,1.1c0.1-0.2,0.2-0.5,0.5-1.1c0.1,1.4,0.1,2.5,0.2,3.6c0.1,0,0.1,0.1,0.2,0.1c0.1-0.3,0.2-0.7,0.3-1
		c0.5-0.2,1-0.7,1.3-1.2c0.2-0.3,0.4-0.8,0.6-1.3c0.6,1.6,0.7,1.7,1.9,2.6c-0.3-1.3-0.5-2.6-0.8-3.6c0.5-0.3,1-0.3,1.1-0.6
		c0.2-0.3,0.1-1,0.2-1.3c0-0.9-0.1-1.6-0.1-2.7c0.5,0.6,0.8,1,0.9,1.2c0.2-1,0.4-2.1,0.7-3.3c0.7,0.6,1.3,1.3,1-0.5
		c0-0.1,0.1-0.2,0.1-0.3c0.3-1.6,0.6-3.1,0.9-4.7c0.1-0.5,0.1-1.2,0.3-1.3c0.7-0.6,1.4-1,2.2-1.5c0.1,0.5,0.2,0.8,0.3,1.4
		c0-0.7,0.1-1.1,0.1-1.6c1,0.9,0.4-0.6,0.7-0.9c0.2,0.1,0.4,0.2,0.6,0.3c0.1-0.3,0.1-0.5,0.2-0.9c0.6,0.8,1,1.1,1.3-0.3
		c0.3,0.7,0.5,1.5,0.6,2.2c0.1,0.9,0.1,1.8,0.1,2.7c0.2-0.1,0.4-0.1,0.8-0.3c-0.2,1.4-0.4,2.6-0.6,3.9c0.4,0.1,0.8,0.9,1.2-0.3
		c0.2-0.6,0.9-0.7,1.5-1.2c0-1.6,1.5-0.5,1.8-1.9c0.2,0.9,0.4,1.5,0.6,2.3c0.3-0.3,0.6-0.7,0.9-1.2c0.4,0.7-0.2,2.5,1.2,2.6
		c-0.1,0.8-0.2,1.5-0.3,2.2c0,0.3,0,0.8,0.1,1c0.2,0.2,0.5,0.2,0.8,0.3c0-0.3,0-0.6,0.1-0.9c0.1-0.8,0.3-1.5,0.5-2.6
		c0.3,0.7,0.4,1.1,0.4,1.2c0.5-0.3,1-0.6,1.5-0.9c1-0.6,0.4,1.7,1.1,1.3c0,0.6,0,1.1-0.1,1.7c0.1,0,0.1,0.1,0.2,0.1
		c0.2-0.3,0.5-0.6,0.7-0.9c0.1,1.7,0.2,3.3,0.3,5.3c0.4-0.8,0.7-1.4,1-2c0.1,0.1,0.2,0.2,0.3,0.3c0.1,0.5,0.1,0.9,0.2,1.5
		c0.4-0.2,0.7-0.3,0.9-0.5c0.5,1.1-0.3,2.6,0.6,3.8c0.1-0.7,0.1-1.1,0.2-1.4c0.1-0.5,0.3-1.1,0.5-1.5c0.1-0.2,0.6-0.1,0.7,0.1
		c0.3,0.7,0.4,1.1,0.9,0.3c0.1-0.2,0.4-0.1,0.6-0.2c0-0.3,0-0.6,0-1.2c0.2,0.4,0.3,0.5,0.4,0.7c0.2,0.6,0.2,1.5,0.5,1.7
		c0.6,0.5,0.5,1.6,0.4,1.7c-0.6,0.5,0,2.1-0.9,2.1c0,0.4-0.1,1,0.1,1.2c0.3,0.5,0.7,0.9,1,1.3c0.1-1.9,0.1-4,1.3-5.6
		c0.1,0.3,0.2,0.6,0.3,0.9c1.1-1.3,1.1-1.3,1.4-0.7c0.3-1.1,0.7-2.3,1-3.6c0.2,0.1,0.3,0.2,0.4,0.2c0-0.1-0.1-0.2-0.1-0.3
		c0.4-0.7,0.8-1.4,1.2-2.1c0.2,0.3,0.3,0.4,0.3,0.6c0.5,1.4-0.1,2.9,0.1,4.4c0.2-0.1,0.5-0.1,0.7-0.1c0.2-0.4,0.3-0.8,0.4-1
		c0.2-0.2,0.4-0.3,0.8-0.6c1.1,0.6,0,2.1,0.2,3.3c0.3-0.3,0.5-0.5,0.9-0.8c0,1.5-0.7,2.1-0.9,2.7c0.1,0.7,0.2,1.1,0.3,1.6
		c0,0,0.1,0.1,0.1,0c0.3-0.9,0.6-1.9,1.2-2.4c-0.4-1.3,0.5-1.6,0.8-2.4c0.1-0.2,0.2-0.4,0.3-0.6c0.3-0.6,0.6-1.3,0.9-1.9
		c0.1,0.1,0.2,0.1,0.2,0.2c0.1,0.7,0.2,1.5,0.2,2c0.3-0.5,0.6-0.9,0.7-1.2c0.3-1,0.3-2.3,0.7-2.7c0.8-0.8,1.2-1.5,1.2-2.9
		c0-1.2,0.5-1.7,1.1-1.6c0.2-0.7,0.4-1.4,0.6-2.4c0.3,0.6,0.6,1,0.8,1.5c0.5-0.8,0.7-0.6,1,0.7c0.2-0.1,0.5-0.4,0.7-0.3
		c0.2,0,0.4,0.4,0.5,0.6c0.1,0.2,0.1,0.6,0.1,0.6c0.2,0,0.4,0,0.5-0.1C1475.1,336.6,1475.3,336.4,1475.5,336.3z"/>
</g>
<path id="XMLID_10_" class="st0" d="M124.4,291c-0.2,0.1-0.4,0.1-0.5,0.1c0,0,0-0.3-0.1-0.4c-0.1-0.2-0.3-0.4-0.5-0.4
	c-0.2,0-0.5,0.1-0.7,0.2c-0.3-0.9-0.5-1-1-0.5c-0.2-0.3-0.5-0.6-0.8-1c-0.2,0.6-0.4,1.1-0.6,1.6c-0.6-0.1-1.1,0.3-1.1,1.1
	c0,0.9-0.4,1.4-1.2,1.9c-0.4,0.3-0.5,1.1-0.7,1.8c-0.2,0.2-0.4,0.5-0.7,0.8c-0.1-0.4-0.2-0.9-0.2-1.4c-0.1,0-0.2-0.1-0.2-0.1
	c-0.3,0.4-0.6,0.8-0.9,1.3c-0.1,0.1-0.2,0.3-0.3,0.4c-0.3,0.5-1.2,0.8-0.8,1.6c-0.6,0.4-0.9,1-1.2,1.6c0,0-0.1,0-0.1,0
	c-0.1-0.3-0.2-0.6-0.3-1c0.2-0.4,1-0.8,0.9-1.8c-0.4,0.2-0.6,0.4-0.9,0.6c-0.3-0.8,0.8-1.8-0.2-2.2c-0.4,0.2-0.6,0.3-0.8,0.4
	c-0.2,0.1-0.3,0.4-0.4,0.7c-0.1,0-0.4,0.1-0.7,0.1c-0.2-1,0.4-2-0.1-2.9c-0.1-0.1-0.2-0.2-0.3-0.4c-0.4,0.5-0.8,1-1.2,1.4
	c0,0.1,0.1,0.1,0.1,0.2c-0.1,0-0.3-0.1-0.4-0.2c-0.3,0.8-0.7,1.6-1,2.4c-0.4-0.4-0.4-0.4-1.4,0.5c-0.1-0.2-0.2-0.4-0.3-0.6
	c-1.2,1-1.2,2.5-1.3,3.7c-0.3-0.3-0.7-0.5-1-0.9c-0.1-0.2-0.1-0.5-0.1-0.8c1,0,0.3-1.1,0.9-1.4c0.1,0,0.2-0.8-0.4-1.1
	c-0.3-0.1-0.3-0.7-0.5-1.1c-0.1-0.1-0.2-0.2-0.4-0.5c0,0.4,0,0.5,0,0.8c-0.2,0-0.5,0-0.6,0.1c-0.5,0.5-0.6,0.3-0.9-0.2
	c-0.1-0.1-0.6-0.2-0.7-0.1c-0.2,0.3-0.4,0.6-0.5,1c-0.1,0.2-0.1,0.5-0.2,1c-1-0.8-0.2-1.8-0.6-2.5c-0.3,0.1-0.6,0.2-0.9,0.3
	c-0.1-0.4-0.2-0.7-0.2-1c-0.1-0.1-0.2-0.1-0.3-0.2c-0.3,0.4-0.6,0.8-1,1.3c-0.1-1.3-0.2-2.4-0.3-3.5c-0.3,0.2-0.5,0.4-0.7,0.6
	c-0.1,0-0.1-0.1-0.2-0.1c0-0.3,0-0.7,0.1-1.1c-0.8,0.3-0.2-1.3-1.1-0.9c-0.5,0.2-1,0.4-1.5,0.6c0-0.1-0.2-0.3-0.4-0.8
	c-0.2,0.7-0.4,1.2-0.5,1.7c-0.1,0.2,0,0.4-0.1,0.6c-0.3-0.1-0.6-0.1-0.8-0.2c-0.1-0.1-0.2-0.4-0.1-0.6c0.1-0.5,0.2-0.9,0.3-1.5
	c-1.4,0-0.7-1.2-1.2-1.7c-0.3,0.3-0.6,0.6-0.9,0.8c-0.2-0.5-0.3-0.9-0.6-1.5c-0.4,1-1.9,0.2-1.8,1.3c-0.6,0.3-1.3,0.4-1.5,0.8
	c-0.5,0.8-0.9,0.3-1.2,0.2c0.2-0.8,0.4-1.7,0.6-2.6c-0.4,0.1-0.5,0.1-0.8,0.2c0-0.6,0-1.2-0.1-1.8c-0.1-0.5-0.3-1-0.6-1.5
	c-0.3,0.9-0.8,0.8-1.3,0.2c-0.1,0.3-0.1,0.4-0.2,0.6c-0.2-0.1-0.4-0.1-0.6-0.2c-0.3,0.2,0.3,1.2-0.7,0.6c0,0.3-0.1,0.6-0.1,1
	c-0.1-0.4-0.2-0.6-0.3-0.9c-0.8,0.3-1.5,0.6-2.2,1c-0.2,0.1-0.2,0.6-0.3,0.9c-0.3,1-0.6,2.1-0.9,3.1c0,0.1-0.1,0.2-0.1,0.2
	c0.3,1.2-0.3,0.8-1,0.3c-0.2,0.8-0.4,1.5-0.7,2.2c-0.2-0.2-0.5-0.4-0.9-0.8c0.1,0.7,0.1,1.2,0.1,1.8c0,0.3,0,0.7-0.2,0.9
	c-0.2,0.2-0.6,0.2-1.1,0.4c0.2,0.7,0.5,1.6,0.8,2.4c-1.1-0.6-1.2-0.6-1.9-1.7c-0.2,0.3-0.4,0.6-0.6,0.8c-0.4,0.3-0.8,0.6-1.3,0.8
	c-0.1,0.2-0.2,0.5-0.3,0.7c-0.1,0-0.1,0-0.2-0.1c-0.1-0.7-0.1-1.4-0.2-2.4c-0.3,0.4-0.4,0.6-0.5,0.7c-0.3-0.3-0.6-0.4-0.7-0.7
	c-0.1-0.2-0.2-0.5-0.1-0.9c0.4-1,0.6-2.2,0.8-3.3c0-0.1-0.4-0.2-0.7-0.4c0.2-0.4,0.2-0.8-0.5-0.8c0-0.3,0.1-0.5,0.1-0.7
	c-0.2,0-0.4,0-0.6,0c0-0.4-0.1-0.7-0.1-1c-0.1,0-0.1,0-0.2-0.1c-0.3,0.5-0.6,0.9-0.8,1.2c-0.6,0.6-1.2,0.9-1.6,1.4
	c-0.3,0.3-0.4,0.8-0.6,1.2c-0.1,0.1-0.3,0.3-0.5,0.3c-0.2,0-0.4-0.1-0.6-0.2c-0.1-0.2-0.1-0.4-0.2-0.7c-0.5,0.5-1,0.8-1.4,1.2
	c-0.2-0.5-0.4-1-0.6-1.5c-0.3,0.6-1.5,0.6-0.9,1.6c-0.4,0.2-0.8,0.4-1.2,0.7c-0.1-0.3-0.2-0.5-0.4-1c-0.4,0.6-0.7,1.1-1,1.6
	c0.1,0.2,0.3,0.4,0.6,0.9c-0.4-0.1-0.6-0.1-1-0.2c-0.1,1-0.1,1.9-0.2,2.9c-0.1,0-0.4,0.2-0.7,0.4c0.1-0.8,0.2-1.5,0.3-2.3
	c-0.6,0-1,0-1.5,0c0.1-0.6,0.6-1.2-0.3-1.5c-0.1,0-0.1-0.3-0.1-0.5c0-0.4,0-0.9,0-1.5c-0.4,0.2-0.6,0.2-0.9,0.4
	c0.1-0.6,0.3-1.1,0.4-1.7c-0.2-0.1-0.4-0.1-0.6-0.2c0-0.6-0.1-1.3-0.1-1.9c-0.1,0-0.1-0.1-0.2-0.1c-0.3,0.4-0.6,0.7-0.9,1.1
	c-0.1,0.1-0.2,0.2-0.4,0.3c-0.1-0.2-0.1-0.3-0.2-0.5c-0.1-0.2-0.1-0.5-0.2-0.5c-0.7-0.3-0.7-0.9-0.8-1.5c0-0.1,0-0.1,0-0.2
	c-0.1-0.4-0.3-0.8-0.5-1.1c-0.3,0.2-0.7,0.4-0.9,0.6c-0.5,0.6-0.6,0.4-0.8-0.2c-0.2-0.5-0.5-1-0.9-1.6c-0.5,1.7-1.4,3.1-1.2,4.8
	c-0.1,0-0.2,0-0.3,0c-0.1-0.5-0.2-1.1-0.4-1.6c0-0.1-0.2-0.2-0.3-0.3c-0.1,0.1-0.1,0.2-0.2,0.3c-0.7,0.3-0.3,0.8-0.3,1.3
	c0,0.2-0.3,0.4-0.4,0.7c-0.1,0.3-0.2,0.5-0.3,0.8c-0.1,0.4-0.3,0.7-0.3,1.1c0,0.9,0.2,1.8-0.5,2.5c-0.1-0.7-0.2-1.3-0.3-2.1
	c-1,0.5-0.8,1.1-0.7,1.8c-0.6,0.1-1.3-0.2-1.3,0.6c-0.6,0.5-1,0.8-1.4,1.2c-0.4,0.4-0.6,0.9-0.8,1.2c-0.4-0.1-0.8-0.2-1.3-0.3
	c-0.2-1.1-0.4-2.3-0.7-3.7c-0.7,0.5-1.3,0.9-2,1.4c-0.5-0.7,1-1.2,0.5-2c-0.8-0.2-0.9-0.4-0.4-1.4c-0.9,0.2-0.4-0.7-0.7-1.1
	c-0.1,0.4-0.2,0.7-0.3,1.1c-0.4-0.1-0.8-0.2-1.2-0.3c0,0.1,0,0.4,0,0.6c-0.1,0-0.2,0-0.2,0c-0.1-0.1-0.2-0.3-0.2-0.5
	c0-1,0-1.2-0.6-2.5c-0.1,0.3-0.2,0.6-0.2,1c-0.2-0.1-0.3-0.3-0.6-0.5c0,0.4,0,0.8,0,1.2c-0.4,0-0.7-0.1-1.2-0.1
	c0,0.1-0.1,0.4-0.2,0.7c-0.4-0.4-0.7-0.8-1.1-1.2c-0.1-0.1-0.1-0.2-0.2-0.3c-0.1,0.1-0.2,0.2-0.3,0.3c-0.2,0.2-0.4,0.4-0.5,0.6
	c-0.1,0-0.2-0.1-0.2-0.1c0,0.2,0.1,0.4,0.1,0.4c-0.3,0.4-0.5,0.7-0.8,0.8c-0.5,0.3-0.5,0.7-0.3,1.2c0,0.1-0.3,0.3-0.4,0.5
	c-0.2-0.7-0.4-1.3-0.6-2.1c-0.8,1-0.9,2.3-2.1,2.7c-0.3-1.1-0.6-2.1-0.9-3.1c-0.1,0-0.2,0-0.3,0c-0.1,0.2-0.1,0.5-0.2,0.7
	c-0.1-0.1-0.1-0.1-0.2-0.2c-0.4,0.5-0.9,0.9-1.5,1.6c-0.1-0.8-0.2-1.6-0.3-2.5c-0.6,0.7-1,1.6-1.9,0.5c-0.4,0.4-0.8,0.8-1.1,1.1
	c0.2-0.7-0.4-1-0.9-1c-0.5,0-1,0.4-1.4,0.6c-0.5,0.4-0.2,1-0.4,1.8c-0.3-0.4-0.5-0.8-0.7-0.8c-0.2,0-0.5,0.3-0.8,0.5
	c-0.4-0.6-0.6-0.1-1,0.3c-0.3,0.3-0.5,0.5-0.2,1c0.1,0.2-0.4,0.9-0.7,1.1c-1,0.6-1.4,1.2-1.2,2.3c0,0.1-0.1,0.3-0.1,0.4
	c0,0.3-0.2,0.8-0.1,0.9c0.3,0.2,0.3,0.4,0.1,0.6c-0.7,0.7-1.4,1.3-2.5,1.3c0.1-0.8,0.7-1.6,0-2.3c-0.3,0.5-0.5,1.1-1.2,0.6
	c0,0-0.4,0.5-0.6,0.8c-1-0.1-1.1-0.3-1-1.9c-0.9-0.4-1.1-0.9-0.8-1.9c0.1-0.3,0.3-0.6-0.1-0.9c-0.3-0.3-0.3-0.8,0.1-1.2
	c0.3-0.3,0.6-0.7,0.2-1.1c-0.3,0.1-0.5,0.2-0.8,0.4c-0.6-1,0.7-1.5,0.4-2.4c-0.3,0.1-0.7,0.2-1.1,0.3c0-0.6,0.5-1.1-0.2-1.4
	c0,0,0-0.2,0-0.3c0.4-0.7-0.1-1.1-0.4-1.7c-0.5,0.6-0.9,1.2-1.3,1.7c0,0-0.1,0-0.1,0v62.3c42,0,84,0,126,0c0-20.6,0-41.1,0-61.7
	C124.8,290.8,124.6,290.9,124.4,291z"/>
<linearGradient id="XMLID_44_" gradientUnits="userSpaceOnUse" x1="897.9473" y1="2882.429" x2="897.9473" y2="2272.2869" gradientTransform="matrix(-1 0 0 -1 1859.0355 3711.9536)">
	<stop  offset="0" style="stop-color:#4A7182"/>
	<stop  offset="0.6735" style="stop-color:#002F49"/>
	<stop  offset="1" style="stop-color:#081118"/>
</linearGradient>
<rect id="XMLID_50_" x="1.1" y="829.5" class="st2" width="1920" height="610.1"/>
<polygon id="XMLID_51_" class="st3" points="1859,1021.6 1825.6,1003.8 1776.2,1060.3 1686.1,1128.2 1600.6,1200.1 1523.1,1133.2 
	1381.3,1076.4 1356,1088.4 1302.2,1143.2 1242.9,1084.3 1225.8,1069.1 1040.2,1101.1 884.5,1159.1 712.8,1096.9 561.3,1047.7 
	444.5,1074.4 227.6,1129.9 79.5,1091 -2.9,1144.3 -3.1,1144.2 -3.1,892.6 -3.1,891.3 -3.1,839.3 358.2,865.9 989.4,865.9 
	1347,839.3 1690.6,853.5 1916.9,845 1921,891 1921.1,891 1921.1,1043.4 "/>
<g id="XMLID_30_">
	<path id="XMLID_31_" class="st0" d="M912.3,302.6c0,20.6,0,41.1,0,61.7c-71.9,0-143.7,0-215.6,0c0-19.7,0-39.3,0-59
		c0.2,0.2,0.4,0.5,0.5,0.7c0.2-0.1,0.6-0.1,0.7-0.2c0.3,0.5,0.5,0.9,0.7,1.1c-0.2,0.7-0.3,1.2-0.4,1.8c0.1,0.1,0.2,0.1,0.3,0.2
		c0.3-0.3,0.6-0.5,0.9-0.8c0,0.1,0.1,0.2,0.2,0.5c0.1-0.5,0.2-0.9,0.3-1.3c0.2,0.1,0.3,0.1,0.3,0.1c0.6,0.7,0.6,0.7,1.3-0.2
		c0,0,0.1-0.1,0.1-0.1c0.2,0.1,0.3,0.3,0.6,0.5c-0.2-1.2,0.4-1.3,1.2-1.3c0,0.2,0,0.4,0.1,0.6c0.1,0,0.1,0,0.2,0.1
		c0.2-0.4,0.4-0.8,0.6-1.3c0.1,0.1,0.3,0.2,0.5,0.3c0.1-0.4,0.2-0.7,0.4-1.2c0.3,0.4,0.5,0.7,0.8,1.2c0-0.6,0.6-0.9,0.3-1.7
		c-0.2-0.4,0.6-1.3,1-1.8c0.3-0.4,0.7-0.8,1.1-1.1c0.1-0.5,0.1-1,0.2-1.4c0.4-0.2,0.7-0.3,1-0.4c0.2,0.4,0.3,0.8,0.6,1.3
		c0.2-0.3,0.2-0.5,0.4-0.9c0.2,0.5,0.4,0.9,0.6,1.4c0.3-0.8,0.5-1.4,0.8-2.1c0,0.1,0.1,0.1,0.1,0.2c0.4-0.3,0.8-0.5,1.3-0.8
		c0.4,1,0.7,1.9,1.1,2.9c1,0.1,1.2,0.3,0.9,1.7c0.2,0,0.6,0,0.6,0c0.4,0.8,0.9,0.5,1.4,0.2c0.2,1.6,0.2,1.6-0.1,2
		c-0.4,0.6-0.4,0.8,0.2,0.9c0.3-0.3,0.6-0.5,0.7-0.6c0.3-0.3,0.5-0.5,0.6-0.8c0.1,0,0.2,0,0.3,0.1c0,0.9,0,1.8,0,2.7
		c0.2-0.1,0.5-0.3,0.7-0.4c0.1,0,0.2,0.1,0.2,0.1c-0.5,1.1-1,2.3-0.2,3.5c0.1-0.2,0.2-0.4,0.3-0.7c0.3,0.9,0.5,1.5,1.1,2
		c0.6-0.6-0.7-1.5,0.3-1.7c0-0.7,0-1.2,0-1.8c0.3,0.1,0.5,0.1,0.6,0.1c0.3-0.4,0.6-0.8,0.9-1.2c0,0-0.1-0.1-0.2-0.2
		c0.3-0.2,0.6-0.3,0.7-0.5c0.4-0.4,0.8-0.9,1.1-1.3c0.3-0.4,0.6-0.9,1-1.3c0.3-0.2,0.7-0.3,1-0.4c0,0,0.1,0.4,0.2,0.6
		c0.5-0.2,0.7-0.7,1.2-1c0.5-0.3,0.7-1.2,0.7-1.8c0-0.8,0.7-1,0.9-1.5c0.1,0.2,0.2,0.5,0.4,0.8c0.2-0.3,0.3-0.5,0.6-1
		c0.2,0.6,0.3,0.9,0.4,1.3c0.6-0.8,1.1-1.4,1.7-2c0.3-0.3,0.6-0.5,0.9-0.7c0,0.2,0.1,0.5,0.1,0.7c0,0.1,0.1,0.1,0.1,0.1
		c1,0.2,0.2,1.8,1.4,1.8c0,0,0,0.1,0.1,0.1c0.3,0.6,0.7,1.2,0.3,1.9c0,0.1,0.1,0.2,0.2,0.4c0.2-0.2,0.3-0.4,0.4-0.5
		c0.4,0.5,0.8,0.9,1.4,1.5c0,0.3,0.6,1.8,1.1,2c0.4-0.6,0.9-1.2,1.4-2c0.2,0.5,0.5,1,0.7,1.4c-0.1,0.1-0.1,0.1-0.2,0.2
		c0.3,0,0.5,0.1,0.8,0.1c-0.1,1.8-0.1,1.9,1.1,2.4c0,0.5,0,1,0,1.4c0.1,0,0.2,0,0.2,0c0.1-0.1,0.2-0.3,0.2-0.4
		c0-0.5-0.1-1.1,0.7-1.2c0.3,0,0.8-0.5,0.9-0.8c0.2-0.7,0.6-0.8,1-0.7c0.2-0.4,0.3-0.8,0.5-0.9c0.4-0.1,0.8,0.1,1.2,0.1
		c-0.1-0.6,0.3-1.1,0.9-1.4c0.1-0.1,0.3-0.1,0.4-0.2c0.1-0.3,0.2-0.5,0.2-0.8c0,0,0,0,0,0c0-0.5,0.1-1,0.1-1.4
		c0.1,0,0.1-0.1,0.2-0.1c0.2,0.4,0.4,0.9,0.7,1.3c-0.1-1.4,0.9-2,1.9-2.6c0.3,0.5,0.2,1.3,0.9,1.5c0,0,0,0.2,0,0.3
		c-0.2,0.6-0.3,1.2-0.6,2c0.4-0.3,0.7-0.6,0.8-0.7c0.7,0.5,1.2,1,1.8,1.4c-0.4,1.4-0.4,1.4-1.2,1.7c0.3,0.1,0.5,0.2,0.7,0.3
		c0.2,0.1,0.3,0.4,0.3,0.5c0,0.3,0,0.6-0.1,0.9c0.1,0,0.1,0,0.2,0c-0.1,0.3-0.2,0.7-0.2,0.8c-0.4,0.1-0.8,0-1,0.2
		c-0.5,0.6,0.3,1,0.4,1.6c0.5-0.1,1-0.2,1.4-0.3c0.2-0.4-0.2-1.1,0.6-1c0.1,0.2,0.2,0.5,0.3,0.8c0.7-0.8,1.4-1.5,2.2-2.3
		c0.1-1,0.1-2.2,1.2-3.2c0.1,0.5,0.3,1,0.4,1.4c0.1,0,0.2,0,0.3,0c-0.1-1.3-0.1-2.5,0.8-3.4c0.3-0.2,0.5-0.3,0.9-0.5
		c0.2,0.6,0.3,1.2,0.4,1.7c0.1,0,0.4-0.1,0.6-0.1c0,0.2,0,0.5,0,0.7c-0.1,0.4-0.2,0.8-0.3,1.3c0.3,0,0.6,0.1,0.9,0.1
		c0,0.2,0,0.3,0,0.6c0.5-0.3,0.9-0.4,1.5-0.7c-0.4,1.1-0.7,2.1-1.1,3.2c0.2,0.1,0.6,0.3,0.9,0.4c0-0.1,0-0.2-0.1-0.3
		c0.2-0.2,0.5-0.5,0.7-0.5c0.4,0,0.7,0.3,1,0.4c-0.2,0.4-0.5,0.8-0.7,1.2c-0.1,0-0.2,0-0.2-0.1c0.1,0.2,0.2,0.3,0.3,0.4
		c0.4-0.3,0.8-0.5,1.2-0.7c0.1,0.1,0.1,0.2,0.2,0.3c-0.4,0.4-0.8,0.7-1.2,1.1c0.1,0.1,0.3,0.2,0.6,0.3c0,0.4,0,0.8,0,1.2
		c-0.2,0.2-0.6,0.4-0.9,0.6c0.2,0.4,1.4,0.2,0.8,1.2c0,0,0,0.1,0.1,0.1c0.3,0.6,0.6,1.3,1,1.9c1.1-0.6,1.1-0.6,0.6-1.3
		c0.2-0.2,0.3-0.3,0.5-0.5c-0.1-0.1-0.2-0.1-0.3-0.1c0.1-0.2,0.2-0.3,0.3-0.5c0.1-0.4,0.2-0.8,0.4-1.2c0,0,0.3,0,0.4,0
		c0.1,0,0.1,0.2,0.2,0.2c0.1-0.1,0.2-0.3,0.1-0.4c-0.2-0.2-0.4-0.5-0.7-0.7c-0.4-0.2-0.8-0.4-1.2-0.7c0.5-0.7,0.8-1.2,1.2-1.8
		c0-0.1-0.2-0.3-0.4-0.7c0.5,0,0.9,0,1.4,0c-0.1-0.4-0.3-0.9-0.4-1.2c-0.3,0.2-0.5,0.4-0.8,0.6c-0.2-0.3-0.3-0.5-0.5-0.9
		c0.1,0,0.3-0.1,0.6-0.2c-0.2-0.4-0.4-0.7-0.6-1.1c0.4-0.1,0.7-0.1,1-0.2c-0.2-0.5-0.7-0.7-0.7-1.4c0-0.7,0.1-0.9,0.4-1.1
		c0.5,0.3,0.9,0.5,1.3,0.6c0.2,0,0.4-0.3,0.8-0.5c0.3,0.2,0.7,0.4,1.1,0.7c0.1-0.4,0.3-0.8,0.4-1.2c-0.1,0-0.5-0.1-0.5-0.1
		c0-0.4,0.1-0.7,0.2-1.1c0-0.1,0.4,0,0.8-0.1c-0.1-0.5-0.1-1.1-0.2-1.7c0.1,0,0.2,0.1,0.2,0.1c0.2-0.3,0.6-0.5,0.6-0.8
		c0.1-0.5,0-0.6,0.6-0.6c0.1-1.1,0.3-2.2,1.3-2.9c0.2,0.1,0.5,0.3,0.8,0.5c0-0.3,0.1-0.5,0.1-0.9c0.4,0.1,0.7,0.3,1.1,0.4
		c0.1-0.3,0.2-0.5,0.3-0.8c0.3,0,0.6-0.1,0.9-0.1c0-0.1,0-0.2,0-0.3c0-0.1,0.1-0.2,0.2-0.3c1.1,0.8,0.1,1.7,0.3,2.7
		c0.4-0.5,0.8-0.9,1.2-1.3c0.1-0.1,0.3-0.3,0.4-0.3c0.2,0.1,0.4,0.3,0.4,0.4c0.1,0.6,0.3,1.1,0,1.8c-0.2,0.3,0,0.9,0.2,1.4
		c0.2,0.5,0.7,0.9,0.3,1.5c0,0,0.2,0.2,0.2,0.2c0.6-0.6,1.1-1.2,1.7-1.8c0,0,0.3,0.1,0.5,0.2l0.2,1.7c0.1,0.3,0.1,0.7,0.2,1
		c0.1,0,0.1,0,0.2,0c0.1-0.3,0.3-0.7,0.4-1c0.5,0.1,0.9,0.3,1.3,0.4c0.4-0.5,0.8-1.1,1.3-1.7c0.3,0.6,0.8,1,0.4,1.7
		c0,0.1,0,0.3,0,0.3c0.7,0.3,0.1,0.8,0.2,1.4c0.4-0.1,0.8-0.2,1.1-0.3c0.3,0.9-0.9,1.4-0.4,2.4c0.3-0.1,0.6-0.3,0.8-0.4
		c0.4,0.5,0.1,0.8-0.2,1.1c-0.4,0.4-0.4,1-0.1,1.2c0.4,0.4,0.2,0.6,0.1,0.9c-0.3,0.9-0.1,1.5,0.8,1.9c-0.1,1.6,0,1.8,1,1.9
		c0.3-0.3,0.6-0.8,0.6-0.8c0.7,0.4,0.9-0.2,1.2-0.6c0.8,0.8,0.1,1.5,0,2.3c1.1,0,1.8-0.6,2.5-1.3c0.2-0.2,0.3-0.4-0.1-0.6
		c-0.1-0.1,0-0.6,0.1-0.9c0-0.1,0.1-0.3,0.1-0.4c-0.2-1.1,0.1-1.7,1.2-2.3c0.4-0.2,0.8-0.9,0.7-1.1c-0.3-0.5-0.1-0.7,0.2-1
		c0.4-0.4,0.6-0.9,1-0.3c0.3-0.2,0.6-0.6,0.8-0.5c0.2,0,0.4,0.5,0.7,0.8c0.2-0.7-0.2-1.4,0.4-1.8c0.4-0.3,0.9-0.6,1.4-0.6
		c0.5,0,1.1,0.3,0.9,1c0.4-0.4,0.7-0.7,1.1-1.1c0.9,1.1,1.3,0.2,1.9-0.5c0.1,1,0.2,1.7,0.3,2.5c0.6-0.6,1-1.1,1.5-1.6
		c0.1,0.1,0.1,0.1,0.2,0.2c0.1-0.2,0.1-0.5,0.2-0.7c0.1,0,0.2,0,0.3,0c0.3,1,0.6,2,0.9,3.1c1.1-0.5,1.3-1.7,2.1-2.7
		c0.2,0.7,0.4,1.4,0.6,2.1c0.2-0.2,0.4-0.4,0.4-0.5c-0.1-0.5-0.2-0.9,0.3-1.2c0.3-0.2,0.5-0.5,0.8-0.8c0,0,0-0.2-0.1-0.4
		c0.1,0,0.2,0.1,0.2,0.1c0.2-0.2,0.4-0.4,0.5-0.6c0.1-0.1,0.2-0.2,0.3-0.3c0.1,0.1,0.1,0.2,0.2,0.3c0.3,0.4,0.7,0.7,1.1,1.2
		c0.1-0.3,0.1-0.6,0.2-0.7c0.4,0,0.8,0.1,1.2,0.1c0-0.4,0-0.7,0-1.2c0.2,0.2,0.4,0.3,0.6,0.5c0.1-0.4,0.2-0.7,0.2-1
		c0.6,1.2,0.7,1.5,0.6,2.5c0,0.2,0.1,0.3,0.2,0.5c0,0,0.1,0,0.2,0c0-0.2,0-0.4,0-0.6c0.4,0.1,0.8,0.2,1.2,0.3
		c0.1-0.4,0.2-0.7,0.3-1.1c0.3,0.4-0.2,1.3,0.7,1.1c-0.4,1-0.4,1.1,0.4,1.4c0.4,0.8-1,1.3-0.5,2c0.7-0.5,1.3-0.9,2-1.4
		c0.3,1.4,0.5,2.7,0.7,3.7c0.5,0.1,1,0.2,1.3,0.3c0.2-0.3,0.5-0.8,0.8-1.2c0.4-0.4,0.8-0.7,1.4-1.2c-0.1-0.8,0.7-0.5,1.3-0.6
		c-0.1-0.7-0.3-1.3,0.7-1.8c0.1,0.7,0.2,1.4,0.3,2.1c0.7-0.7,0.5-1.6,0.5-2.5c0-0.4,0.2-0.7,0.3-1.1c0.1-0.3,0.2-0.5,0.3-0.8
		c0.1-0.2,0.4-0.5,0.4-0.7c-0.1-0.5-0.4-1,0.3-1.3c0.1,0,0.1-0.2,0.2-0.3c0.1,0.1,0.2,0.2,0.3,0.3c0.1,0.5,0.2,1.1,0.4,1.6
		c0.1,0,0.2,0,0.3,0c-0.2-1.7,0.6-3.1,1.2-4.8c0.4,0.7,0.7,1.1,0.9,1.6c0.2,0.6,0.4,0.8,0.8,0.2c0.2-0.3,0.6-0.4,0.9-0.6
		c0.2,0.4,0.3,0.8,0.5,1.1c0,0,0,0.1,0,0.2c0,0.6,0.1,1.2,0.8,1.5c0.1,0,0.1,0.3,0.2,0.5c0.1,0.2,0.1,0.3,0.2,0.5
		c0.1-0.1,0.3-0.2,0.4-0.3c0.3-0.4,0.6-0.7,0.9-1.1c0.1,0,0.1,0.1,0.2,0.1c0,0.6,0.1,1.2,0.1,1.9c0.2,0,0.4,0.1,0.6,0.2
		c-0.1,0.6-0.3,1.1-0.4,1.7c0.3-0.1,0.5-0.2,0.9-0.4c0,0.6,0,1,0,1.5c0,0.2,0,0.5,0.1,0.5c0.9,0.4,0.4,1,0.3,1.5c0.5,0,0.9,0,1.5,0
		c-0.1,0.8-0.2,1.5-0.3,2.3c0.4-0.2,0.6-0.3,0.7-0.4c0.1-1,0.1-2,0.2-2.9c0.4,0.1,0.6,0.1,1,0.2c-0.3-0.4-0.4-0.6-0.6-0.9
		c0.3-0.5,0.6-0.9,1-1.6c0.2,0.4,0.3,0.7,0.4,1c0.4-0.2,0.8-0.4,1.2-0.7c-0.5-0.9,0.7-0.9,0.9-1.6c0.2,0.5,0.4,1.1,0.6,1.5
		c0.4-0.3,0.8-0.7,1.4-1.2c0.1,0.3,0.2,0.6,0.2,0.7c0.2,0.1,0.4,0.2,0.6,0.2c0.2,0,0.4-0.2,0.5-0.3c0.2-0.4,0.3-0.9,0.6-1.2
		c0.4-0.5,0.9-0.8,1.6-1.4c0.2-0.2,0.5-0.7,0.8-1.2c0.1,0,0.1,0,0.2,0.1c0,0.3,0.1,0.6,0.1,1c0.2,0,0.4,0,0.6,0
		c0,0.2-0.1,0.4-0.1,0.7c0.7,0,0.7,0.4,0.5,0.8c0.3,0.1,0.7,0.3,0.7,0.4c-0.2,1.1-0.4,2.2-0.8,3.3c-0.2,0.4-0.1,0.7,0.1,0.9
		c0.1,0.3,0.5,0.5,0.7,0.7c0.1-0.1,0.2-0.3,0.5-0.7c0.1,1,0.1,1.7,0.2,2.4c0.1,0,0.1,0,0.2,0.1c0.1-0.2,0.2-0.5,0.3-0.7
		c0.5-0.2,1-0.5,1.3-0.8c0.2-0.2,0.4-0.5,0.6-0.8c0.6,1.1,0.7,1.1,1.9,1.7c-0.3-0.9-0.5-1.7-0.8-2.4c0.5-0.2,1-0.2,1.1-0.4
		c0.2-0.2,0.1-0.6,0.2-0.9c0-0.6-0.1-1.1-0.1-1.8c0.5,0.4,0.8,0.6,0.9,0.8c0.2-0.7,0.4-1.4,0.7-2.2c0.7,0.4,1.3,0.9,1-0.3
		c0-0.1,0.1-0.1,0.1-0.2c0.3-1,0.6-2.1,0.9-3.1c0.1-0.3,0.1-0.8,0.3-0.9c0.7-0.4,1.4-0.7,2.2-1c0.1,0.3,0.2,0.6,0.3,0.9
		c0-0.4,0.1-0.7,0.1-1c1,0.6,0.4-0.4,0.7-0.6c0.2,0.1,0.4,0.1,0.6,0.2c0.1-0.2,0.1-0.4,0.2-0.6c0.6,0.6,1,0.7,1.3-0.2
		c0.3,0.5,0.5,1,0.6,1.5c0.1,0.6,0.1,1.2,0.1,1.8c0.2-0.1,0.4-0.1,0.8-0.2c-0.2,0.9-0.4,1.8-0.6,2.6c0.4,0.1,0.8,0.6,1.2-0.2
		c0.2-0.4,0.9-0.5,1.5-0.8c0-1.1,1.5-0.3,1.8-1.3c0.2,0.6,0.4,1,0.6,1.5c0.3-0.2,0.6-0.5,0.9-0.8c0.4,0.5-0.2,1.7,1.2,1.7
		c-0.1,0.5-0.2,1-0.3,1.5c0,0.2,0,0.5,0.1,0.6c0.2,0.2,0.5,0.2,0.8,0.2c0-0.2,0-0.4,0.1-0.6c0.1-0.5,0.3-1,0.5-1.7
		c0.3,0.5,0.4,0.7,0.4,0.8c0.5-0.2,1-0.4,1.5-0.6c1-0.4,0.4,1.1,1.1,0.9c0,0.4,0,0.8-0.1,1.1c0.1,0,0.1,0.1,0.2,0.1
		c0.2-0.2,0.5-0.4,0.7-0.6c0.1,1.1,0.2,2.2,0.3,3.5c0.4-0.5,0.7-0.9,1-1.3c0.1,0.1,0.2,0.1,0.3,0.2c0.1,0.3,0.1,0.6,0.2,1
		c0.4-0.1,0.7-0.2,0.9-0.3c0.5,0.7-0.3,1.7,0.6,2.5c0.1-0.5,0.1-0.7,0.2-1c0.1-0.3,0.3-0.7,0.5-1c0.1-0.1,0.6-0.1,0.7,0.1
		c0.3,0.5,0.4,0.7,0.9,0.2c0.1-0.1,0.4-0.1,0.6-0.1c0-0.2,0-0.4,0-0.8c0.2,0.2,0.3,0.3,0.4,0.5c0.2,0.4,0.2,1,0.5,1.1
		c0.6,0.3,0.5,1.1,0.4,1.1c-0.6,0.3,0,1.4-0.9,1.4c0,0.3-0.1,0.6,0.1,0.8c0.3,0.3,0.7,0.6,1,0.9c0.1-1.2,0.1-2.7,1.3-3.7
		c0.1,0.2,0.2,0.4,0.3,0.6c1.1-0.9,1.1-0.9,1.4-0.5c0.3-0.8,0.7-1.6,1-2.4c0.2,0.1,0.3,0.1,0.4,0.2c0-0.1-0.1-0.1-0.1-0.2
		c0.4-0.5,0.8-0.9,1.2-1.4c0.2,0.2,0.3,0.3,0.3,0.4c0.5,1-0.1,1.9,0.1,2.9c0.2,0,0.5-0.1,0.7-0.1c0.2-0.3,0.3-0.5,0.4-0.7
		c0.2-0.2,0.4-0.2,0.8-0.4c1.1,0.4,0,1.4,0.2,2.2c0.3-0.2,0.5-0.3,0.9-0.6c0,1-0.7,1.4-0.9,1.8c0.1,0.5,0.2,0.7,0.3,1
		c0,0,0.1,0,0.1,0c0.3-0.6,0.6-1.3,1.2-1.6c-0.4-0.9,0.5-1.1,0.8-1.6c0.1-0.1,0.2-0.3,0.3-0.4c0.3-0.4,0.6-0.8,0.9-1.3
		c0.1,0,0.2,0.1,0.2,0.1c0.1,0.5,0.2,1,0.2,1.4c0.3-0.3,0.6-0.6,0.7-0.8c0.3-0.7,0.3-1.5,0.7-1.8c0.8-0.5,1.2-1,1.2-1.9
		c0-0.8,0.5-1.2,1.1-1.1c0.2-0.5,0.4-1,0.6-1.6c0.3,0.4,0.6,0.7,0.8,1c0.5-0.5,0.7-0.4,1,0.5c0.2-0.1,0.5-0.2,0.7-0.2
		c0.2,0,0.4,0.2,0.5,0.4c0.1,0.1,0.1,0.4,0.1,0.4c0.2,0,0.4,0,0.5-0.1C911.9,302.8,912.1,302.7,912.3,302.6z"/>
</g>
<g id="XMLID_26_">
	<path id="XMLID_39_" class="st4" d="M1491.7,574c0,66.3,0,132.6,0,198.9c-231.7,0-463.5,0-695.2,0c0-63.5,0-126.9,0-190.3
		c0.6,0.8,1.2,1.5,1.7,2.3c0.8-0.2,1.8-0.5,2.4-0.6c1,1.6,1.7,2.8,2.2,3.6c-0.5,2.1-1,3.9-1.4,5.7c0.3,0.2,0.6,0.4,0.9,0.5
		c1-0.9,2-1.8,3.1-2.7c0.1,0.2,0.3,0.6,0.7,1.5c0.4-1.7,0.6-3,0.9-4.3c0.6,0.2,0.9,0.2,1.1,0.4c2.1,2.2,2,2.2,4.1-0.7
		c0.1-0.1,0.3-0.2,0.5-0.4c0.5,0.4,1.1,0.9,2.1,1.7c-0.7-3.8,1.4-4.1,3.9-4.3c0.1,0.7,0.1,1.3,0.2,1.8c0.2,0.1,0.4,0.2,0.7,0.2
		c0.6-1.3,1.2-2.6,1.8-4c0.5,0.3,0.9,0.7,1.5,1.1c0.4-1.2,0.7-2.3,1.2-4c0.9,1.4,1.6,2.4,2.5,3.7c0-1.9,1.9-2.9,0.9-5.4
		c-0.5-1.3,1.9-4.1,3.3-6c1-1.4,2.4-2.5,3.5-3.5c0.2-1.5,0.4-3.1,0.6-4.5c1.1-0.5,2.2-1,3.1-1.3c0.6,1.3,1.1,2.5,1.8,4.1
		c0.5-1.1,0.7-1.7,1.3-2.8c0.8,1.7,1.3,2.8,2.1,4.4c0.9-2.5,1.7-4.6,2.4-6.7c0.1,0.2,0.3,0.3,0.4,0.5c1.4-0.8,2.7-1.6,4.3-2.6
		c1.2,3.1,2.4,6.1,3.7,9.4c3.4,0.2,3.8,0.9,2.8,5.4c0.7,0,1.8-0.1,2,0.2c1.2,2.6,2.9,1.6,4.6,0.7c0.6,5.2,0.6,5.2-0.2,6.5
		c-1.3,2.1-1.2,2.5,0.6,2.9c1.1-1,1.8-1.8,2.2-2.1c0.9-1.1,1.5-1.8,2-2.5c0.3,0.1,0.7,0.1,1,0.2c0,2.9,0,5.8,0,8.6
		c0.7-0.4,1.5-0.9,2.2-1.4c0.3,0.1,0.5,0.2,0.8,0.3c-1.5,3.7-3.1,7.3-0.5,11.4c0.3-0.7,0.7-1.4,1-2.2c1,2.8,1.7,5,3.7,6.4
		c1.9-1.9-2.2-4.7,0.9-5.6c0-2.1,0-3.9,0-5.8c1.1,0.2,1.7,0.3,1.9,0.3c1.1-1.4,2-2.6,3-3.9c0.1,0.1-0.3-0.3-0.5-0.6
		c0.9-0.6,1.8-0.9,2.4-1.5c1.3-1.3,2.4-2.8,3.6-4.3c1.1-1.4,2-2.9,3.3-4.1c0.8-0.7,2.1-0.9,3.2-1.2c0.1,0,0.5,1.2,0.8,1.9
		c1.5-0.7,2.3-2.3,3.8-3.3c1.5-0.9,2.4-3.8,2.4-5.9c0-2.4,2.1-3.1,3-4.9c0.3,0.7,0.7,1.5,1.2,2.6c0.6-0.9,1.1-1.8,1.9-3.1
		c0.6,1.9,1,3,1.4,4.3c2-2.4,3.7-4.6,5.5-6.5c0.8-0.9,2-1.6,3-2.3c0.2,0.7,0.3,1.5,0.5,2.2c0,0.2,0.2,0.4,0.3,0.4
		c3.4,0.6,0.6,5.8,4.6,5.9c0.1,0,0.1,0.3,0.2,0.5c0.9,2,2.4,3.9,0.8,6.2c-0.1,0.2,0.3,0.7,0.5,1.2c0.5-0.6,1-1.1,1.4-1.6
		c1.4,1.5,2.7,2.9,4.4,4.8c-0.1,1.1,2.1,5.9,3.5,6.6c1.4-2,2.8-4,4.6-6.4c0.8,1.7,1.5,3.2,2.1,4.7c-0.2,0.2-0.4,0.3-0.7,0.5
		c0.8,0.1,1.6,0.2,2.4,0.3c-0.5,5.7-0.2,6.3,3.6,7.7c0,1.6,0,3.1,0,4.6c0.2,0,0.5,0,0.7,0c0.2-0.5,0.6-0.9,0.7-1.4
		c0.1-1.7-0.5-3.6,2.4-3.8c1-0.1,2.4-1.6,2.8-2.7c0.7-2.1,1.8-2.5,3.1-2.1c0.6-1.2,0.9-2.7,1.7-2.9c1.2-0.4,2.6,0.2,4,0.3
		c-0.4-2,0.9-3.5,2.8-4.7c0.4-0.2,1.1-0.2,1.2-0.5c0.4-0.8,0.5-1.7,0.8-2.6c-0.1,0-0.1,0-0.2,0c0.1-1.6,0.3-3.1,0.4-4.7
		c0.2-0.1,0.5-0.2,0.7-0.3c0.7,1.4,1.4,2.8,2.1,4.2c-0.4-4.4,2.9-6.3,6.1-8.4c0.9,1.6,0.5,4.1,2.9,4.8c0.1,0,0.1,0.7,0,1
		c-0.5,2-1.1,3.9-1.8,6.4c1.2-1,2.2-1.8,2.7-2.2c2.1,1.7,3.9,3.1,5.7,4.5c-1.4,4.6-1.4,4.6-4,5.5c0.9,0.4,1.7,0.5,2.2,0.9
		c0.5,0.4,1,1.1,1.1,1.8c0.1,1-0.1,2-0.2,3c0.2,0,0.4,0,0.5,0c-0.3,1.1-0.6,2.2-0.7,2.7c-1.3,0.2-2.6,0.1-3.1,0.6
		c-1.8,2,1,3.2,1.2,5c1.6-0.4,3.2-0.7,4.4-1c0.6-1.4-0.8-3.6,2.1-3.2c0.3,0.8,0.6,1.6,0.9,2.5c2.4-2.5,4.6-4.7,7.1-7.3
		c0.4-3.2,0.2-7.2,3.8-10.4c0.4,1.6,0.8,3.1,1.2,4.5c0.3,0,0.6,0,0.9,0c-0.5-4.2-0.4-8.2,2.5-10.9c1-0.5,1.6-0.8,2.8-1.5
		c0.5,2,1,3.9,1.4,5.6c0.4-0.1,1.2-0.2,2-0.4c0,0.8,0.1,1.6,0,2.3c-0.2,1.3-0.6,2.7-1,4.2c1,0.1,1.9,0.2,2.9,0.3c0,0.5,0,1-0.1,2
		c1.6-0.8,2.9-1.4,4.7-2.4c-1.3,3.6-2.4,6.7-3.6,10.2c0.8,0.3,1.9,0.8,3,1.3c-0.1-0.3-0.2-0.7-0.2-1c0.8-0.6,1.5-1.7,2.3-1.7
		c1.1,0,2.2,0.9,3.3,1.4c-0.7,1.3-1.5,2.6-2.2,3.9c-0.3-0.1-0.5-0.2-0.8-0.2c0.4,0.5,0.7,1,0.9,1.3c1.4-0.8,2.6-1.6,3.9-2.4
		c0.2,0.3,0.5,0.6,0.7,0.9c-1.2,1.1-2.5,2.3-3.9,3.5c0.4,0.2,1.1,0.5,1.8,0.9c0,1.2,0,2.4,0,3.9c-0.8,0.5-1.9,1.2-2.9,1.9
		c0.6,1.4,4.4,0.8,2.5,3.9c-0.1,0.1,0.1,0.3,0.2,0.5c1,2,2.1,4.1,3.1,6.1c3.6-2,3.6-2,1.8-4.2c0.6-0.5,1.1-1,1.7-1.6
		c-0.4-0.2-0.8-0.4-1-0.5c0.3-0.6,0.7-1.1,0.9-1.7c0.5-1.3,0.8-2.6,1.3-3.8c0.1-0.2,0.9-0.1,1.4,0c0.3,0.1,0.4,0.5,0.6,0.8
		c0.2-0.4,0.6-1.1,0.5-1.3c-0.6-0.8-1.4-1.6-2.2-2.2c-1.2-0.8-2.4-1.4-3.7-2.1c1.5-2.3,2.5-3.9,3.8-5.8c-0.1-0.2-0.5-0.9-1.1-2.2
		c1.6,0,3.1,0,4.4,0c-0.4-1.4-0.9-2.9-1.2-4c-0.8,0.6-1.7,1.3-2.6,2c-0.5-0.9-1.1-1.8-1.6-2.7c0.4-0.1,1.1-0.4,1.8-0.6
		c-0.6-1.2-1.2-2.3-1.8-3.5c1.4-0.3,2.3-0.4,3.3-0.6c-0.7-1.7-2.1-2.3-2.2-4.5c-0.1-2.1,0.5-2.9,1.2-3.5c1.6,0.8,2.8,1.7,4.2,2
		c0.5,0.1,1.3-0.9,2.5-1.7c0.9,0.6,2.1,1.4,3.5,2.3c0.5-1.3,1-2.6,1.4-3.9c-0.4-0.1-1.5-0.3-1.5-0.4c0.1-1.2,0.2-2.4,0.7-3.4
		c0.1-0.3,1.4-0.1,2.5-0.2c-0.2-1.8-0.4-3.7-0.6-5.6c0.3,0.1,0.5,0.2,0.8,0.3c0.7-0.8,1.8-1.6,2-2.5c0.3-1.8,0.1-1.9,2-1.8
		c0.3-3.6,0.9-6.9,4.3-9.2c0.8,0.4,1.7,1,2.6,1.5c0.1-0.8,0.2-1.6,0.4-2.8c1.3,0.5,2.3,0.8,3.5,1.3c0.3-0.9,0.6-1.7,0.9-2.6
		c0.9-0.1,1.9-0.2,3-0.3c0-0.4-0.2-0.7-0.1-1c0-0.3,0.3-0.6,0.5-1c3.5,2.6,0.4,5.5,1,8.7c1.4-1.6,2.6-2.9,3.8-4.2
		c0.4-0.4,1.1-1.1,1.3-0.9c0.5,0.3,1.2,0.9,1.3,1.4c0.2,1.9,1.1,3.6-0.1,5.7c-0.6,1,0,3,0.5,4.4c0.6,1.6,2.2,2.9,0.9,4.8
		c0,0,0.7,0.5,0.7,0.5c1.9-2.1,3.6-4,5.5-5.8c0.2-0.2,1,0.4,1.6,0.7l0.7,5.5c0.2,1.1,0.4,2.2,0.6,3.3c0.2,0,0.4,0,0.6,0
		c0.5-1.1,0.9-2.2,1.4-3.3c1.6,0.5,3,0.9,4.2,1.3c1.3-1.7,2.6-3.5,4.1-5.5c1,1.9,2.6,3.3,1.4,5.6c-0.1,0.2-0.2,0.8-0.1,0.9
		c2.3,1.1,0.4,2.7,0.5,4.5c1.4-0.3,2.6-0.6,3.6-0.8c1.1,2.8-3,4.6-1.2,7.7c1-0.5,1.8-0.9,2.7-1.3c1.4,1.5,0.4,2.6-0.5,3.6
		c-1.3,1.3-1.4,3.1-0.4,4c1.4,1.1,0.8,1.9,0.4,2.9c-1.1,3-0.3,4.8,2.6,6.1c-0.4,5.2,0,5.8,3.2,6c0.9-1.1,1.9-2.7,2-2.6
		c2.3,1.4,2.9-0.6,4-2.1c2.5,2.5,0.5,5,0.1,7.5c3.5,0.1,5.8-2,8-4.2c0.6-0.6,0.8-1.3-0.2-2.1c-0.4-0.3,0.1-1.8,0.2-2.8
		c0.1-0.4,0.5-0.9,0.4-1.3c-0.8-3.6,0.4-5.6,3.7-7.4c1.2-0.6,2.7-3,2.3-3.6c-1-1.7-0.2-2.2,0.8-3.2c1.2-1.2,1.9-2.8,3.2-0.9
		c1-0.7,2-1.8,2.7-1.7c0.8,0.2,1.3,1.5,2.3,2.7c0.7-2.4-0.5-4.5,1.3-5.7c1.4-0.9,3-2,4.5-2.1c1.7-0.1,3.5,0.8,3,3.1
		c1.2-1.2,2.3-2.4,3.6-3.7c3,3.5,4.1,0.6,6.1-1.8c0.4,3.1,0.7,5.4,1,8.1c1.9-2,3.3-3.5,4.7-5c0.2,0.2,0.3,0.4,0.5,0.6
		c0.2-0.8,0.4-1.5,0.6-2.3c0.3,0,0.7-0.1,1-0.1c0.9,3.2,1.9,6.4,2.9,9.9c3.6-1.5,4.1-5.4,6.7-8.8c0.7,2.3,1.3,4.4,2,6.7
		c0.5-0.5,1.4-1.2,1.3-1.5c-0.4-1.5-0.6-2.8,1.1-3.7c0.9-0.5,1.5-1.6,2.6-2.7c0,0-0.1-0.7-0.3-1.4c0.3,0.1,0.5,0.2,0.8,0.4
		c0.6-0.6,1.1-1.3,1.7-1.9c0.3-0.3,0.6-0.7,0.9-1c0.2,0.4,0.4,0.7,0.7,1.1c1.1,1.2,2.2,2.4,3.5,3.8c0.2-1.1,0.4-1.9,0.5-2.4
		c1.4,0.1,2.6,0.2,3.7,0.3c0-1.2,0-2.4,0-3.8c0.7,0.6,1.3,1,1.8,1.5c0.3-1.1,0.5-2.2,0.8-3.2c2,3.9,2.1,4.9,2,8c0,0.5,0.5,1,0.8,1.5
		c0.1,0.1,0.5,0,0.7,0c0-0.8,0-1.4,0-1.9c1.4,0.4,2.6,0.7,3.9,1.1c0.3-1.3,0.6-2.2,0.9-3.4c1,1.4-0.6,4,2.4,3.5
		c-1.4,3.1-1.2,3.6,1.4,4.4c1.4,2.6-3.3,4.1-1.7,6.5c2.1-1.6,4.1-3,6.3-4.6c0.8,4.7,1.6,8.6,2.2,12c1.7,0.3,3.1,0.6,4.2,0.9
		c0.8-1.1,1.6-2.6,2.7-3.9c1.2-1.3,2.7-2.4,4.6-3.9c-0.2-2.5,2.3-1.6,4.1-1.9c-0.4-2.1-0.8-4.3,2.3-5.8c0.3,2.4,0.7,4.5,1,6.6
		c2.1-2.3,1.6-5.2,1.6-8.1c0-1.2,0.6-2.4,1-3.5c0.3-0.9,0.7-1.7,1.1-2.5c0.3-0.7,1.4-1.5,1.3-2.1c-0.2-1.6-1.4-3.1,0.9-4.1
		c0.3-0.1,0.4-0.6,0.7-0.9c0.3,0.4,0.7,0.7,0.8,1.1c0.4,1.7,0.8,3.5,1.1,5.2c0.3,0,0.7,0,1,0.1c-0.8-5.6,2.1-10.1,3.8-15.5
		c1.2,2.1,2.2,3.6,2.8,5.3c0.7,2,1.2,2.5,2.7,0.6c0.7-0.9,1.9-1.4,2.9-2c0.5,1.2,1,2.5,1.5,3.7c0.1,0.2,0,0.4,0,0.5
		c0.1,2,0.3,3.8,2.5,4.8c0.4,0.2,0.3,1.1,0.5,1.7c0.2,0.5,0.4,1,0.6,1.5c0.4-0.3,0.9-0.5,1.2-0.8c1-1.1,1.9-2.3,2.8-3.5
		c0.2,0.1,0.4,0.2,0.6,0.2c0.1,2,0.2,4,0.3,6c0.6,0.1,1.2,0.3,1.9,0.5c-0.4,1.9-0.8,3.6-1.3,5.6c1-0.4,1.7-0.7,3.1-1.2
		c0,1.9,0,3.3,0,4.8c0,0.6,0.1,1.5,0.4,1.7c2.8,1.2,1.3,3.1,0.9,5c1.5,0,2.9,0,4.7,0c-0.3,2.4-0.7,4.9-1,7.4
		c1.2-0.6,2.1-1.1,2.4-1.2c0.2-3.3,0.4-6.4,0.6-9.5c1.2,0.2,1.9,0.4,3.2,0.6c-0.9-1.3-1.4-2.1-1.9-2.8c1-1.6,2-3.1,3.3-5.1
		c0.5,1.4,0.9,2.3,1.2,3.1c1.3-0.7,2.5-1.4,3.8-2.1c-1.7-2.9,2.2-3,3-5c0.7,1.7,1.3,3.4,1.9,4.9c1.3-1.1,2.7-2.3,4.4-3.8
		c0.3,1,0.6,1.8,0.7,2.4c0.8,0.2,1.4,0.6,2.1,0.5c0.6-0.1,1.3-0.5,1.6-1c0.8-1.2,1.1-2.8,2-3.9c1.3-1.5,3-2.7,5.1-4.5
		c0.6-0.8,1.6-2.3,2.6-3.8c0.2,0.1,0.5,0.1,0.7,0.2c0.1,1,0.2,2.1,0.3,3.3c0.5,0,1.1-0.1,1.9-0.1c-0.1,0.8-0.2,1.4-0.3,2.3
		c2.3-0.1,2.3,1.1,1.7,2.5c0.8,0.4,2.3,1,2.3,1.2c-0.7,3.6-1.3,7.2-2.6,10.5c-0.5,1.3-0.2,2.1,0.3,2.9c0.5,0.9,1.5,1.5,2.4,2.3
		c0.2-0.4,0.7-1,1.6-2.3c0.3,3.1,0.5,5.4,0.7,7.7c0.2,0.1,0.4,0.1,0.6,0.2c0.3-0.7,0.6-1.5,0.9-2.2c1.6-0.5,3.1-1.5,4.3-2.6
		c0.8-0.7,1.3-1.7,2.1-2.7c2.1,3.4,2.4,3.7,6,5.5c-0.9-2.8-1.7-5.5-2.4-7.8c1.7-0.6,3.1-0.6,3.6-1.3c0.6-0.7,0.4-2.1,0.5-2.9
		c-0.1-2-0.3-3.5-0.4-5.7c1.5,1.3,2.5,2.1,3.1,2.6c0.7-2.3,1.4-4.5,2.1-7c2.3,1.4,4.3,2.7,3.2-1.1c0-0.2,0.3-0.4,0.4-0.7
		c1-3.4,1.9-6.8,2.8-10.1c0.3-1,0.3-2.5,1-2.9c2.2-1.3,4.6-2.2,7.1-3.3c0.4,1,0.6,1.8,1.1,3.1c0.1-1.4,0.2-2.3,0.3-3.3
		c3.2,1.9,1.4-1.2,2.3-1.9c0.6,0.2,1.3,0.4,1.9,0.6c0.2-0.6,0.3-1.1,0.6-2c1.8,1.8,3.3,2.3,4.3-0.7c0.9,1.6,1.6,3.1,1.9,4.7
		c0.4,1.9,0.3,3.9,0.5,5.9c0.8-0.2,1.4-0.3,2.5-0.6c-0.7,3.1-1.3,5.7-1.9,8.4c1.1,0.2,2.5,2,4-0.7c0.7-1.2,3-1.6,4.9-2.5
		c0-3.5,4.7-1,6-4.1c0.7,1.9,1.2,3.3,1.8,4.9c0.9-0.8,1.9-1.6,3-2.5c1.4,1.6-0.6,5.5,3.7,5.6c-0.4,1.8-0.7,3.3-0.9,4.8
		c-0.1,0.7,0,1.7,0.4,2.1c0.6,0.5,1.6,0.5,2.4,0.7c0.1-0.7,0-1.4,0.2-2c0.5-1.6,1-3.3,1.8-5.6c0.8,1.6,1.2,2.4,1.4,2.7
		c1.8-0.7,3.3-1.4,4.9-2c3.2-1.4,1.2,3.7,3.7,2.8c-0.1,1.3-0.1,2.4-0.2,3.6c0.2,0.1,0.5,0.2,0.7,0.3c0.7-0.6,1.5-1.3,2.3-2
		c0.3,3.6,0.6,7.2,0.9,11.4c1.2-1.6,2.2-2.9,3.2-4.2c0.3,0.2,0.6,0.4,0.9,0.7c0.2,1,0.4,2,0.7,3.2c1.2-0.4,2.1-0.7,3-1
		c1.5,2.4-1,5.5,2.1,8.2c0.3-1.5,0.4-2.3,0.7-3.1c0.4-1.1,0.9-2.3,1.7-3.2c0.3-0.4,2-0.2,2.2,0.2c0.8,1.5,1.4,2.4,2.9,0.7
		c0.4-0.4,1.4-0.3,2.1-0.4c0-0.7,0-1.3,0-2.5c0.7,0.8,1.1,1.1,1.3,1.5c0.6,1.2,0.7,3.2,1.6,3.6c2,1,1.6,3.5,1.3,3.7
		c-1.8,1.1,0.1,4.5-3,4.6c0.1,0.9-0.2,2.1,0.2,2.7c0.9,1.1,2.2,1.9,3.2,2.8c0.3-4,0.3-8.6,4.3-12c0.4,0.7,0.7,1.3,1.1,2
		c3.5-2.8,3.5-2.8,4.7-1.5c1-2.4,2.1-5,3.2-7.6c0.5,0.2,0.9,0.3,1.3,0.5c-0.2-0.2-0.3-0.5-0.5-0.7c1.3-1.5,2.6-3,4-4.6
		c0.5,0.6,0.9,0.9,1.1,1.3c1.6,3.1-0.3,6.3,0.4,9.4c0.8-0.1,1.7-0.3,2.1-0.3c0.6-0.9,0.9-1.6,1.4-2.1c0.6-0.5,1.3-0.7,2.6-1.4
		c3.4,1.3-0.1,4.6,0.7,7.1c0.9-0.6,1.7-1,2.9-1.8c0.1,3.3-2.3,4.6-3,5.7c0.4,1.5,0.7,2.4,1,3.4c0,0,0.3,0.1,0.3,0.1
		c1-1.9,1.8-4.1,3.9-5.2c-1.3-2.7,1.6-3.5,2.5-5.3c0.2-0.5,0.5-1,0.8-1.4c1-1.4,2-2.7,2.9-4c0.2,0.2,0.5,0.3,0.7,0.5
		c0.3,1.6,0.6,3.2,0.8,4.4c0.9-1,1.8-2,2.4-2.6c0.9-2.2,1-4.9,2.4-5.8c2.4-1.6,3.7-3.3,3.8-6.2c0.1-2.5,1.6-3.7,3.5-3.4
		c0.6-1.6,1.2-3.1,2-5.1c1.1,1.3,1.9,2.2,2.7,3.2c1.6-1.7,2.2-1.3,3.2,1.6c0.7-0.3,1.5-0.8,2.2-0.7c0.6,0.1,1.1,0.8,1.6,1.4
		c0.3,0.3,0.2,1.3,0.3,1.3c0.5,0.1,1.2-0.1,1.7-0.3C1490.3,574.8,1491,574.4,1491.7,574z"/>
</g>
<polygon id="XMLID_38_" class="st5" points="-1,842.5 62,869.3 360.3,886.2 991.5,886.2 1349.1,929.9 1644.4,886.2 1919,920.5 
	1923.2,843.1 "/>
<polygon id="XMLID_12_" class="st1" points="1923.2,371.4 1847.6,291.2 1784.6,147 1721.6,287.4 1608.5,185 1442.8,331 
	1353.5,401.4 1237.8,271.9 1106.6,108 987.6,260.7 845.9,345 832.8,304.8 787.5,150 746.4,294.2 727.1,325.7 618.7,176.3 559.5,0 
	494.2,189.2 469,254.6 442.8,218.5 410.7,123 375.4,225.5 339.6,318.5 332.7,305.8 290.8,255.1 251.1,201.4 215,251.4 197,263 
	140.1,186 42.1,322 -1,349.7 -1,814 354,814 480.1,814 663,814 663,816 930,816 929.9,813 1086.9,813 1519.5,813 1923.2,813 "/>
<g id="XMLID_36_">
	<path id="XMLID_37_" class="st6" d="M732.3,484.1c0,50.1,0,100.2,0,150.4c-116.8,0-233.6,0-350.4,0c0-48,0-95.9,0-143.9
		c0.3,0.6,0.6,1.2,0.9,1.7c0.4-0.2,0.9-0.4,1.2-0.5c0.5,1.2,0.9,2.1,1.1,2.7c-0.3,1.6-0.5,3-0.7,4.3c0.2,0.1,0.3,0.3,0.5,0.4
		c0.5-0.7,1-1.3,1.5-2c0,0.1,0.1,0.5,0.4,1.1c0.2-1.3,0.3-2.2,0.4-3.3c0.3,0.2,0.5,0.2,0.5,0.3c1,1.7,1,1.7,2.1-0.5
		c0-0.1,0.1-0.2,0.2-0.3c0.3,0.3,0.5,0.7,1,1.3c-0.3-2.8,0.7-3.1,2-3.3c0,0.5,0.1,1,0.1,1.4c0.1,0.1,0.2,0.1,0.3,0.2
		c0.3-1,0.6-2,0.9-3c0.2,0.3,0.5,0.5,0.8,0.8c0.2-0.9,0.3-1.7,0.6-3c0.5,1,0.8,1.8,1.3,2.8c0-1.5,0.9-2.2,0.4-4.1
		c-0.3-1,1-3.1,1.7-4.5c0.5-1,1.2-1.9,1.7-2.7c0.1-1.2,0.2-2.3,0.3-3.4c0.6-0.4,1.1-0.7,1.6-1c0.3,1,0.5,1.9,0.9,3.1
		c0.3-0.8,0.4-1.3,0.6-2.1c0.4,1.3,0.7,2.1,1,3.3c0.5-1.9,0.8-3.5,1.2-5c0.1,0.1,0.1,0.3,0.2,0.4c0.7-0.6,1.4-1.2,2.2-2
		c0.6,2.4,1.2,4.6,1.9,7.1c1.7,0.1,1.9,0.7,1.4,4.1c0.3,0,0.9-0.1,1,0.1c0.6,2,1.5,1.2,2.3,0.5c0.3,3.9,0.3,3.9-0.1,4.9
		c-0.7,1.6-0.6,1.9,0.3,2.2c0.5-0.8,0.9-1.3,1.1-1.6c0.4-0.8,0.7-1.3,1-1.9c0.2,0.1,0.3,0.1,0.5,0.2c0,2.2,0,4.4,0,6.5
		c0.4-0.3,0.7-0.7,1.1-1c0.1,0.1,0.3,0.1,0.4,0.2c-0.8,2.8-1.5,5.5-0.3,8.6c0.2-0.5,0.3-1.1,0.5-1.6c0.5,2.1,0.9,3.8,1.9,4.8
		c1-1.5-1.1-3.5,0.4-4.3c0-1.6,0-2.9,0-4.4c0.6,0.1,0.9,0.2,1,0.2c0.6-1.1,1-2,1.5-3c0,0.1-0.1-0.3-0.3-0.5c0.5-0.4,0.9-0.7,1.2-1.2
		c0.6-1,1.2-2.1,1.8-3.2c0.6-1,1-2.2,1.7-3.1c0.4-0.6,1.1-0.7,1.6-0.9c0,0,0.2,0.9,0.4,1.4c0.7-0.5,1.1-1.8,1.9-2.5
		c0.7-0.7,1.2-2.9,1.2-4.4c0-1.8,1.1-2.3,1.5-3.7c0.2,0.6,0.4,1.1,0.6,2c0.3-0.7,0.5-1.3,0.9-2.3c0.3,1.4,0.5,2.3,0.7,3.3
		c1-1.8,1.9-3.4,2.8-5c0.4-0.7,1-1.2,1.5-1.8c0.1,0.6,0.2,1.1,0.2,1.7c0,0.1,0.1,0.3,0.1,0.3c1.7,0.4,0.3,4.4,2.3,4.5
		c0,0,0.1,0.2,0.1,0.3c0.4,1.5,1.2,2.9,0.4,4.7c-0.1,0.1,0.2,0.6,0.3,0.9c0.3-0.5,0.5-0.9,0.7-1.2c0.7,1.1,1.3,2.2,2.2,3.6
		c0,0.8,1.1,4.5,1.8,5c0.7-1.5,1.4-3,2.3-4.8c0.4,1.3,0.7,2.4,1.1,3.5c-0.1,0.1-0.2,0.3-0.3,0.4c0.4,0.1,0.8,0.1,1.2,0.2
		c-0.2,4.3-0.1,4.7,1.8,5.8c0,1.2,0,2.3,0,3.5c0.1,0,0.2,0,0.4,0c0.1-0.3,0.3-0.7,0.3-1c0-1.3-0.2-2.7,1.2-2.9
		c0.5-0.1,1.2-1.2,1.4-2c0.3-1.6,0.9-1.9,1.6-1.6c0.3-0.9,0.5-2.1,0.8-2.2c0.6-0.3,1.3,0.1,2,0.3c-0.2-1.5,0.5-2.6,1.4-3.5
		c0.2-0.2,0.6-0.2,0.6-0.4c0.2-0.6,0.3-1.3,0.4-2c0,0-0.1,0-0.1,0c0.1-1.2,0.2-2.4,0.2-3.5c0.1-0.1,0.2-0.2,0.3-0.2
		c0.4,1.1,0.7,2.1,1.1,3.2c-0.2-3.4,1.5-4.8,3.1-6.3c0.5,1.2,0.3,3.1,1.4,3.6c0,0,0,0.5,0,0.7c-0.3,1.5-0.5,3-0.9,4.8
		c0.6-0.7,1.1-1.4,1.4-1.7c1.1,1.3,2,2.3,2.9,3.4c-0.7,3.5-0.7,3.5-2,4.2c0.5,0.3,0.9,0.4,1.1,0.7c0.3,0.3,0.5,0.9,0.5,1.3
		c0.1,0.7-0.1,1.5-0.1,2.3c0.1,0,0.2,0,0.3,0c-0.2,0.8-0.3,1.7-0.4,2c-0.7,0.2-1.3,0-1.6,0.5c-0.9,1.5,0.5,2.4,0.6,3.8
		c0.8-0.3,1.6-0.5,2.2-0.7c0.3-1-0.4-2.8,1-2.4c0.1,0.6,0.3,1.2,0.5,1.9c1.2-1.9,2.3-3.6,3.6-5.5c0.2-2.4,0.1-5.4,1.9-7.9
		c0.2,1.2,0.4,2.3,0.6,3.4c0.2,0,0.3,0,0.5,0c-0.2-3.2-0.2-6.2,1.3-8.2c0.5-0.4,0.8-0.6,1.4-1.1c0.3,1.5,0.5,2.9,0.7,4.2
		c0.2-0.1,0.6-0.2,1-0.3c0,0.6,0.1,1.2,0,1.8c-0.1,1-0.3,2-0.5,3.2c0.5,0.1,1,0.1,1.5,0.2c0,0.4,0,0.7-0.1,1.5
		c0.8-0.6,1.5-1.1,2.4-1.8c-0.6,2.7-1.2,5.1-1.8,7.7c0.4,0.3,0.9,0.6,1.5,1c0-0.3-0.1-0.5-0.1-0.8c0.4-0.5,0.8-1.3,1.1-1.3
		c0.6,0,1.1,0.7,1.7,1c-0.4,1-0.7,2-1.1,3c-0.1-0.1-0.3-0.1-0.4-0.2c0.2,0.4,0.4,0.8,0.4,1c0.7-0.6,1.3-1.2,1.9-1.8
		c0.1,0.2,0.2,0.5,0.4,0.7c-0.6,0.9-1.2,1.7-2,2.7c0.2,0.1,0.5,0.4,0.9,0.7c0,0.9,0,1.8,0,3c-0.4,0.4-0.9,0.9-1.5,1.4
		c0.3,1.1,2.2,0.6,1.3,3c0,0.1,0,0.2,0.1,0.4c0.5,1.5,1.1,3.1,1.6,4.6c1.8-1.5,1.8-1.5,0.9-3.1c0.3-0.4,0.6-0.8,0.9-1.2
		c-0.2-0.1-0.4-0.3-0.5-0.4c0.2-0.4,0.4-0.8,0.5-1.3c0.2-1,0.4-2,0.7-2.9c0-0.1,0.5-0.1,0.7,0c0.1,0.1,0.2,0.4,0.3,0.6
		c0.1-0.3,0.3-0.8,0.2-1c-0.3-0.6-0.7-1.2-1.1-1.6c-0.6-0.6-1.2-1.1-1.9-1.6c0.7-1.7,1.3-3,1.9-4.4c-0.1-0.2-0.2-0.7-0.6-1.7
		c0.8,0,1.5,0,2.2,0c-0.2-1.1-0.4-2.2-0.6-3c-0.4,0.5-0.9,1-1.3,1.5c-0.3-0.7-0.5-1.3-0.8-2.1c0.2-0.1,0.6-0.3,0.9-0.5
		c-0.3-0.9-0.6-1.8-0.9-2.6c0.7-0.2,1.2-0.3,1.7-0.5c-0.4-1.3-1.1-1.8-1.1-3.4c-0.1-1.6,0.2-2.2,0.6-2.6c0.8,0.6,1.4,1.3,2.1,1.5
		c0.3,0.1,0.7-0.7,1.2-1.3c0.4,0.4,1.1,1.1,1.8,1.8c0.2-1,0.5-2,0.7-2.9c-0.2-0.1-0.7-0.2-0.7-0.3c0-0.9,0.1-1.8,0.3-2.6
		c0.1-0.2,0.7-0.1,1.2-0.2c-0.1-1.3-0.2-2.8-0.3-4.2c0.1,0.1,0.3,0.2,0.4,0.3c0.3-0.6,0.9-1.2,1-1.9c0.1-1.3,0-1.4,1-1.4
		c0.1-2.7,0.5-5.3,2.2-7c0.4,0.3,0.8,0.7,1.3,1.1c0.1-0.6,0.1-1.2,0.2-2.1c0.6,0.3,1.2,0.6,1.8,1c0.2-0.7,0.3-1.3,0.5-2
		c0.5-0.1,0.9-0.1,1.5-0.2c0-0.3-0.1-0.5-0.1-0.8c0-0.2,0.1-0.4,0.2-0.8c1.7,1.9,0.2,4.1,0.5,6.6c0.7-1.2,1.3-2.2,1.9-3.2
		c0.2-0.3,0.5-0.8,0.7-0.7c0.3,0.2,0.6,0.7,0.6,1.1c0.1,1.4,0.5,2.7-0.1,4.3c-0.3,0.8,0,2.3,0.3,3.3c0.3,1.2,1.1,2.2,0.4,3.6
		c0,0,0.4,0.4,0.3,0.4c1-1.6,1.8-3,2.7-4.4c0.1-0.1,0.5,0.3,0.8,0.5l0.3,4.2c0.1,0.8,0.2,1.7,0.3,2.5c0.1,0,0.2,0,0.3,0
		c0.2-0.8,0.5-1.6,0.7-2.5c0.8,0.4,1.5,0.7,2.1,1c0.6-1.3,1.3-2.7,2.1-4.2c0.5,1.4,1.3,2.5,0.7,4.2c-0.1,0.2-0.1,0.6,0,0.7
		c1.1,0.8,0.2,2,0.3,3.4c0.7-0.2,1.3-0.4,1.8-0.6c0.5,2.1-1.5,3.5-0.6,5.9c0.5-0.4,0.9-0.7,1.3-1c0.7,1.1,0.2,2-0.3,2.7
		c-0.6,1-0.7,2.4-0.2,3c0.7,0.9,0.4,1.4,0.2,2.2c-0.5,2.3-0.2,3.6,1.3,4.6c-0.2,3.9,0,4.4,1.6,4.6c0.4-0.8,1-2,1-2
		c1.2,1.1,1.5-0.4,2-1.6c1.2,1.9,0.2,3.7,0,5.7c1.8,0.1,2.9-1.5,4-3.2c0.3-0.5,0.4-1-0.1-1.6c-0.2-0.2,0-1.4,0.1-2.1
		c0-0.3,0.2-0.7,0.2-1c-0.4-2.7,0.2-4.2,1.9-5.6c0.6-0.5,1.4-2.3,1.2-2.7c-0.5-1.3-0.1-1.6,0.4-2.4c0.6-0.9,1-2.2,1.6-0.7
		c0.5-0.5,1-1.4,1.4-1.3c0.4,0.1,0.7,1.1,1.2,2c0.4-1.8-0.3-3.4,0.6-4.3c0.7-0.7,1.5-1.5,2.3-1.6c0.8,0,1.8,0.6,1.5,2.4
		c0.6-0.9,1.2-1.8,1.8-2.8c1.5,2.7,2.1,0.4,3.1-1.3c0.2,2.4,0.3,4.1,0.5,6.1c0.9-1.5,1.7-2.6,2.4-3.8c0.1,0.1,0.2,0.3,0.2,0.4
		c0.1-0.6,0.2-1.2,0.3-1.7c0.2,0,0.3,0,0.5-0.1c0.5,2.4,0.9,4.9,1.4,7.5c1.8-1.1,2.1-4.1,3.4-6.6c0.4,1.7,0.7,3.3,1,5
		c0.3-0.4,0.7-0.9,0.7-1.1c-0.2-1.2-0.3-2.1,0.6-2.8c0.5-0.4,0.8-1.2,1.3-2.1c0,0-0.1-0.5-0.1-1c0.1,0.1,0.3,0.2,0.4,0.3
		c0.3-0.5,0.6-1,0.9-1.4c0.2-0.3,0.3-0.5,0.5-0.8c0.1,0.3,0.2,0.6,0.3,0.8c0.6,0.9,1.1,1.8,1.8,2.9c0.1-0.9,0.2-1.4,0.3-1.8
		c0.7,0.1,1.3,0.2,1.9,0.2c0-0.9,0-1.8,0-2.8c0.4,0.4,0.6,0.8,0.9,1.1c0.1-0.9,0.3-1.6,0.4-2.4c1,3,1.1,3.7,1,6
		c0,0.4,0.2,0.8,0.4,1.1c0,0.1,0.2,0,0.3,0c0-0.6,0-1.1,0-1.4c0.7,0.3,1.3,0.5,2,0.8c0.2-1,0.3-1.7,0.4-2.6c0.5,1.1-0.3,3.1,1.2,2.7
		c-0.7,2.3-0.6,2.7,0.7,3.3c0.7,2-1.7,3.1-0.8,4.9c1.1-1.2,2.1-2.2,3.2-3.5c0.4,3.5,0.8,6.5,1.1,9.1c0.8,0.3,1.6,0.5,2.1,0.7
		c0.4-0.8,0.8-2,1.4-2.9c0.6-1,1.4-1.8,2.3-3c-0.1-1.9,1.2-1.2,2.1-1.4c-0.2-1.6-0.4-3.2,1.2-4.4c0.2,1.8,0.3,3.4,0.5,5
		c1.1-1.8,0.8-3.9,0.8-6.1c0-0.9,0.3-1.8,0.5-2.7c0.2-0.7,0.4-1.3,0.5-1.9c0.2-0.5,0.7-1.1,0.7-1.6c-0.1-1.2-0.7-2.4,0.4-3.1
		c0.1-0.1,0.2-0.4,0.3-0.7c0.1,0.3,0.4,0.5,0.4,0.8c0.2,1.3,0.4,2.6,0.6,3.9c0.2,0,0.3,0,0.5,0.1c-0.4-4.2,1-7.6,1.9-11.7
		c0.6,1.6,1.1,2.7,1.4,4c0.3,1.5,0.6,1.9,1.3,0.4c0.3-0.7,1-1,1.4-1.5c0.2,0.9,0.5,1.9,0.7,2.8c0,0.1,0,0.3,0,0.4
		c0.1,1.5,0.1,2.9,1.2,3.6c0.2,0.1,0.2,0.9,0.3,1.3c0.1,0.4,0.2,0.7,0.3,1.1c0.2-0.2,0.4-0.4,0.6-0.6c0.5-0.9,1-1.8,1.4-2.7
		c0.1,0.1,0.2,0.1,0.3,0.2c0.1,1.5,0.1,3,0.2,4.6c0.3,0.1,0.6,0.2,1,0.4c-0.2,1.4-0.4,2.7-0.7,4.2c0.5-0.3,0.9-0.5,1.5-0.9
		c0,1.4,0,2.5,0,3.6c0,0.4,0,1.2,0.2,1.3c1.4,0.9,0.6,2.3,0.5,3.8c0.7,0,1.5,0,2.4,0c-0.2,1.8-0.3,3.7-0.5,5.6
		c0.6-0.5,1-0.8,1.2-0.9c0.1-2.5,0.2-4.8,0.3-7.2c0.6,0.2,0.9,0.3,1.6,0.5c-0.4-1-0.7-1.6-0.9-2.1c0.5-1.2,1-2.3,1.7-3.8
		c0.3,1.1,0.4,1.7,0.6,2.3c0.7-0.6,1.3-1.1,1.9-1.6c-0.9-2.2,1.1-2.3,1.5-3.8c0.3,1.3,0.7,2.6,1,3.7c0.7-0.8,1.4-1.7,2.2-2.8
		c0.2,0.8,0.3,1.4,0.4,1.8c0.4,0.2,0.7,0.5,1,0.4c0.3,0,0.6-0.4,0.8-0.7c0.4-0.9,0.6-2.1,1-2.9c0.7-1.1,1.5-2,2.5-3.4
		c0.3-0.6,0.8-1.7,1.3-2.8c0.1,0,0.2,0.1,0.4,0.1c0,0.8,0.1,1.6,0.2,2.5c0.2,0,0.6-0.1,1-0.1c-0.1,0.6-0.1,1.1-0.2,1.7
		c1.1-0.1,1.2,0.9,0.8,1.9c0.4,0.3,1.2,0.7,1.2,0.9c-0.3,2.7-0.6,5.4-1.3,8c-0.3,1-0.1,1.6,0.1,2.2c0.2,0.7,0.7,1.1,1.2,1.7
		c0.1-0.3,0.3-0.7,0.8-1.7c0.1,2.3,0.2,4.1,0.3,5.8c0.1,0.1,0.2,0.1,0.3,0.2c0.1-0.6,0.3-1.1,0.4-1.7c0.8-0.4,1.5-1.1,2.2-1.9
		c0.4-0.5,0.7-1.3,1.1-2.1c1,2.6,1.2,2.8,3,4.2c-0.4-2.1-0.9-4.2-1.2-5.9c0.9-0.4,1.5-0.5,1.8-1c0.3-0.5,0.2-1.6,0.3-2.2
		c-0.1-1.5-0.1-2.6-0.2-4.3c0.8,1,1.2,1.6,1.5,2c0.3-1.7,0.7-3.4,1.1-5.3c1.2,1,2.2,2.1,1.6-0.8c0-0.1,0.2-0.3,0.2-0.5
		c0.5-2.6,0.9-5.1,1.4-7.7c0.1-0.8,0.2-1.9,0.5-2.2c1.1-1,2.3-1.7,3.6-2.5c0.2,0.7,0.3,1.4,0.6,2.3c0.1-1.1,0.1-1.7,0.2-2.5
		c1.6,1.4,0.7-0.9,1.2-1.4c0.3,0.1,0.6,0.3,0.9,0.4c0.1-0.4,0.2-0.9,0.3-1.5c0.9,1.4,1.6,1.7,2.2-0.5c0.4,1.2,0.8,2.4,1,3.6
		c0.2,1.5,0.2,3,0.2,4.4c0.4-0.1,0.7-0.2,1.3-0.4c-0.4,2.3-0.7,4.3-1,6.3c0.6,0.2,1.3,1.5,2-0.5c0.3-0.9,1.5-1.2,2.5-1.9
		c0-2.7,2.4-0.7,3-3.1c0.4,1.5,0.6,2.5,0.9,3.7c0.4-0.6,0.9-1.2,1.5-1.9c0.7,1.2-0.3,4.1,1.9,4.2c-0.2,1.3-0.4,2.5-0.5,3.6
		c0,0.5,0,1.3,0.2,1.6c0.3,0.4,0.8,0.4,1.2,0.6c0-0.5,0-1,0.1-1.5c0.2-1.2,0.5-2.5,0.9-4.2c0.4,1.2,0.6,1.8,0.7,2
		c0.9-0.5,1.7-1,2.5-1.5c1.6-1,0.6,2.8,1.8,2.1c0,1-0.1,1.8-0.1,2.7c0.1,0.1,0.2,0.1,0.3,0.2c0.4-0.5,0.7-1,1.2-1.5
		c0.1,2.7,0.3,5.4,0.5,8.6c0.6-1.2,1.1-2.2,1.6-3.2c0.1,0.2,0.3,0.3,0.4,0.5c0.1,0.7,0.2,1.5,0.4,2.4c0.6-0.3,1.1-0.6,1.5-0.8
		c0.8,1.8-0.5,4.2,1,6.2c0.2-1.1,0.2-1.7,0.3-2.3c0.2-0.8,0.5-1.8,0.8-2.4c0.2-0.3,1-0.2,1.1,0.1c0.4,1.1,0.7,1.8,1.5,0.5
		c0.2-0.3,0.7-0.2,1.1-0.3c0-0.5,0-1,0-1.9c0.3,0.6,0.6,0.8,0.7,1.1c0.3,0.9,0.4,2.4,0.8,2.7c1,0.8,0.8,2.7,0.7,2.8
		c-0.9,0.8,0.1,3.4-1.5,3.5c0,0.7-0.1,1.6,0.1,2c0.4,0.8,1.1,1.4,1.6,2.1c0.1-3,0.1-6.5,2.2-9.1c0.2,0.5,0.4,1,0.5,1.5
		c1.8-2.1,1.8-2.1,2.4-1.1c0.5-1.8,1.1-3.8,1.6-5.8c0.3,0.1,0.5,0.3,0.7,0.4c-0.1-0.2-0.2-0.4-0.2-0.5c0.6-1.1,1.3-2.2,2-3.5
		c0.2,0.4,0.5,0.7,0.6,1c0.8,2.3-0.2,4.8,0.2,7.1c0.4-0.1,0.9-0.2,1.1-0.2c0.3-0.7,0.4-1.2,0.7-1.6c0.3-0.4,0.7-0.6,1.3-1.1
		c1.7,1-0.1,3.4,0.3,5.4c0.5-0.4,0.8-0.8,1.5-1.4c0.1,2.5-1.2,3.5-1.5,4.3c0.2,1.1,0.3,1.8,0.5,2.5c0,0,0.1,0.1,0.1,0.1
		c0.5-1.5,0.9-3.1,1.9-4c-0.7-2.1,0.8-2.7,1.2-4c0.1-0.4,0.3-0.7,0.4-1.1c0.5-1,1-2,1.5-3.1c0.1,0.1,0.3,0.2,0.4,0.4
		c0.1,1.2,0.3,2.4,0.4,3.3c0.5-0.8,0.9-1.5,1.2-1.9c0.4-1.7,0.5-3.7,1.2-4.4c1.2-1.2,1.9-2.5,1.9-4.7c0-1.9,0.8-2.8,1.8-2.6
		c0.3-1.2,0.6-2.3,1-3.8c0.5,1,0.9,1.7,1.3,2.4c0.8-1.3,1.1-1,1.6,1.2c0.4-0.2,0.8-0.6,1.1-0.5c0.3,0.1,0.6,0.6,0.8,1
		c0.1,0.3,0.1,1,0.2,1c0.3,0,0.6-0.1,0.8-0.2C731.6,484.7,732,484.4,732.3,484.1z"/>
</g>
<path id="XMLID_11_" class="st6" d="M1923.2,503.3c-0.1,0-0.1-0.1-0.2-0.1c-0.3-0.1-0.7,0.3-1.1,0.5c-0.5-2.2-0.8-2.5-1.6-1.2
	c-0.4-0.7-0.8-1.4-1.3-2.4c-0.4,1.5-0.7,2.6-1,3.8c-0.9-0.2-1.7,0.7-1.8,2.6c0,2.2-0.7,3.5-1.9,4.7c-0.7,0.7-0.8,2.7-1.2,4.4
	c-0.3,0.4-0.7,1.2-1.2,1.9c-0.1-0.9-0.3-2.1-0.4-3.3c-0.1-0.1-0.3-0.2-0.4-0.4c-0.5,1-1,2-1.5,3.1c-0.2,0.3-0.3,0.7-0.4,1.1
	c-0.4,1.3-1.9,1.9-1.2,4c-1,0.9-1.4,2.5-1.9,4c0,0-0.2-0.1-0.1-0.1c-0.1-0.7-0.3-1.4-0.5-2.5c0.4-0.9,1.6-1.9,1.5-4.3
	c-0.6,0.6-1,0.9-1.5,1.4c-0.4-1.9,1.4-4.4-0.3-5.4c-0.6,0.5-1,0.7-1.3,1.1c-0.3,0.4-0.4,0.9-0.7,1.6c-0.2,0-0.7,0.1-1.1,0.2
	c-0.4-2.3,0.6-4.8-0.2-7.1c-0.1-0.3-0.3-0.6-0.6-1c-0.7,1.2-1.4,2.3-2,3.5c0.1,0.2,0.2,0.4,0.2,0.5c-0.2-0.1-0.4-0.2-0.7-0.4
	c-0.6,2-1.1,3.9-1.6,5.8c-0.6-1-0.6-1-2.4,1.1c-0.2-0.5-0.4-1-0.5-1.5c-2,2.6-2,6-2.2,9.1c-0.5-0.7-1.2-1.3-1.6-2.1
	c-0.2-0.5-0.1-1.3-0.1-2c1.6,0,0.6-2.6,1.5-3.5c0.1-0.1,0.3-2-0.7-2.8c-0.5-0.3-0.5-1.8-0.8-2.7c-0.1-0.3-0.3-0.6-0.7-1.1
	c0,0.9,0,1.3,0,1.9c-0.4,0.1-0.9,0-1.1,0.3c-0.8,1.3-1.1,0.6-1.5-0.5c-0.1-0.3-1-0.4-1.1-0.1c-0.4,0.6-0.6,1.6-0.8,2.4
	c-0.2,0.6-0.2,1.2-0.3,2.3c-1.5-2-0.3-4.4-1-6.2c-0.4,0.2-0.9,0.5-1.5,0.8c-0.1-1-0.2-1.7-0.4-2.4c-0.1-0.2-0.3-0.3-0.4-0.5
	c-0.5,1-1,2-1.6,3.2c-0.2-3.2-0.3-5.9-0.5-8.6c-0.4,0.5-0.8,1-1.2,1.5c-0.1-0.1-0.2-0.1-0.3-0.2c0-0.8,0.1-1.7,0.1-2.7
	c-1.2,0.7-0.3-3.1-1.8-2.1c-0.8,0.5-1.6,1-2.5,1.5c-0.1-0.2-0.3-0.8-0.7-2c-0.4,1.7-0.7,3-0.9,4.2c-0.1,0.5-0.1,1-0.1,1.5
	c-0.4-0.2-0.9-0.2-1.2-0.6c-0.2-0.3-0.3-1-0.2-1.6c0.1-1.2,0.3-2.3,0.5-3.6c-2.2-0.1-1.2-3-1.9-4.2c-0.6,0.7-1.1,1.3-1.5,1.9
	c-0.3-1.3-0.5-2.3-0.9-3.7c-0.6,2.4-3,0.4-3,3.1c-1,0.7-2.2,1-2.5,1.9c-0.7,2.1-1.4,0.7-2,0.5c0.3-2.1,0.6-4,1-6.3
	c-0.6,0.2-0.9,0.3-1.3,0.4c-0.1-1.5-0.1-3-0.2-4.4c-0.1-1.2-0.5-2.3-1-3.6c-0.5,2.3-1.3,1.9-2.2,0.5c-0.1,0.6-0.2,1.1-0.3,1.5
	c-0.3-0.1-0.6-0.3-0.9-0.4c-0.4,0.5,0.4,2.9-1.2,1.4c0,0.8-0.1,1.4-0.2,2.5c-0.2-1-0.4-1.6-0.6-2.3c-1.3,0.9-2.5,1.5-3.6,2.5
	c-0.3,0.3-0.4,1.4-0.5,2.2c-0.5,2.6-0.9,5.1-1.4,7.7c0,0.2-0.2,0.4-0.2,0.5c0.5,2.9-0.5,1.9-1.6,0.8c-0.4,1.9-0.7,3.6-1.1,5.3
	c-0.3-0.4-0.8-1-1.5-2c0.1,1.7,0.1,2.8,0.2,4.3c-0.1,0.6,0,1.6-0.3,2.2c-0.3,0.5-1,0.6-1.8,1c0.4,1.7,0.8,3.8,1.2,5.9
	c-1.8-1.4-2-1.6-3-4.2c-0.4,0.8-0.7,1.5-1.1,2.1c-0.6,0.8-1.3,1.5-2.2,1.9c-0.1,0.6-0.3,1.1-0.4,1.7c-0.1-0.1-0.2-0.1-0.3-0.2
	c-0.1-1.7-0.2-3.5-0.3-5.8c-0.5,1-0.7,1.5-0.8,1.7c-0.4-0.6-0.9-1.1-1.2-1.7c-0.2-0.6-0.4-1.2-0.1-2.2c0.7-2.5,1-5.3,1.3-8
	c0-0.2-0.7-0.6-1.2-0.9c0.3-1,0.3-2-0.8-1.9c0.1-0.6,0.1-1.1,0.2-1.7c-0.4,0-0.7,0.1-1,0.1c-0.1-0.9-0.1-1.7-0.2-2.5
	c-0.1,0-0.2-0.1-0.4-0.1c-0.5,1.1-1,2.2-1.3,2.8c-1,1.3-1.9,2.2-2.5,3.4c-0.5,0.8-0.6,2-1,2.9c-0.1,0.4-0.5,0.7-0.8,0.7
	c-0.3,0-0.7-0.2-1-0.4c-0.1-0.4-0.2-1-0.4-1.8c-0.9,1.1-1.6,2-2.2,2.8c-0.3-1.1-0.6-2.4-1-3.7c-0.4,1.5-2.4,1.6-1.5,3.8
	c-0.7,0.6-1.3,1.1-1.9,1.6c-0.2-0.6-0.3-1.3-0.6-2.3c-0.7,1.5-1.1,2.6-1.7,3.8c0.2,0.5,0.5,1.1,0.9,2.1c-0.7-0.2-1-0.3-1.6-0.5
	c-0.1,2.3-0.2,4.6-0.3,7.2c-0.2,0.1-0.6,0.5-1.2,0.9c0.2-1.9,0.3-3.7,0.5-5.6c-0.9,0-1.6,0-2.4,0c0.2-1.4,0.9-2.9-0.5-3.8
	c-0.2-0.1-0.2-0.8-0.2-1.3c0-1.1,0-2.2,0-3.6c-0.7,0.4-1,0.6-1.5,0.9c0.2-1.5,0.4-2.8,0.7-4.2c-0.3-0.1-0.7-0.3-1-0.4
	c-0.1-1.6-0.1-3.1-0.2-4.6c-0.1-0.1-0.2-0.1-0.3-0.2c-0.5,0.9-0.9,1.8-1.4,2.7c-0.2,0.3-0.4,0.4-0.6,0.6c-0.1-0.4-0.2-0.7-0.3-1.1
	c-0.1-0.4-0.1-1.2-0.3-1.3c-1.1-0.7-1.2-2.1-1.2-3.6c0-0.1,0-0.3,0-0.4c-0.2-0.9-0.5-1.9-0.7-2.8c-0.5,0.5-1.1,0.9-1.4,1.5
	c-0.7,1.4-1,1.1-1.3-0.4c-0.3-1.2-0.8-2.4-1.4-4c-0.9,4.1-2.3,7.5-1.9,11.7c-0.2,0-0.3,0-0.5-0.1c-0.2-1.3-0.4-2.6-0.6-3.9
	c-0.1-0.3-0.3-0.6-0.4-0.8c-0.1,0.2-0.2,0.6-0.3,0.7c-1.2,0.8-0.5,2-0.4,3.1c0,0.5-0.5,1.1-0.7,1.6c-0.2,0.6-0.4,1.3-0.5,1.9
	c-0.2,0.9-0.5,1.8-0.5,2.7c0,2.1,0.3,4.3-0.8,6.1c-0.2-1.6-0.3-3.2-0.5-5c-1.6,1.2-1.4,2.8-1.2,4.4c-0.9,0.2-2.2-0.5-2.1,1.4
	c-0.9,1.2-1.7,2-2.3,3c-0.6,0.9-1,2.1-1.4,2.9c-0.6-0.2-1.3-0.4-2.1-0.7c-0.3-2.6-0.7-5.6-1.1-9.1c-1.1,1.2-2.1,2.3-3.2,3.5
	c-0.8-1.8,1.6-3,0.8-4.9c-1.3-0.6-1.4-1-0.7-3.3c-1.5,0.4-0.7-1.6-1.2-2.7c-0.2,0.9-0.3,1.6-0.4,2.6c-0.7-0.3-1.3-0.5-2-0.8
	c0,0.4,0,0.9,0,1.4c-0.1,0-0.3,0.1-0.3,0c-0.2-0.4-0.4-0.8-0.4-1.1c0-2.3,0-3-1-6c-0.1,0.8-0.3,1.5-0.4,2.4
	c-0.3-0.3-0.5-0.7-0.9-1.1c0,1,0,1.9,0,2.8c-0.6-0.1-1.2-0.2-1.9-0.2c-0.1,0.3-0.1,0.9-0.3,1.8c-0.6-1-1.2-1.9-1.8-2.9
	c-0.1-0.2-0.2-0.5-0.3-0.8c-0.2,0.3-0.3,0.5-0.5,0.8c-0.3,0.5-0.6,1-0.9,1.4c-0.1-0.1-0.3-0.2-0.4-0.3c0.1,0.5,0.1,1,0.1,1
	c-0.5,0.9-0.8,1.7-1.3,2.1c-0.9,0.7-0.8,1.6-0.6,2.8c0,0.3-0.4,0.7-0.7,1.1c-0.3-1.7-0.7-3.3-1-5c-1.3,2.5-1.5,5.5-3.4,6.6
	c-0.5-2.6-1-5-1.4-7.5c-0.2,0-0.3,0-0.5,0.1c-0.1,0.6-0.2,1.2-0.3,1.7c-0.1-0.1-0.2-0.3-0.2-0.4c-0.7,1.2-1.5,2.3-2.4,3.8
	c-0.2-2-0.3-3.8-0.5-6.1c-1,1.8-1.6,4-3.1,1.3c-0.6,1-1.2,1.9-1.8,2.8c0.3-1.7-0.7-2.4-1.5-2.4c-0.8,0-1.6,0.9-2.3,1.6
	c-0.9,0.9-0.3,2.5-0.6,4.3c-0.5-0.9-0.8-1.9-1.2-2c-0.4-0.1-0.8,0.7-1.4,1.3c-0.6-1.4-1-0.2-1.6,0.7c-0.5,0.8-0.9,1.1-0.4,2.4
	c0.2,0.4-0.6,2.2-1.2,2.7c-1.7,1.4-2.3,2.9-1.9,5.6c0,0.3-0.2,0.6-0.2,1c-0.1,0.7-0.3,1.9-0.1,2.1c0.5,0.6,0.4,1.1,0.1,1.6
	c-1.1,1.6-2.3,3.2-4,3.2c0.2-1.9,1.2-3.8,0-5.7c-0.5,1.2-0.8,2.6-2,1.6c0,0-0.6,1.2-1,2c-1.6-0.2-1.8-0.7-1.6-4.6
	c-1.5-0.9-1.8-2.3-1.3-4.6c0.2-0.8,0.5-1.4-0.2-2.2c-0.5-0.6-0.5-2,0.2-3c0.5-0.8,1-1.6,0.3-2.7c-0.4,0.3-0.8,0.6-1.3,1
	c-0.9-2.4,1.1-3.7,0.6-5.9c-0.5,0.2-1.1,0.4-1.8,0.6c0-1.4,0.9-2.6-0.3-3.4c-0.1,0,0-0.5,0-0.7c0.6-1.7-0.2-2.8-0.7-4.2
	c-0.7,1.5-1.4,2.9-2.1,4.2c-0.6-0.3-1.3-0.6-2.1-1c-0.2,0.8-0.5,1.6-0.7,2.5c-0.1,0-0.2,0-0.3,0c-0.1-0.8-0.2-1.7-0.3-2.5l-0.3-4.2
	c-0.3-0.2-0.7-0.6-0.8-0.5c-0.9,1.4-1.8,2.8-2.7,4.4c0,0-0.3-0.4-0.3-0.4c0.6-1.5-0.1-2.4-0.4-3.6c-0.3-1-0.6-2.5-0.3-3.3
	c0.6-1.5,0.1-2.9,0.1-4.3c0-0.4-0.4-0.9-0.6-1.1c-0.1-0.1-0.5,0.4-0.7,0.7c-0.6,1-1.2,2-1.9,3.2c-0.3-2.4,1.2-4.6-0.5-6.6
	c-0.1,0.4-0.2,0.6-0.2,0.8c0,0.2,0,0.5,0.1,0.8c-0.6,0.1-1,0.1-1.5,0.2c-0.2,0.6-0.3,1.3-0.5,2c-0.6-0.3-1.1-0.6-1.8-1
	c-0.1,0.9-0.1,1.5-0.2,2.1c-0.5-0.4-0.9-0.8-1.3-1.1c-1.7,1.7-2,4.3-2.2,7c-1,0-0.9,0-1,1.4c-0.1,0.7-0.6,1.3-1,1.9
	c-0.1-0.1-0.3-0.2-0.4-0.3c0.1,1.4,0.2,2.9,0.3,4.2c-0.5,0-1.2-0.1-1.2,0.2c-0.2,0.8-0.3,1.7-0.3,2.6c0,0.1,0.5,0.2,0.7,0.3
	c-0.2,0.9-0.5,2-0.7,2.9c-0.7-0.7-1.3-1.3-1.8-1.8c-0.6,0.6-1,1.4-1.2,1.3c-0.7-0.2-1.3-0.9-2.1-1.5c-0.4,0.5-0.7,1-0.6,2.6
	c0.1,1.6,0.8,2.1,1.1,3.4c-0.5,0.1-1,0.3-1.7,0.5c0.3,0.9,0.6,1.7,0.9,2.6c-0.3,0.2-0.7,0.3-0.9,0.5c0.3,0.7,0.6,1.4,0.8,2.1
	c0.5-0.5,0.9-1,1.3-1.5c0.2,0.9,0.4,1.9,0.6,3c-0.7,0-1.4,0-2.2,0c0.3,1,0.5,1.5,0.6,1.7c-0.6,1.5-1.2,2.7-1.9,4.4
	c0.7,0.5,1.3,1,1.9,1.6c0.4,0.4,0.8,1,1.1,1.6c0.1,0.1-0.2,0.6-0.2,1c-0.1-0.2-0.2-0.5-0.3-0.6c-0.2-0.1-0.7-0.2-0.7,0
	c-0.3,0.9-0.4,1.9-0.7,2.9c-0.1,0.5-0.3,0.9-0.5,1.3c0.1,0.1,0.3,0.2,0.5,0.4c-0.3,0.4-0.6,0.8-0.9,1.2c0.9,1.7,0.9,1.7-0.9,3.1
	c-0.5-1.5-1-3.1-1.6-4.6c0-0.1-0.1-0.3-0.1-0.4c1-2.3-1-1.9-1.3-3c0.5-0.5,1.1-1.1,1.5-1.4c0-1.1,0-2,0-3c-0.4-0.3-0.7-0.5-0.9-0.7
	c0.7-1,1.3-1.8,2-2.7c-0.1-0.2-0.2-0.5-0.4-0.7c-0.6,0.6-1.3,1.2-1.9,1.8c-0.1-0.2-0.3-0.6-0.4-1c0.1,0.1,0.3,0.1,0.4,0.2
	c0.4-1,0.7-2,1.1-3c-0.6-0.4-1.1-1-1.7-1c-0.4,0-0.8,0.8-1.1,1.3c0,0.3,0.1,0.5,0.1,0.8c-0.6-0.4-1.1-0.7-1.5-1
	c0.6-2.7,1.2-5,1.8-7.7c-0.9,0.7-1.6,1.2-2.4,1.8c0-0.8,0-1.1,0.1-1.5c-0.5-0.1-1-0.1-1.5-0.2c0.2-1.2,0.4-2.2,0.5-3.2
	c0.1-0.6,0-1.2,0-1.8c-0.4,0.1-0.8,0.2-1,0.3c-0.2-1.3-0.5-2.7-0.7-4.2c-0.6,0.5-0.9,0.7-1.4,1.1c-1.4,2-1.5,5.1-1.3,8.2
	c-0.2,0-0.3,0-0.5,0c-0.2-1.1-0.4-2.2-0.6-3.4c-1.8,2.4-1.7,5.4-1.9,7.9c-1.3,1.9-2.4,3.6-3.6,5.5c-0.2-0.7-0.3-1.3-0.5-1.9
	c-1.4-0.3-0.7,1.4-1,2.4c-0.6,0.2-1.4,0.5-2.2,0.7c-0.1-1.4-1.5-2.3-0.6-3.8c0.2-0.4,0.9-0.3,1.6-0.5c0.1-0.4,0.2-1.2,0.4-2
	c-0.1,0-0.2,0-0.3,0c0-0.8,0.2-1.5,0.1-2.3c0-0.5-0.3-1-0.5-1.3c-0.3-0.3-0.6-0.4-1.1-0.7c1.3-0.7,1.3-0.7,2-4.2
	c-0.9-1.1-1.8-2.2-2.9-3.4c-0.3,0.3-0.7,0.9-1.4,1.7c0.4-1.9,0.6-3.3,0.9-4.8c0-0.2,0-0.7,0-0.7c-1.2-0.5-1-2.4-1.4-3.6
	c-1.6,1.6-3.3,3-3.1,6.3c-0.4-1.1-0.7-2.1-1.1-3.2c-0.1,0.1-0.2,0.2-0.3,0.2c-0.1,1.2-0.2,2.4-0.2,3.5c0,0,0.1,0,0.1,0
	c-0.1,0.7-0.2,1.4-0.4,2c-0.1,0.2-0.4,0.2-0.6,0.4c-1,0.9-1.6,2-1.4,3.5c-0.7-0.1-1.4-0.5-2-0.3c-0.4,0.2-0.5,1.3-0.8,2.2
	c-0.6-0.3-1.2,0-1.6,1.6c-0.2,0.8-0.9,2-1.4,2c-1.4,0.2-1.2,1.6-1.2,2.9c0,0.4-0.2,0.7-0.3,1c-0.1,0-0.2,0-0.4,0c0-1.1,0-2.3,0-3.5
	c-1.9-1.1-2-1.5-1.8-5.8c-0.4-0.1-0.8-0.1-1.2-0.2c0.1-0.1,0.2-0.3,0.3-0.4c-0.3-1.1-0.7-2.2-1.1-3.5c-0.9,1.8-1.6,3.3-2.3,4.8
	c-0.7-0.5-1.8-4.1-1.8-5c-0.9-1.4-1.5-2.5-2.2-3.6c-0.2,0.3-0.5,0.8-0.7,1.2c-0.1-0.3-0.3-0.7-0.3-0.9c0.8-1.8,0-3.2-0.4-4.7
	c0-0.1-0.1-0.3-0.1-0.3c-2-0.1-0.6-4.1-2.3-4.5c-0.1,0-0.1-0.2-0.1-0.3c-0.1-0.6-0.2-1.1-0.2-1.7c-0.5,0.6-1.1,1.1-1.5,1.8
	c-0.9,1.5-1.8,3.1-2.8,5c-0.2-1-0.4-1.8-0.7-3.3c-0.4,1-0.7,1.6-0.9,2.3c-0.3-0.9-0.5-1.4-0.6-2c-0.4,1.4-1.5,1.9-1.5,3.7
	c0,1.5-0.4,3.7-1.2,4.4c-0.8,0.7-1.2,1.9-1.9,2.5c-0.1-0.6-0.3-1.5-0.4-1.4c-0.6,0.2-1.2,0.4-1.6,0.9c-0.6,0.9-1.1,2.1-1.7,3.1
	c-0.6,1.1-1.2,2.2-1.8,3.2c-0.3,0.5-0.7,0.7-1.2,1.2c0.1,0.2,0.3,0.5,0.3,0.5c-0.5,1-1,1.9-1.5,3c-0.1,0-0.4-0.1-1-0.2
	c0,1.5,0,2.8,0,4.4c-1.5,0.7,0.5,2.8-0.4,4.3c-1-1.1-1.3-2.7-1.9-4.8c-0.2,0.6-0.3,1.1-0.5,1.6c-1.3-3.1-0.5-5.8,0.3-8.6
	c-0.1-0.1-0.3-0.1-0.4-0.2c-0.4,0.3-0.8,0.7-1.1,1c0-2.1,0-4.3,0-6.5c-0.2-0.1-0.3-0.1-0.5-0.2c-0.3,0.5-0.6,1.1-1,1.9
	c-0.2,0.3-0.6,0.8-1.1,1.6c-0.9-0.3-1-0.6-0.3-2.2c0.4-1,0.4-1,0.1-4.9c-0.8,0.7-1.7,1.4-2.3-0.5c-0.1-0.2-0.6-0.1-1-0.1
	c0.5-3.5,0.3-4-1.4-4.1c-0.6-2.5-1.2-4.8-1.9-7.1c-0.8,0.7-1.5,1.3-2.2,2c-0.1-0.1-0.1-0.3-0.2-0.4c-0.4,1.6-0.8,3.2-1.2,5
	c-0.4-1.2-0.6-2-1-3.3c-0.3,0.9-0.4,1.3-0.6,2.1c-0.4-1.2-0.6-2.1-0.9-3.1c-0.5,0.3-1,0.6-1.6,1c-0.1,1.1-0.2,2.2-0.3,3.4
	c-0.5,0.8-1.2,1.6-1.7,2.7c-0.7,1.4-1.9,3.5-1.7,4.5c0.5,1.9-0.4,2.6-0.4,4.1c-0.4-1-0.8-1.8-1.3-2.8c-0.3,1.3-0.4,2.2-0.6,3
	c-0.3-0.3-0.5-0.6-0.8-0.8c-0.3,1.1-0.6,2.1-0.9,3c-0.1-0.1-0.2-0.1-0.3-0.2c0-0.4-0.1-0.8-0.1-1.4c-1.2,0.2-2.3,0.4-2,3.3
	c-0.5-0.6-0.8-1-1-1.3c-0.1,0.1-0.2,0.2-0.2,0.3c-1,2.2-1,2.2-2.1,0.5c-0.1-0.1-0.2-0.1-0.5-0.3c-0.1,1-0.3,1.9-0.4,3.3
	c-0.2-0.7-0.3-1-0.4-1.1c-0.5,0.7-1,1.4-1.5,2c-0.2-0.1-0.3-0.3-0.5-0.4c0.2-1.4,0.5-2.8,0.7-4.3c-0.2-0.6-0.6-1.4-1.1-2.7
	c-0.3,0.1-0.8,0.3-1.2,0.5c-0.3-0.5-0.6-1.1-0.9-1.7c0,48,0,95.9,0,143.9c115.9,0,231.8,0,347.7,0V503.3z"/>
<polygon id="XMLID_40_" class="st7" points="1861.1,609.7 1827.7,639 1778.3,546.2 1688.1,434.8 1602.7,316.8 1525.2,426.7 
	1383.4,519.8 1358,500.2 1304.3,410.3 1245,506.8 1227.9,531.8 1042.3,479.3 886.5,384.1 714.9,486.3 563.4,567 446.5,523.1 
	229.7,432.1 81.6,495.9 -0.8,408.4 -1,408.6 -1,821.5 -1,823.5 -1,908.9 360.3,865.2 991.5,865.2 1349.1,908.9 1692.7,885.5 
	1919,899.5 1923.1,824.1 1923.2,824.1 1923.2,574 "/>
<g id="XMLID_52_" class="st8">
	<path id="XMLID_85_" class="st9" d="M1149.1,1123.6c5.7,41.1-6,75.2-32.4,102.4c-26.2,26.5-67.1,46.1-113,42.7
		c-45.9-3.4-86.9-16.5-113-42.7c-26.5-25.5-38.2-63.9-32.4-103.2c5.7-37.8,26.6-69.4,52.8-96.7c26.5-26.5,58.3-48.5,92.7-48.4
		c34.4,0.1,66.2,10.5,92.7,36.7C1122.5,1039.8,1143.3,1081,1149.1,1123.6z"/>
	<path id="XMLID_84_" class="st10" d="M1126.1,1118.7c9.5,67.7-45.4,126.7-122.6,127c-77.2,0.2-132.1-50.5-122.6-118.1
		c4.1-32.4,21-61.2,43.1-84.6c22.3-23.1,49.7-40.8,79.5-42.4c29.8-1.7,57.2,8,79.5,29.3C1105.1,1050.8,1122.1,1083.4,1126.1,1118.7z
		"/>
	<path id="XMLID_83_" class="st11" d="M1094.6,1115.8c5.2,51.2-35.5,95.6-91,98.2c-55.5,2.6-96.2-34.4-91-83.8
		c5.2-48.2,46-92.7,91-98.2C1048.6,1026.5,1089.3,1063.5,1094.6,1115.8z"/>
</g>
<path id="XMLID_53_" class="st12" d="M-1,1396.5c0,0,690.4,27,913.3-70.6c0,0,81.7,67.1,83.8,74.1c2.1,7,844.6,53.3,922.9,0
	l2.1,120.1H-3.1L-1,1396.5z"/>
</svg>
