<?xml version="1.0" encoding="utf-8"?>
<!-- Generator: Adobe Illustrator 19.0.0, SVG Export Plug-In . SVG Version: 6.00 Build 0)  -->
<svg version="1.1" xmlns="http://www.w3.org/2000/svg" xmlns:xlink="http://www.w3.org/1999/xlink" x="0px" y="0px"
	 viewBox="0 0 1920 1080" enable-background="new 0 0 1920 1080" xml:space="preserve">
<g id="Layer_1">
	<g id="XMLID_34_">
		<path id="XMLID_35_" fill="#053449" d="M446,523.1c0,20.6,0,41.1,0,61.7c-71.9,0-143.7,0-215.6,0c0-19.7,0-39.3,0-59
			c0.2,0.2,0.4,0.5,0.5,0.7c0.2-0.1,0.6-0.1,0.7-0.2c0.3,0.5,0.5,0.9,0.7,1.1c-0.2,0.7-0.3,1.2-0.4,1.8c0.1,0.1,0.2,0.1,0.3,0.2
			c0.3-0.3,0.6-0.5,0.9-0.8c0,0.1,0.1,0.2,0.2,0.5c0.1-0.5,0.2-0.9,0.3-1.3c0.2,0.1,0.3,0.1,0.3,0.1c0.6,0.7,0.6,0.7,1.3-0.2
			c0,0,0.1-0.1,0.1-0.1c0.2,0.1,0.3,0.3,0.6,0.5c-0.2-1.2,0.4-1.3,1.2-1.3c0,0.2,0,0.4,0.1,0.6c0.1,0,0.1,0,0.2,0.1
			c0.2-0.4,0.4-0.8,0.6-1.3c0.1,0.1,0.3,0.2,0.5,0.3c0.1-0.4,0.2-0.7,0.4-1.2c0.3,0.4,0.5,0.7,0.8,1.2c0-0.6,0.6-0.9,0.3-1.7
			c-0.2-0.4,0.6-1.3,1-1.8c0.3-0.4,0.7-0.8,1.1-1.1c0.1-0.5,0.1-1,0.2-1.4c0.4-0.2,0.7-0.3,1-0.4c0.2,0.4,0.3,0.8,0.6,1.3
			c0.2-0.3,0.2-0.5,0.4-0.9c0.2,0.5,0.4,0.9,0.6,1.4c0.3-0.8,0.5-1.4,0.8-2.1c0,0.1,0.1,0.1,0.1,0.2c0.4-0.3,0.8-0.5,1.3-0.8
			c0.4,1,0.7,1.9,1.1,2.9c1,0.1,1.2,0.3,0.9,1.7c0.2,0,0.6,0,0.6,0c0.4,0.8,0.9,0.5,1.4,0.2c0.2,1.6,0.2,1.6-0.1,2
			c-0.4,0.6-0.4,0.8,0.2,0.9c0.3-0.3,0.6-0.5,0.7-0.6c0.3-0.3,0.5-0.5,0.6-0.8c0.1,0,0.2,0,0.3,0.1c0,0.9,0,1.8,0,2.7
			c0.2-0.1,0.5-0.3,0.7-0.4c0.1,0,0.2,0.1,0.2,0.1c-0.5,1.1-1,2.3-0.2,3.5c0.1-0.2,0.2-0.4,0.3-0.7c0.3,0.9,0.5,1.5,1.1,2
			c0.6-0.6-0.7-1.5,0.3-1.7c0-0.7,0-1.2,0-1.8c0.3,0.1,0.5,0.1,0.6,0.1c0.3-0.4,0.6-0.8,0.9-1.2c0,0-0.1-0.1-0.2-0.2
			c0.3-0.2,0.6-0.3,0.7-0.5c0.4-0.4,0.8-0.9,1.1-1.3c0.3-0.4,0.6-0.9,1-1.3c0.3-0.2,0.7-0.3,1-0.4c0,0,0.1,0.4,0.2,0.6
			c0.5-0.2,0.7-0.7,1.2-1c0.5-0.3,0.7-1.2,0.7-1.8c0-0.8,0.7-1,0.9-1.5c0.1,0.2,0.2,0.5,0.4,0.8c0.2-0.3,0.3-0.5,0.6-1
			c0.2,0.6,0.3,0.9,0.4,1.3c0.6-0.8,1.1-1.4,1.7-2c0.3-0.3,0.6-0.5,0.9-0.7c0,0.2,0.1,0.5,0.1,0.7c0,0.1,0.1,0.1,0.1,0.1
			c1,0.2,0.2,1.8,1.4,1.8c0,0,0,0.1,0.1,0.1c0.3,0.6,0.7,1.2,0.3,1.9c0,0.1,0.1,0.2,0.2,0.4c0.2-0.2,0.3-0.4,0.4-0.5
			c0.4,0.5,0.8,0.9,1.4,1.5c0,0.3,0.6,1.8,1.1,2c0.4-0.6,0.9-1.2,1.4-2c0.2,0.5,0.5,1,0.7,1.4c-0.1,0.1-0.1,0.1-0.2,0.2
			c0.3,0,0.5,0.1,0.8,0.1c-0.1,1.8-0.1,1.9,1.1,2.4c0,0.5,0,1,0,1.4c0.1,0,0.2,0,0.2,0c0.1-0.1,0.2-0.3,0.2-0.4
			c0-0.5-0.1-1.1,0.7-1.2c0.3,0,0.8-0.5,0.9-0.8c0.2-0.7,0.6-0.8,1-0.7c0.2-0.4,0.3-0.8,0.5-0.9c0.4-0.1,0.8,0.1,1.2,0.1
			c-0.1-0.6,0.3-1.1,0.9-1.4c0.1-0.1,0.3-0.1,0.4-0.2c0.1-0.3,0.2-0.5,0.2-0.8c0,0,0,0,0,0c0-0.5,0.1-1,0.1-1.4
			c0.1,0,0.1-0.1,0.2-0.1c0.2,0.4,0.4,0.9,0.7,1.3c-0.1-1.4,0.9-2,1.9-2.6c0.3,0.5,0.2,1.3,0.9,1.5c0,0,0,0.2,0,0.3
			c-0.2,0.6-0.3,1.2-0.6,2c0.4-0.3,0.7-0.6,0.8-0.7c0.7,0.5,1.2,1,1.8,1.4c-0.4,1.4-0.4,1.4-1.2,1.7c0.3,0.1,0.5,0.2,0.7,0.3
			c0.2,0.1,0.3,0.4,0.3,0.5c0,0.3,0,0.6-0.1,0.9c0.1,0,0.1,0,0.2,0c-0.1,0.3-0.2,0.7-0.2,0.8c-0.4,0.1-0.8,0-1,0.2
			c-0.5,0.6,0.3,1,0.4,1.6c0.5-0.1,1-0.2,1.4-0.3c0.2-0.4-0.2-1.1,0.6-1c0.1,0.2,0.2,0.5,0.3,0.8c0.7-0.8,1.4-1.5,2.2-2.3
			c0.1-1,0.1-2.2,1.2-3.2c0.1,0.5,0.3,1,0.4,1.4c0.1,0,0.2,0,0.3,0c-0.1-1.3-0.1-2.5,0.8-3.4c0.3-0.2,0.5-0.3,0.9-0.5
			c0.2,0.6,0.3,1.2,0.4,1.7c0.1,0,0.4-0.1,0.6-0.1c0,0.2,0,0.5,0,0.7c-0.1,0.4-0.2,0.8-0.3,1.3c0.3,0,0.6,0.1,0.9,0.1
			c0,0.2,0,0.3,0,0.6c0.5-0.3,0.9-0.4,1.5-0.7c-0.4,1.1-0.7,2.1-1.1,3.2c0.2,0.1,0.6,0.3,0.9,0.4c0-0.1,0-0.2-0.1-0.3
			c0.2-0.2,0.5-0.5,0.7-0.5c0.4,0,0.7,0.3,1,0.4c-0.2,0.4-0.5,0.8-0.7,1.2c-0.1,0-0.2,0-0.2-0.1c0.1,0.2,0.2,0.3,0.3,0.4
			c0.4-0.3,0.8-0.5,1.2-0.7c0.1,0.1,0.1,0.2,0.2,0.3c-0.4,0.4-0.8,0.7-1.2,1.1c0.1,0.1,0.3,0.2,0.6,0.3c0,0.4,0,0.8,0,1.2
			c-0.2,0.2-0.6,0.4-0.9,0.6c0.2,0.4,1.4,0.2,0.8,1.2c0,0,0,0.1,0.1,0.1c0.3,0.6,0.6,1.3,1,1.9c1.1-0.6,1.1-0.6,0.6-1.3
			c0.2-0.2,0.3-0.3,0.5-0.5c-0.1-0.1-0.2-0.1-0.3-0.1c0.1-0.2,0.2-0.3,0.3-0.5c0.1-0.4,0.2-0.8,0.4-1.2c0,0,0.3,0,0.4,0
			c0.1,0,0.1,0.2,0.2,0.2c0.1-0.1,0.2-0.3,0.1-0.4c-0.2-0.2-0.4-0.5-0.7-0.7c-0.4-0.2-0.8-0.4-1.2-0.7c0.5-0.7,0.8-1.2,1.2-1.8
			c0-0.1-0.2-0.3-0.4-0.7c0.5,0,0.9,0,1.4,0c-0.1-0.4-0.3-0.9-0.4-1.2c-0.3,0.2-0.5,0.4-0.8,0.6c-0.2-0.3-0.3-0.5-0.5-0.9
			c0.1,0,0.3-0.1,0.6-0.2c-0.2-0.4-0.4-0.7-0.6-1.1c0.4-0.1,0.7-0.1,1-0.2c-0.2-0.5-0.7-0.7-0.7-1.4c0-0.7,0.1-0.9,0.4-1.1
			c0.5,0.3,0.9,0.5,1.3,0.6c0.2,0,0.4-0.3,0.8-0.5c0.3,0.2,0.7,0.4,1.1,0.7c0.1-0.4,0.3-0.8,0.4-1.2c-0.1,0-0.5-0.1-0.5-0.1
			c0-0.4,0.1-0.7,0.2-1.1c0-0.1,0.4,0,0.8-0.1c-0.1-0.5-0.1-1.1-0.2-1.7c0.1,0,0.2,0.1,0.2,0.1c0.2-0.3,0.6-0.5,0.6-0.8
			c0.1-0.5,0-0.6,0.6-0.6c0.1-1.1,0.3-2.2,1.3-2.9c0.2,0.1,0.5,0.3,0.8,0.5c0-0.3,0.1-0.5,0.1-0.9c0.4,0.1,0.7,0.3,1.1,0.4
			c0.1-0.3,0.2-0.5,0.3-0.8c0.3,0,0.6-0.1,0.9-0.1c0-0.1,0-0.2,0-0.3c0-0.1,0.1-0.2,0.2-0.3c1.1,0.8,0.1,1.7,0.3,2.7
			c0.4-0.5,0.8-0.9,1.2-1.3c0.1-0.1,0.3-0.3,0.4-0.3c0.2,0.1,0.4,0.3,0.4,0.4c0.1,0.6,0.3,1.1,0,1.8c-0.2,0.3,0,0.9,0.2,1.4
			c0.2,0.5,0.7,0.9,0.3,1.5c0,0,0.2,0.2,0.2,0.2c0.6-0.6,1.1-1.2,1.7-1.8c0,0,0.3,0.1,0.5,0.2l0.2,1.7c0.1,0.3,0.1,0.7,0.2,1
			c0.1,0,0.1,0,0.2,0c0.1-0.3,0.3-0.7,0.4-1c0.5,0.1,0.9,0.3,1.3,0.4c0.4-0.5,0.8-1.1,1.3-1.7c0.3,0.6,0.8,1,0.4,1.7
			c0,0.1,0,0.3,0,0.3c0.7,0.3,0.1,0.8,0.2,1.4c0.4-0.1,0.8-0.2,1.1-0.3c0.3,0.9-0.9,1.4-0.4,2.4c0.3-0.1,0.6-0.3,0.8-0.4
			c0.4,0.5,0.1,0.8-0.2,1.1c-0.4,0.4-0.4,1-0.1,1.2c0.4,0.4,0.2,0.6,0.1,0.9c-0.3,0.9-0.1,1.5,0.8,1.9c-0.1,1.6,0,1.8,1,1.9
			c0.3-0.3,0.6-0.8,0.6-0.8c0.7,0.4,0.9-0.2,1.2-0.6c0.8,0.8,0.1,1.5,0,2.3c1.1,0,1.8-0.6,2.5-1.3c0.2-0.2,0.3-0.4-0.1-0.6
			c-0.1-0.1,0-0.6,0.1-0.9c0-0.1,0.1-0.3,0.1-0.4c-0.2-1.1,0.1-1.7,1.2-2.3c0.4-0.2,0.8-0.9,0.7-1.1c-0.3-0.5-0.1-0.7,0.2-1
			c0.4-0.4,0.6-0.9,1-0.3c0.3-0.2,0.6-0.6,0.8-0.5c0.2,0,0.4,0.5,0.7,0.8c0.2-0.7-0.2-1.4,0.4-1.8c0.4-0.3,0.9-0.6,1.4-0.6
			c0.5,0,1.1,0.3,0.9,1c0.4-0.4,0.7-0.7,1.1-1.1c0.9,1.1,1.3,0.2,1.9-0.5c0.1,1,0.2,1.7,0.3,2.5c0.6-0.6,1-1.1,1.5-1.6
			c0.1,0.1,0.1,0.1,0.2,0.2c0.1-0.2,0.1-0.5,0.2-0.7c0.1,0,0.2,0,0.3,0c0.3,1,0.6,2,0.9,3.1c1.1-0.5,1.3-1.7,2.1-2.7
			c0.2,0.7,0.4,1.4,0.6,2.1c0.2-0.2,0.4-0.4,0.4-0.5c-0.1-0.5-0.2-0.9,0.3-1.2c0.3-0.2,0.5-0.5,0.8-0.8c0,0,0-0.2-0.1-0.4
			c0.1,0,0.2,0.1,0.2,0.1c0.2-0.2,0.4-0.4,0.5-0.6c0.1-0.1,0.2-0.2,0.3-0.3c0.1,0.1,0.1,0.2,0.2,0.3c0.3,0.4,0.7,0.7,1.1,1.2
			c0.1-0.3,0.1-0.6,0.2-0.7c0.4,0,0.8,0.1,1.2,0.1c0-0.4,0-0.7,0-1.2c0.2,0.2,0.4,0.3,0.6,0.5c0.1-0.4,0.2-0.7,0.2-1
			c0.6,1.2,0.7,1.5,0.6,2.5c0,0.2,0.1,0.3,0.2,0.5c0,0,0.1,0,0.2,0c0-0.2,0-0.4,0-0.6c0.4,0.1,0.8,0.2,1.2,0.3
			c0.1-0.4,0.2-0.7,0.3-1.1c0.3,0.4-0.2,1.3,0.7,1.1c-0.4,1-0.4,1.1,0.4,1.4c0.4,0.8-1,1.3-0.5,2c0.7-0.5,1.3-0.9,2-1.4
			c0.3,1.4,0.5,2.7,0.7,3.7c0.5,0.1,1,0.2,1.3,0.3c0.2-0.3,0.5-0.8,0.8-1.2c0.4-0.4,0.8-0.7,1.4-1.2c-0.1-0.8,0.7-0.5,1.3-0.6
			c-0.1-0.7-0.3-1.3,0.7-1.8c0.1,0.7,0.2,1.4,0.3,2.1c0.7-0.7,0.5-1.6,0.5-2.5c0-0.4,0.2-0.7,0.3-1.1c0.1-0.3,0.2-0.5,0.3-0.8
			c0.1-0.2,0.4-0.5,0.4-0.7c-0.1-0.5-0.4-1,0.3-1.3c0.1,0,0.1-0.2,0.2-0.3c0.1,0.1,0.2,0.2,0.3,0.3c0.1,0.5,0.2,1.1,0.4,1.6
			c0.1,0,0.2,0,0.3,0c-0.2-1.7,0.6-3.1,1.2-4.8c0.4,0.7,0.7,1.1,0.9,1.6c0.2,0.6,0.4,0.8,0.8,0.2c0.2-0.3,0.6-0.4,0.9-0.6
			c0.2,0.4,0.3,0.8,0.5,1.1c0,0,0,0.1,0,0.2c0,0.6,0.1,1.2,0.8,1.5c0.1,0,0.1,0.3,0.2,0.5c0.1,0.2,0.1,0.3,0.2,0.5
			c0.1-0.1,0.3-0.2,0.4-0.3c0.3-0.4,0.6-0.7,0.9-1.1c0.1,0,0.1,0.1,0.2,0.1c0,0.6,0.1,1.2,0.1,1.9c0.2,0,0.4,0.1,0.6,0.2
			c-0.1,0.6-0.3,1.1-0.4,1.7c0.3-0.1,0.5-0.2,0.9-0.4c0,0.6,0,1,0,1.5c0,0.2,0,0.5,0.1,0.5c0.9,0.4,0.4,1,0.3,1.5c0.5,0,0.9,0,1.5,0
			c-0.1,0.8-0.2,1.5-0.3,2.3c0.4-0.2,0.6-0.3,0.7-0.4c0.1-1,0.1-2,0.2-2.9c0.4,0.1,0.6,0.1,1,0.2c-0.3-0.4-0.4-0.6-0.6-0.9
			c0.3-0.5,0.6-0.9,1-1.6c0.2,0.4,0.3,0.7,0.4,1c0.4-0.2,0.8-0.4,1.2-0.7c-0.5-0.9,0.7-0.9,0.9-1.6c0.2,0.5,0.4,1.1,0.6,1.5
			c0.4-0.3,0.8-0.7,1.4-1.2c0.1,0.3,0.2,0.6,0.2,0.7c0.2,0.1,0.4,0.2,0.6,0.2c0.2,0,0.4-0.2,0.5-0.3c0.2-0.4,0.3-0.9,0.6-1.2
			c0.4-0.5,0.9-0.8,1.6-1.4c0.2-0.2,0.5-0.7,0.8-1.2c0.1,0,0.1,0,0.2,0.1c0,0.3,0.1,0.6,0.1,1c0.2,0,0.4,0,0.6,0
			c0,0.2-0.1,0.4-0.1,0.7c0.7,0,0.7,0.4,0.5,0.8c0.3,0.1,0.7,0.3,0.7,0.4c-0.2,1.1-0.4,2.2-0.8,3.3c-0.2,0.4-0.1,0.7,0.1,0.9
			c0.1,0.3,0.5,0.5,0.7,0.7c0.1-0.1,0.2-0.3,0.5-0.7c0.1,1,0.1,1.7,0.2,2.4c0.1,0,0.1,0,0.2,0.1c0.1-0.2,0.2-0.5,0.3-0.7
			c0.5-0.2,1-0.5,1.3-0.8c0.2-0.2,0.4-0.5,0.6-0.8c0.6,1.1,0.7,1.1,1.9,1.7c-0.3-0.9-0.5-1.7-0.8-2.4c0.5-0.2,1-0.2,1.1-0.4
			c0.2-0.2,0.1-0.6,0.2-0.9c0-0.6-0.1-1.1-0.1-1.8c0.5,0.4,0.8,0.6,0.9,0.8c0.2-0.7,0.4-1.4,0.7-2.2c0.7,0.4,1.3,0.9,1-0.3
			c0-0.1,0.1-0.1,0.1-0.2c0.3-1,0.6-2.1,0.9-3.1c0.1-0.3,0.1-0.8,0.3-0.9c0.7-0.4,1.4-0.7,2.2-1c0.1,0.3,0.2,0.6,0.3,0.9
			c0-0.4,0.1-0.7,0.1-1c1,0.6,0.4-0.4,0.7-0.6c0.2,0.1,0.4,0.1,0.6,0.2c0.1-0.2,0.1-0.4,0.2-0.6c0.6,0.6,1,0.7,1.3-0.2
			c0.3,0.5,0.5,1,0.6,1.5c0.1,0.6,0.1,1.2,0.1,1.8c0.2-0.1,0.4-0.1,0.8-0.2c-0.2,0.9-0.4,1.8-0.6,2.6c0.4,0.1,0.8,0.6,1.2-0.2
			c0.2-0.4,0.9-0.5,1.5-0.8c0-1.1,1.5-0.3,1.8-1.3c0.2,0.6,0.4,1,0.6,1.5c0.3-0.2,0.6-0.5,0.9-0.8c0.4,0.5-0.2,1.7,1.2,1.7
			c-0.1,0.5-0.2,1-0.3,1.5c0,0.2,0,0.5,0.1,0.6c0.2,0.2,0.5,0.2,0.8,0.2c0-0.2,0-0.4,0.1-0.6c0.1-0.5,0.3-1,0.5-1.7
			c0.3,0.5,0.4,0.7,0.4,0.8c0.5-0.2,1-0.4,1.5-0.6c1-0.4,0.4,1.1,1.1,0.9c0,0.4,0,0.8-0.1,1.1c0.1,0,0.1,0.1,0.2,0.1
			c0.2-0.2,0.5-0.4,0.7-0.6c0.1,1.1,0.2,2.2,0.3,3.5c0.4-0.5,0.7-0.9,1-1.3c0.1,0.1,0.2,0.1,0.3,0.2c0.1,0.3,0.1,0.6,0.2,1
			c0.4-0.1,0.7-0.2,0.9-0.3c0.5,0.7-0.3,1.7,0.6,2.5c0.1-0.5,0.1-0.7,0.2-1c0.1-0.3,0.3-0.7,0.5-1c0.1-0.1,0.6-0.1,0.7,0.1
			c0.3,0.5,0.4,0.7,0.9,0.2c0.1-0.1,0.4-0.1,0.6-0.1c0-0.2,0-0.4,0-0.8c0.2,0.2,0.3,0.3,0.4,0.5c0.2,0.4,0.2,1,0.5,1.1
			c0.6,0.3,0.5,1.1,0.4,1.1c-0.6,0.3,0,1.4-0.9,1.4c0,0.3-0.1,0.6,0.1,0.8c0.3,0.3,0.7,0.6,1,0.9c0.1-1.2,0.1-2.7,1.3-3.7
			c0.1,0.2,0.2,0.4,0.3,0.6c1.1-0.9,1.1-0.9,1.4-0.5c0.3-0.8,0.7-1.6,1-2.4c0.2,0.1,0.3,0.1,0.4,0.2c0-0.1-0.1-0.1-0.1-0.2
			c0.4-0.5,0.8-0.9,1.2-1.4c0.2,0.2,0.3,0.3,0.3,0.4c0.5,1-0.1,1.9,0.1,2.9c0.2,0,0.5-0.1,0.7-0.1c0.2-0.3,0.3-0.5,0.4-0.7
			c0.2-0.2,0.4-0.2,0.8-0.4c1.1,0.4,0,1.4,0.2,2.2c0.3-0.2,0.5-0.3,0.9-0.6c0,1-0.7,1.4-0.9,1.8c0.1,0.5,0.2,0.7,0.3,1
			c0,0,0.1,0,0.1,0c0.3-0.6,0.6-1.3,1.2-1.6c-0.4-0.9,0.5-1.1,0.8-1.6c0.1-0.1,0.2-0.3,0.3-0.4c0.3-0.4,0.6-0.8,0.9-1.3
			c0.1,0,0.2,0.1,0.2,0.1c0.1,0.5,0.2,1,0.2,1.4c0.3-0.3,0.6-0.6,0.7-0.8c0.3-0.7,0.3-1.5,0.7-1.8c0.8-0.5,1.2-1,1.2-1.9
			c0-0.8,0.5-1.2,1.1-1.1c0.2-0.5,0.4-1,0.6-1.6c0.3,0.4,0.6,0.7,0.8,1c0.5-0.5,0.7-0.4,1,0.5c0.2-0.1,0.5-0.2,0.7-0.2
			c0.2,0,0.4,0.2,0.5,0.4c0.1,0.1,0.1,0.4,0.1,0.4c0.2,0,0.4,0,0.5-0.1C445.6,523.4,445.8,523.3,446,523.1z"/>
	</g>
	<polygon id="XMLID_7_" fill="#02293F" points="481.1,548.1 511.7,498.2 526.8,445.1 543.5,502.1 561,555.9 576.4,627.6 579.2,690 
		481.1,690 	"/>
	<g id="XMLID_27_">
		<path id="XMLID_28_" fill="#053449" d="M1476.5,603.3c0,30.8,0,61.7,0,92.5c-71.9,0-143.7,0-215.6,0c0-29.5,0-59,0-88.5
			c0.2,0.4,0.4,0.7,0.5,1.1c0.2-0.1,0.6-0.2,0.7-0.3c0.3,0.8,0.5,1.3,0.7,1.7c-0.2,1-0.3,1.8-0.4,2.7c0.1,0.1,0.2,0.2,0.3,0.3
			c0.3-0.4,0.6-0.8,0.9-1.3c0,0.1,0.1,0.3,0.2,0.7c0.1-0.8,0.2-1.4,0.3-2c0.2,0.1,0.3,0.1,0.3,0.2c0.6,1,0.6,1,1.3-0.3
			c0-0.1,0.1-0.1,0.1-0.2c0.2,0.2,0.3,0.4,0.6,0.8c-0.2-1.7,0.4-1.9,1.2-2c0,0.3,0,0.6,0.1,0.8c0.1,0,0.1,0.1,0.2,0.1
			c0.2-0.6,0.4-1.2,0.6-1.9c0.1,0.2,0.3,0.3,0.5,0.5c0.1-0.5,0.2-1.1,0.4-1.9c0.3,0.6,0.5,1.1,0.8,1.7c0-0.9,0.6-1.4,0.3-2.5
			c-0.2-0.6,0.6-1.9,1-2.8c0.3-0.6,0.7-1.1,1.1-1.6c0.1-0.7,0.1-1.4,0.2-2.1c0.4-0.2,0.7-0.4,1-0.6c0.2,0.6,0.3,1.2,0.6,1.9
			c0.2-0.5,0.2-0.8,0.4-1.3c0.2,0.8,0.4,1.3,0.6,2c0.3-1.2,0.5-2.1,0.8-3.1c0,0.1,0.1,0.2,0.1,0.2c0.4-0.4,0.8-0.8,1.3-1.2
			c0.4,1.5,0.7,2.9,1.1,4.4c1,0.1,1.2,0.4,0.9,2.5c0.2,0,0.6-0.1,0.6,0.1c0.4,1.2,0.9,0.7,1.4,0.3c0.2,2.4,0.2,2.4-0.1,3
			c-0.4,1-0.4,1.2,0.2,1.3c0.3-0.5,0.6-0.8,0.7-1c0.3-0.5,0.5-0.8,0.6-1.1c0.1,0,0.2,0.1,0.3,0.1c0,1.3,0,2.7,0,4
			c0.2-0.2,0.5-0.4,0.7-0.6c0.1,0,0.2,0.1,0.2,0.1c-0.5,1.7-1,3.4-0.2,5.3c0.1-0.3,0.2-0.7,0.3-1c0.3,1.3,0.5,2.3,1.1,3
			c0.6-0.9-0.7-2.2,0.3-2.6c0-1,0-1.8,0-2.7c0.3,0.1,0.5,0.1,0.6,0.1c0.3-0.7,0.6-1.2,0.9-1.8c0,0-0.1-0.2-0.2-0.3
			c0.3-0.3,0.6-0.4,0.7-0.7c0.4-0.6,0.8-1.3,1.1-2c0.3-0.6,0.6-1.4,1-1.9c0.3-0.3,0.7-0.4,1-0.6c0,0,0.1,0.5,0.2,0.9
			c0.5-0.3,0.7-1.1,1.2-1.5c0.5-0.4,0.7-1.8,0.7-2.7c0-1.1,0.7-1.4,0.9-2.3c0.1,0.3,0.2,0.7,0.4,1.2c0.2-0.4,0.3-0.8,0.6-1.4
			c0.2,0.9,0.3,1.4,0.4,2c0.6-1.1,1.1-2.1,1.7-3c0.3-0.4,0.6-0.7,0.9-1.1c0,0.3,0.1,0.7,0.1,1c0,0.1,0.1,0.2,0.1,0.2
			c1,0.3,0.2,2.7,1.4,2.8c0,0,0,0.1,0.1,0.2c0.3,0.9,0.7,1.8,0.3,2.9c0,0.1,0.1,0.3,0.2,0.5c0.2-0.3,0.3-0.5,0.4-0.7
			c0.4,0.7,0.8,1.3,1.4,2.2c0,0.5,0.6,2.7,1.1,3c0.4-0.9,0.9-1.8,1.4-3c0.2,0.8,0.5,1.5,0.7,2.2c-0.1,0.1-0.1,0.2-0.2,0.2
			c0.3,0,0.5,0.1,0.8,0.1c-0.1,2.7-0.1,2.9,1.1,3.6c0,0.7,0,1.4,0,2.1c0.1,0,0.2,0,0.2,0c0.1-0.2,0.2-0.4,0.2-0.6
			c0-0.8-0.1-1.7,0.7-1.8c0.3,0,0.8-0.7,0.9-1.3c0.2-1,0.6-1.2,1-1c0.2-0.5,0.3-1.3,0.5-1.4c0.4-0.2,0.8,0.1,1.2,0.2
			c-0.1-0.9,0.3-1.6,0.9-2.2c0.1-0.1,0.3-0.1,0.4-0.2c0.1-0.4,0.2-0.8,0.2-1.2c0,0,0,0,0,0c0-0.7,0.1-1.4,0.1-2.2
			c0.1,0,0.1-0.1,0.2-0.1c0.2,0.7,0.4,1.3,0.7,2c-0.1-2.1,0.9-2.9,1.9-3.9c0.3,0.8,0.2,1.9,0.9,2.2c0,0,0,0.3,0,0.5
			c-0.2,0.9-0.3,1.8-0.6,3c0.4-0.5,0.7-0.8,0.8-1c0.7,0.8,1.2,1.4,1.8,2.1c-0.4,2.1-0.4,2.1-1.2,2.6c0.3,0.2,0.5,0.2,0.7,0.4
			c0.2,0.2,0.3,0.5,0.3,0.8c0,0.5,0,0.9-0.1,1.4c0.1,0,0.1,0,0.2,0c-0.1,0.5-0.2,1-0.2,1.2c-0.4,0.1-0.8,0-1,0.3
			c-0.5,1,0.3,1.5,0.4,2.3c0.5-0.2,1-0.3,1.4-0.4c0.2-0.6-0.2-1.7,0.6-1.5c0.1,0.4,0.2,0.7,0.3,1.2c0.7-1.1,1.4-2.2,2.2-3.4
			c0.1-1.5,0.1-3.3,1.2-4.8c0.1,0.8,0.3,1.4,0.4,2.1c0.1,0,0.2,0,0.3,0c-0.1-1.9-0.1-3.8,0.8-5c0.3-0.2,0.5-0.4,0.9-0.7
			c0.2,0.9,0.3,1.8,0.4,2.6c0.1,0,0.4-0.1,0.6-0.2c0,0.4,0,0.7,0,1.1c-0.1,0.6-0.2,1.2-0.3,2c0.3,0,0.6,0.1,0.9,0.1
			c0,0.2,0,0.4,0,0.9c0.5-0.4,0.9-0.7,1.5-1.1c-0.4,1.7-0.7,3.1-1.1,4.7c0.2,0.2,0.6,0.4,0.9,0.6c0-0.2,0-0.3-0.1-0.5
			c0.2-0.3,0.5-0.8,0.7-0.8c0.4,0,0.7,0.4,1,0.6c-0.2,0.6-0.5,1.2-0.7,1.8c-0.1,0-0.2-0.1-0.2-0.1c0.1,0.2,0.2,0.5,0.3,0.6
			c0.4-0.4,0.8-0.7,1.2-1.1c0.1,0.1,0.1,0.3,0.2,0.4c-0.4,0.5-0.8,1.1-1.2,1.6c0.1,0.1,0.3,0.3,0.6,0.4c0,0.6,0,1.1,0,1.8
			c-0.2,0.2-0.6,0.6-0.9,0.9c0.2,0.7,1.4,0.4,0.8,1.8c0,0,0,0.1,0.1,0.2c0.3,1,0.6,1.9,1,2.9c1.1-0.9,1.1-0.9,0.6-1.9
			c0.2-0.2,0.3-0.5,0.5-0.7c-0.1-0.1-0.2-0.2-0.3-0.2c0.1-0.3,0.2-0.5,0.3-0.8c0.1-0.6,0.2-1.2,0.4-1.8c0-0.1,0.3,0,0.4,0
			c0.1,0,0.1,0.2,0.2,0.4c0.1-0.2,0.2-0.5,0.1-0.6c-0.2-0.4-0.4-0.7-0.7-1c-0.4-0.4-0.8-0.7-1.2-1c0.5-1.1,0.8-1.8,1.2-2.7
			c0-0.1-0.2-0.4-0.4-1c0.5,0,0.9,0,1.4,0c-0.1-0.7-0.3-1.3-0.4-1.9c-0.3,0.3-0.5,0.6-0.8,0.9c-0.2-0.4-0.3-0.8-0.5-1.3
			c0.1-0.1,0.3-0.2,0.6-0.3c-0.2-0.6-0.4-1.1-0.6-1.6c0.4-0.1,0.7-0.2,1-0.3c-0.2-0.8-0.7-1.1-0.7-2.1c0-1,0.1-1.3,0.4-1.6
			c0.5,0.4,0.9,0.8,1.3,0.9c0.2,0.1,0.4-0.4,0.8-0.8c0.3,0.3,0.7,0.7,1.1,1.1c0.1-0.6,0.3-1.2,0.4-1.8c-0.1-0.1-0.5-0.1-0.5-0.2
			c0-0.5,0.1-1.1,0.2-1.6c0-0.2,0.4-0.1,0.8-0.1c-0.1-0.8-0.1-1.7-0.2-2.6c0.1,0.1,0.2,0.1,0.2,0.2c0.2-0.4,0.6-0.7,0.6-1.2
			c0.1-0.8,0-0.9,0.6-0.8c0.1-1.7,0.3-3.2,1.3-4.3c0.2,0.2,0.5,0.4,0.8,0.7c0-0.4,0.1-0.7,0.1-1.3c0.4,0.2,0.7,0.4,1.1,0.6
			c0.1-0.4,0.2-0.8,0.3-1.2c0.3,0,0.6-0.1,0.9-0.1c0-0.2,0-0.3,0-0.5c0-0.1,0.1-0.3,0.2-0.5c1.1,1.2,0.1,2.6,0.3,4
			c0.4-0.7,0.8-1.4,1.2-2c0.1-0.2,0.3-0.5,0.4-0.4c0.2,0.1,0.4,0.4,0.4,0.7c0.1,0.9,0.3,1.7,0,2.6c-0.2,0.5,0,1.4,0.2,2
			c0.2,0.7,0.7,1.3,0.3,2.2c0,0,0.2,0.3,0.2,0.2c0.6-1,1.1-1.9,1.7-2.7c0-0.1,0.3,0.2,0.5,0.3l0.2,2.6c0.1,0.5,0.1,1,0.2,1.6
			c0.1,0,0.1,0,0.2,0c0.1-0.5,0.3-1,0.4-1.5c0.5,0.2,0.9,0.4,1.3,0.6c0.4-0.8,0.8-1.6,1.3-2.6c0.3,0.9,0.8,1.6,0.4,2.6
			c0,0.1,0,0.4,0,0.4c0.7,0.5,0.1,1.3,0.2,2.1c0.4-0.1,0.8-0.3,1.1-0.4c0.3,1.3-0.9,2.1-0.4,3.6c0.3-0.2,0.6-0.4,0.8-0.6
			c0.4,0.7,0.1,1.2-0.2,1.7c-0.4,0.6-0.4,1.5-0.1,1.9c0.4,0.5,0.2,0.9,0.1,1.4c-0.3,1.4-0.1,2.2,0.8,2.8c-0.1,2.4,0,2.7,1,2.8
			c0.3-0.5,0.6-1.3,0.6-1.2c0.7,0.7,0.9-0.3,1.2-1c0.8,1.2,0.1,2.3,0,3.5c1.1,0,1.8-0.9,2.5-1.9c0.2-0.3,0.3-0.6-0.1-1
			c-0.1-0.1,0-0.8,0.1-1.3c0-0.2,0.1-0.4,0.1-0.6c-0.2-1.7,0.1-2.6,1.2-3.5c0.4-0.3,0.8-1.4,0.7-1.7c-0.3-0.8-0.1-1,0.2-1.5
			c0.4-0.6,0.6-1.3,1-0.4c0.3-0.3,0.6-0.8,0.8-0.8c0.2,0.1,0.4,0.7,0.7,1.2c0.2-1.1-0.2-2.1,0.4-2.7c0.4-0.4,0.9-0.9,1.4-1
			c0.5,0,1.1,0.4,0.9,1.5c0.4-0.6,0.7-1.1,1.1-1.7c0.9,1.6,1.3,0.3,1.9-0.8c0.1,1.4,0.2,2.5,0.3,3.8c0.6-0.9,1-1.6,1.5-2.3
			c0.1,0.1,0.1,0.2,0.2,0.3c0.1-0.4,0.1-0.7,0.2-1.1c0.1,0,0.2,0,0.3,0c0.3,1.5,0.6,3,0.9,4.6c1.1-0.7,1.3-2.5,2.1-4.1
			c0.2,1.1,0.4,2,0.6,3.1c0.2-0.2,0.4-0.5,0.4-0.7c-0.1-0.7-0.2-1.3,0.3-1.7c0.3-0.2,0.5-0.7,0.8-1.3c0,0,0-0.3-0.1-0.6
			c0.1,0.1,0.2,0.1,0.2,0.2c0.2-0.3,0.4-0.6,0.5-0.9c0.1-0.2,0.2-0.3,0.3-0.5c0.1,0.2,0.1,0.3,0.2,0.5c0.3,0.6,0.7,1.1,1.1,1.8
			c0.1-0.5,0.1-0.9,0.2-1.1c0.4,0.1,0.8,0.1,1.2,0.2c0-0.6,0-1.1,0-1.7c0.2,0.3,0.4,0.5,0.6,0.7c0.1-0.5,0.2-1,0.2-1.5
			c0.6,1.8,0.7,2.3,0.6,3.7c0,0.2,0.1,0.5,0.2,0.7c0,0,0.1,0,0.2,0c0-0.4,0-0.7,0-0.9c0.4,0.2,0.8,0.3,1.2,0.5
			c0.1-0.6,0.2-1,0.3-1.6c0.3,0.6-0.2,1.9,0.7,1.6c-0.4,1.4-0.4,1.7,0.4,2c0.4,1.2-1,1.9-0.5,3c0.7-0.7,1.3-1.4,2-2.1
			c0.3,2.2,0.5,4,0.7,5.6c0.5,0.2,1,0.3,1.3,0.4c0.2-0.5,0.5-1.2,0.8-1.8c0.4-0.6,0.8-1.1,1.4-1.8c-0.1-1.2,0.7-0.7,1.3-0.9
			c-0.1-1-0.3-2,0.7-2.7c0.1,1.1,0.2,2.1,0.3,3.1c0.7-1.1,0.5-2.4,0.5-3.7c0-0.6,0.2-1.1,0.3-1.6c0.1-0.4,0.2-0.8,0.3-1.2
			c0.1-0.3,0.4-0.7,0.4-1c-0.1-0.7-0.4-1.4,0.3-1.9c0.1-0.1,0.1-0.3,0.2-0.4c0.1,0.2,0.2,0.3,0.3,0.5c0.1,0.8,0.2,1.6,0.4,2.4
			c0.1,0,0.2,0,0.3,0c-0.2-2.6,0.6-4.7,1.2-7.2c0.4,1,0.7,1.7,0.9,2.4c0.2,0.9,0.4,1.1,0.8,0.3c0.2-0.4,0.6-0.6,0.9-1
			c0.2,0.6,0.3,1.1,0.5,1.7c0,0.1,0,0.2,0,0.2c0,0.9,0.1,1.8,0.8,2.2c0.1,0.1,0.1,0.5,0.2,0.8c0.1,0.2,0.1,0.5,0.2,0.7
			c0.1-0.1,0.3-0.2,0.4-0.4c0.3-0.5,0.6-1.1,0.9-1.6c0.1,0,0.1,0.1,0.2,0.1c0,0.9,0.1,1.8,0.1,2.8c0.2,0.1,0.4,0.1,0.6,0.2
			c-0.1,0.9-0.3,1.7-0.4,2.6c0.3-0.2,0.5-0.3,0.9-0.5c0,0.9,0,1.5,0,2.2c0,0.3,0,0.7,0.1,0.8c0.9,0.5,0.4,1.4,0.3,2.3
			c0.5,0,0.9,0,1.5,0c-0.1,1.1-0.2,2.3-0.3,3.4c0.4-0.3,0.6-0.5,0.7-0.6c0.1-1.5,0.1-3,0.2-4.4c0.4,0.1,0.6,0.2,1,0.3
			c-0.3-0.6-0.4-1-0.6-1.3c0.3-0.7,0.6-1.4,1-2.3c0.2,0.6,0.3,1,0.4,1.4c0.4-0.3,0.8-0.6,1.2-1c-0.5-1.4,0.7-1.4,0.9-2.3
			c0.2,0.8,0.4,1.6,0.6,2.3c0.4-0.5,0.8-1.1,1.4-1.7c0.1,0.5,0.2,0.8,0.2,1.1c0.2,0.1,0.4,0.3,0.6,0.2c0.2,0,0.4-0.2,0.5-0.5
			c0.2-0.6,0.3-1.3,0.6-1.8c0.4-0.7,0.9-1.3,1.6-2.1c0.2-0.4,0.5-1.1,0.8-1.7c0.1,0,0.1,0.1,0.2,0.1c0,0.5,0.1,1,0.1,1.5
			c0.2,0,0.4,0,0.6-0.1c0,0.4-0.1,0.7-0.1,1.1c0.7,0,0.7,0.5,0.5,1.2c0.3,0.2,0.7,0.5,0.7,0.6c-0.2,1.7-0.4,3.3-0.8,4.9
			c-0.2,0.6-0.1,1,0.1,1.4c0.1,0.4,0.5,0.7,0.7,1.1c0.1-0.2,0.2-0.5,0.5-1.1c0.1,1.4,0.1,2.5,0.2,3.6c0.1,0,0.1,0.1,0.2,0.1
			c0.1-0.3,0.2-0.7,0.3-1c0.5-0.2,1-0.7,1.3-1.2c0.2-0.3,0.4-0.8,0.6-1.3c0.6,1.6,0.7,1.7,1.9,2.6c-0.3-1.3-0.5-2.6-0.8-3.6
			c0.5-0.3,1-0.3,1.1-0.6c0.2-0.3,0.1-1,0.2-1.3c0-0.9-0.1-1.6-0.1-2.7c0.5,0.6,0.8,1,0.9,1.2c0.2-1,0.4-2.1,0.7-3.3
			c0.7,0.6,1.3,1.3,1-0.5c0-0.1,0.1-0.2,0.1-0.3c0.3-1.6,0.6-3.1,0.9-4.7c0.1-0.5,0.1-1.2,0.3-1.3c0.7-0.6,1.4-1,2.2-1.5
			c0.1,0.5,0.2,0.8,0.3,1.4c0-0.7,0.1-1.1,0.1-1.6c1,0.9,0.4-0.6,0.7-0.9c0.2,0.1,0.4,0.2,0.6,0.3c0.1-0.3,0.1-0.5,0.2-0.9
			c0.6,0.8,1,1.1,1.3-0.3c0.3,0.7,0.5,1.5,0.6,2.2c0.1,0.9,0.1,1.8,0.1,2.7c0.2-0.1,0.4-0.1,0.8-0.3c-0.2,1.4-0.4,2.6-0.6,3.9
			c0.4,0.1,0.8,0.9,1.2-0.3c0.2-0.6,0.9-0.7,1.5-1.2c0-1.6,1.5-0.5,1.8-1.9c0.2,0.9,0.4,1.5,0.6,2.3c0.3-0.3,0.6-0.7,0.9-1.2
			c0.4,0.7-0.2,2.5,1.2,2.6c-0.1,0.8-0.2,1.5-0.3,2.2c0,0.3,0,0.8,0.1,1c0.2,0.2,0.5,0.2,0.8,0.3c0-0.3,0-0.6,0.1-0.9
			c0.1-0.8,0.3-1.5,0.5-2.6c0.3,0.7,0.4,1.1,0.4,1.2c0.5-0.3,1-0.6,1.5-0.9c1-0.6,0.4,1.7,1.1,1.3c0,0.6,0,1.1-0.1,1.7
			c0.1,0,0.1,0.1,0.2,0.1c0.2-0.3,0.5-0.6,0.7-0.9c0.1,1.7,0.2,3.3,0.3,5.3c0.4-0.8,0.7-1.4,1-2c0.1,0.1,0.2,0.2,0.3,0.3
			c0.1,0.5,0.1,0.9,0.2,1.5c0.4-0.2,0.7-0.3,0.9-0.5c0.5,1.1-0.3,2.6,0.6,3.8c0.1-0.7,0.1-1.1,0.2-1.4c0.1-0.5,0.3-1.1,0.5-1.5
			c0.1-0.2,0.6-0.1,0.7,0.1c0.3,0.7,0.4,1.1,0.9,0.3c0.1-0.2,0.4-0.1,0.6-0.2c0-0.3,0-0.6,0-1.2c0.2,0.4,0.3,0.5,0.4,0.7
			c0.2,0.6,0.2,1.5,0.5,1.7c0.6,0.5,0.5,1.6,0.4,1.7c-0.6,0.5,0,2.1-0.9,2.1c0,0.4-0.1,1,0.1,1.2c0.3,0.5,0.7,0.9,1,1.3
			c0.1-1.9,0.1-4,1.3-5.6c0.1,0.3,0.2,0.6,0.3,0.9c1.1-1.3,1.1-1.3,1.4-0.7c0.3-1.1,0.7-2.3,1-3.6c0.2,0.1,0.3,0.2,0.4,0.2
			c0-0.1-0.1-0.2-0.1-0.3c0.4-0.7,0.8-1.4,1.2-2.1c0.2,0.3,0.3,0.4,0.3,0.6c0.5,1.4-0.1,2.9,0.1,4.4c0.2-0.1,0.5-0.1,0.7-0.1
			c0.2-0.4,0.3-0.8,0.4-1c0.2-0.2,0.4-0.3,0.8-0.6c1.1,0.6,0,2.1,0.2,3.3c0.3-0.3,0.5-0.5,0.9-0.8c0,1.5-0.7,2.1-0.9,2.7
			c0.1,0.7,0.2,1.1,0.3,1.6c0,0,0.1,0.1,0.1,0c0.3-0.9,0.6-1.9,1.2-2.4c-0.4-1.3,0.5-1.6,0.8-2.4c0.1-0.2,0.2-0.4,0.3-0.6
			c0.3-0.6,0.6-1.3,0.9-1.9c0.1,0.1,0.2,0.1,0.2,0.2c0.1,0.7,0.2,1.5,0.2,2c0.3-0.5,0.6-0.9,0.7-1.2c0.3-1,0.3-2.3,0.7-2.7
			c0.8-0.8,1.2-1.5,1.2-2.9c0-1.2,0.5-1.7,1.1-1.6c0.2-0.7,0.4-1.4,0.6-2.4c0.3,0.6,0.6,1,0.8,1.5c0.5-0.8,0.7-0.6,1,0.7
			c0.2-0.1,0.5-0.4,0.7-0.3c0.2,0,0.4,0.4,0.5,0.6c0.1,0.2,0.1,0.6,0.1,0.6c0.2,0,0.4,0,0.5-0.1
			C1476.1,603.6,1476.3,603.4,1476.5,603.3z"/>
	</g>
	<path id="XMLID_10_" fill="#053449" d="M125.4,558c-0.2,0.1-0.4,0.1-0.5,0.1c0,0,0-0.3-0.1-0.4c-0.1-0.2-0.3-0.4-0.5-0.4
		c-0.2,0-0.5,0.1-0.7,0.2c-0.3-0.9-0.5-1-1-0.5c-0.2-0.3-0.5-0.6-0.8-1c-0.2,0.6-0.4,1.1-0.6,1.6c-0.6-0.1-1.1,0.3-1.1,1.1
		c0,0.9-0.4,1.4-1.2,1.9c-0.4,0.3-0.5,1.1-0.7,1.8c-0.2,0.2-0.4,0.5-0.7,0.8c-0.1-0.4-0.2-0.9-0.2-1.4c-0.1,0-0.2-0.1-0.2-0.1
		c-0.3,0.4-0.6,0.8-0.9,1.3c-0.1,0.1-0.2,0.3-0.3,0.4c-0.3,0.5-1.2,0.8-0.8,1.6c-0.6,0.4-0.9,1-1.2,1.6c0,0-0.1,0-0.1,0
		c-0.1-0.3-0.2-0.6-0.3-1c0.2-0.4,1-0.8,0.9-1.8c-0.4,0.2-0.6,0.4-0.9,0.6c-0.3-0.8,0.8-1.8-0.2-2.2c-0.4,0.2-0.6,0.3-0.8,0.4
		c-0.2,0.1-0.3,0.4-0.4,0.7c-0.1,0-0.4,0.1-0.7,0.1c-0.2-1,0.4-2-0.1-2.9c-0.1-0.1-0.2-0.2-0.3-0.4c-0.4,0.5-0.8,1-1.2,1.4
		c0,0.1,0.1,0.1,0.1,0.2c-0.1,0-0.3-0.1-0.4-0.2c-0.3,0.8-0.7,1.6-1,2.4c-0.4-0.4-0.4-0.4-1.4,0.5c-0.1-0.2-0.2-0.4-0.3-0.6
		c-1.2,1-1.2,2.5-1.3,3.7c-0.3-0.3-0.7-0.5-1-0.9c-0.1-0.2-0.1-0.5-0.1-0.8c1,0,0.3-1.1,0.9-1.4c0.1,0,0.2-0.8-0.4-1.1
		c-0.3-0.1-0.3-0.7-0.5-1.1c-0.1-0.1-0.2-0.2-0.4-0.5c0,0.4,0,0.5,0,0.8c-0.2,0-0.5,0-0.6,0.1c-0.5,0.5-0.6,0.3-0.9-0.2
		c-0.1-0.1-0.6-0.2-0.7-0.1c-0.2,0.3-0.4,0.6-0.5,1c-0.1,0.2-0.1,0.5-0.2,1c-1-0.8-0.2-1.8-0.6-2.5c-0.3,0.1-0.6,0.2-0.9,0.3
		c-0.1-0.4-0.2-0.7-0.2-1c-0.1-0.1-0.2-0.1-0.3-0.2c-0.3,0.4-0.6,0.8-1,1.3c-0.1-1.3-0.2-2.4-0.3-3.5c-0.3,0.2-0.5,0.4-0.7,0.6
		c-0.1,0-0.1-0.1-0.2-0.1c0-0.3,0-0.7,0.1-1.1c-0.8,0.3-0.2-1.3-1.1-0.9c-0.5,0.2-1,0.4-1.5,0.6c0-0.1-0.2-0.3-0.4-0.8
		c-0.2,0.7-0.4,1.2-0.5,1.7c-0.1,0.2,0,0.4-0.1,0.6c-0.3-0.1-0.6-0.1-0.8-0.2c-0.1-0.1-0.2-0.4-0.1-0.6c0.1-0.5,0.2-0.9,0.3-1.5
		c-1.4,0-0.7-1.2-1.2-1.7c-0.3,0.3-0.6,0.6-0.9,0.8c-0.2-0.5-0.3-0.9-0.6-1.5c-0.4,1-1.9,0.2-1.8,1.3c-0.6,0.3-1.3,0.4-1.5,0.8
		c-0.5,0.8-0.9,0.3-1.2,0.2c0.2-0.8,0.4-1.7,0.6-2.6c-0.4,0.1-0.5,0.1-0.8,0.2c0-0.6,0-1.2-0.1-1.8c-0.1-0.5-0.3-1-0.6-1.5
		c-0.3,0.9-0.8,0.8-1.3,0.2c-0.1,0.3-0.1,0.4-0.2,0.6c-0.2-0.1-0.4-0.1-0.6-0.2c-0.3,0.2,0.3,1.2-0.7,0.6c0,0.3-0.1,0.6-0.1,1
		c-0.1-0.4-0.2-0.6-0.3-0.9c-0.8,0.3-1.5,0.6-2.2,1c-0.2,0.1-0.2,0.6-0.3,0.9c-0.3,1-0.6,2.1-0.9,3.1c0,0.1-0.1,0.2-0.1,0.2
		c0.3,1.2-0.3,0.8-1,0.3c-0.2,0.8-0.4,1.5-0.7,2.2c-0.2-0.2-0.5-0.4-0.9-0.8c0.1,0.7,0.1,1.2,0.1,1.8c0,0.3,0,0.7-0.2,0.9
		c-0.2,0.2-0.6,0.2-1.1,0.4c0.2,0.7,0.5,1.6,0.8,2.4c-1.1-0.6-1.2-0.6-1.9-1.7c-0.2,0.3-0.4,0.6-0.6,0.8c-0.4,0.3-0.8,0.6-1.3,0.8
		c-0.1,0.2-0.2,0.5-0.3,0.7c-0.1,0-0.1,0-0.2-0.1c-0.1-0.7-0.1-1.4-0.2-2.4c-0.3,0.4-0.4,0.6-0.5,0.7c-0.3-0.3-0.6-0.4-0.7-0.7
		c-0.1-0.2-0.2-0.5-0.1-0.9c0.4-1,0.6-2.2,0.8-3.3c0-0.1-0.4-0.2-0.7-0.4c0.2-0.4,0.2-0.8-0.5-0.8c0-0.3,0.1-0.5,0.1-0.7
		c-0.2,0-0.4,0-0.6,0c0-0.4-0.1-0.7-0.1-1c-0.1,0-0.1,0-0.2-0.1c-0.3,0.5-0.6,0.9-0.8,1.2c-0.6,0.6-1.2,0.9-1.6,1.4
		c-0.3,0.3-0.4,0.8-0.6,1.2c-0.1,0.1-0.3,0.3-0.5,0.3c-0.2,0-0.4-0.1-0.6-0.2c-0.1-0.2-0.1-0.4-0.2-0.7c-0.5,0.5-1,0.8-1.4,1.2
		c-0.2-0.5-0.4-1-0.6-1.5c-0.3,0.6-1.5,0.6-0.9,1.6c-0.4,0.2-0.8,0.4-1.2,0.7c-0.1-0.3-0.2-0.5-0.4-1c-0.4,0.6-0.7,1.1-1,1.6
		c0.1,0.2,0.3,0.4,0.6,0.9c-0.4-0.1-0.6-0.1-1-0.2c-0.1,1-0.1,1.9-0.2,2.9c-0.1,0-0.4,0.2-0.7,0.4c0.1-0.8,0.2-1.5,0.3-2.3
		c-0.6,0-1,0-1.5,0c0.1-0.6,0.6-1.2-0.3-1.5c-0.1,0-0.1-0.3-0.1-0.5c0-0.4,0-0.9,0-1.5c-0.4,0.2-0.6,0.2-0.9,0.4
		c0.1-0.6,0.3-1.1,0.4-1.7c-0.2-0.1-0.4-0.1-0.6-0.2c0-0.6-0.1-1.3-0.1-1.9c-0.1,0-0.1-0.1-0.2-0.1c-0.3,0.4-0.6,0.7-0.9,1.1
		c-0.1,0.1-0.2,0.2-0.4,0.3c-0.1-0.2-0.1-0.3-0.2-0.5c-0.1-0.2-0.1-0.5-0.2-0.5c-0.7-0.3-0.7-0.9-0.8-1.5c0-0.1,0-0.1,0-0.2
		c-0.1-0.4-0.3-0.8-0.5-1.1c-0.3,0.2-0.7,0.4-0.9,0.6c-0.5,0.6-0.6,0.4-0.8-0.2c-0.2-0.5-0.5-1-0.9-1.6c-0.5,1.7-1.4,3.1-1.2,4.8
		c-0.1,0-0.2,0-0.3,0c-0.1-0.5-0.2-1.1-0.4-1.6c0-0.1-0.2-0.2-0.3-0.3c-0.1,0.1-0.1,0.2-0.2,0.3c-0.7,0.3-0.3,0.8-0.3,1.3
		c0,0.2-0.3,0.4-0.4,0.7c-0.1,0.3-0.2,0.5-0.3,0.8c-0.1,0.4-0.3,0.7-0.3,1.1c0,0.9,0.2,1.8-0.5,2.5c-0.1-0.7-0.2-1.3-0.3-2.1
		c-1,0.5-0.8,1.1-0.7,1.8c-0.6,0.1-1.3-0.2-1.3,0.6c-0.6,0.5-1,0.8-1.4,1.2c-0.4,0.4-0.6,0.9-0.8,1.2c-0.4-0.1-0.8-0.2-1.3-0.3
		c-0.2-1.1-0.4-2.3-0.7-3.7c-0.7,0.5-1.3,0.9-2,1.4c-0.5-0.7,1-1.2,0.5-2c-0.8-0.2-0.9-0.4-0.4-1.4c-0.9,0.2-0.4-0.7-0.7-1.1
		c-0.1,0.4-0.2,0.7-0.3,1.1c-0.4-0.1-0.8-0.2-1.2-0.3c0,0.1,0,0.4,0,0.6c-0.1,0-0.2,0-0.2,0c-0.1-0.1-0.2-0.3-0.2-0.5
		c0-1,0-1.2-0.6-2.5c-0.1,0.3-0.2,0.6-0.2,1c-0.2-0.1-0.3-0.3-0.6-0.5c0,0.4,0,0.8,0,1.2c-0.4,0-0.7-0.1-1.2-0.1
		c0,0.1-0.1,0.4-0.2,0.7c-0.4-0.4-0.7-0.8-1.1-1.2c-0.1-0.1-0.1-0.2-0.2-0.3c-0.1,0.1-0.2,0.2-0.3,0.3c-0.2,0.2-0.4,0.4-0.5,0.6
		c-0.1,0-0.2-0.1-0.2-0.1c0,0.2,0.1,0.4,0.1,0.4c-0.3,0.4-0.5,0.7-0.8,0.8c-0.5,0.3-0.5,0.7-0.3,1.2c0,0.1-0.3,0.3-0.4,0.5
		c-0.2-0.7-0.4-1.3-0.6-2.1c-0.8,1-0.9,2.3-2.1,2.7c-0.3-1.1-0.6-2.1-0.9-3.1c-0.1,0-0.2,0-0.3,0c-0.1,0.2-0.1,0.5-0.2,0.7
		c-0.1-0.1-0.1-0.1-0.2-0.2c-0.4,0.5-0.9,0.9-1.5,1.6c-0.1-0.8-0.2-1.6-0.3-2.5c-0.6,0.7-1,1.6-1.9,0.5c-0.4,0.4-0.8,0.8-1.1,1.1
		c0.2-0.7-0.4-1-0.9-1c-0.5,0-1,0.4-1.4,0.6c-0.5,0.4-0.2,1-0.4,1.8c-0.3-0.4-0.5-0.8-0.7-0.8c-0.2,0-0.5,0.3-0.8,0.5
		c-0.4-0.6-0.6-0.1-1,0.3c-0.3,0.3-0.5,0.5-0.2,1c0.1,0.2-0.4,0.9-0.7,1.1c-1,0.6-1.4,1.2-1.2,2.3c0,0.1-0.1,0.3-0.1,0.4
		c0,0.3-0.2,0.8-0.1,0.9c0.3,0.2,0.3,0.4,0.1,0.6c-0.7,0.7-1.4,1.3-2.5,1.3c0.1-0.8,0.7-1.6,0-2.3c-0.3,0.5-0.5,1.1-1.2,0.6
		c0,0-0.4,0.5-0.6,0.8c-1-0.1-1.1-0.3-1-1.9c-0.9-0.4-1.1-0.9-0.8-1.9c0.1-0.3,0.3-0.6-0.1-0.9c-0.3-0.3-0.3-0.8,0.1-1.2
		c0.3-0.3,0.6-0.7,0.2-1.1c-0.3,0.1-0.5,0.2-0.8,0.4c-0.6-1,0.7-1.5,0.4-2.4c-0.3,0.1-0.7,0.2-1.1,0.3c0-0.6,0.5-1.1-0.2-1.4
		c0,0,0-0.2,0-0.3c0.4-0.7-0.1-1.1-0.4-1.7c-0.5,0.6-0.9,1.2-1.3,1.7c0,0-0.1,0-0.1,0v62.3c42,0,84,0,126,0c0-20.6,0-41.1,0-61.7
		C125.8,557.8,125.6,557.9,125.4,558z"/>
	<g id="XMLID_30_">
		<path id="XMLID_31_" fill="#053449" d="M913.3,569.6c0,20.6,0,41.1,0,61.7c-71.9,0-143.7,0-215.6,0c0-19.7,0-39.3,0-59
			c0.2,0.2,0.4,0.5,0.5,0.7c0.2-0.1,0.6-0.1,0.7-0.2c0.3,0.5,0.5,0.9,0.7,1.1c-0.2,0.7-0.3,1.2-0.4,1.8c0.1,0.1,0.2,0.1,0.3,0.2
			c0.3-0.3,0.6-0.5,0.9-0.8c0,0.1,0.1,0.2,0.2,0.5c0.1-0.5,0.2-0.9,0.3-1.3c0.2,0.1,0.3,0.1,0.3,0.1c0.6,0.7,0.6,0.7,1.3-0.2
			c0,0,0.1-0.1,0.1-0.1c0.2,0.1,0.3,0.3,0.6,0.5c-0.2-1.2,0.4-1.3,1.2-1.3c0,0.2,0,0.4,0.1,0.6c0.1,0,0.1,0,0.2,0.1
			c0.2-0.4,0.4-0.8,0.6-1.3c0.1,0.1,0.3,0.2,0.5,0.3c0.1-0.4,0.2-0.7,0.4-1.2c0.3,0.4,0.5,0.7,0.8,1.2c0-0.6,0.6-0.9,0.3-1.7
			c-0.2-0.4,0.6-1.3,1-1.8c0.3-0.4,0.7-0.8,1.1-1.1c0.1-0.5,0.1-1,0.2-1.4c0.4-0.2,0.7-0.3,1-0.4c0.2,0.4,0.3,0.8,0.6,1.3
			c0.2-0.3,0.2-0.5,0.4-0.9c0.2,0.5,0.4,0.9,0.6,1.4c0.3-0.8,0.5-1.4,0.8-2.1c0,0.1,0.1,0.1,0.1,0.2c0.4-0.3,0.8-0.5,1.3-0.8
			c0.4,1,0.7,1.9,1.1,2.9c1,0.1,1.2,0.3,0.9,1.7c0.2,0,0.6,0,0.6,0c0.4,0.8,0.9,0.5,1.4,0.2c0.2,1.6,0.2,1.6-0.1,2
			c-0.4,0.6-0.4,0.8,0.2,0.9c0.3-0.3,0.6-0.5,0.7-0.6c0.3-0.3,0.5-0.5,0.6-0.8c0.1,0,0.2,0,0.3,0.1c0,0.9,0,1.8,0,2.7
			c0.2-0.1,0.5-0.3,0.7-0.4c0.1,0,0.2,0.1,0.2,0.1c-0.5,1.1-1,2.3-0.2,3.5c0.1-0.2,0.2-0.4,0.3-0.7c0.3,0.9,0.5,1.5,1.1,2
			c0.6-0.6-0.7-1.5,0.3-1.7c0-0.7,0-1.2,0-1.8c0.3,0.1,0.5,0.1,0.6,0.1c0.3-0.4,0.6-0.8,0.9-1.2c0,0-0.1-0.1-0.2-0.2
			c0.3-0.2,0.6-0.3,0.7-0.5c0.4-0.4,0.8-0.9,1.1-1.3c0.3-0.4,0.6-0.9,1-1.3c0.3-0.2,0.7-0.3,1-0.4c0,0,0.1,0.4,0.2,0.6
			c0.5-0.2,0.7-0.7,1.2-1c0.5-0.3,0.7-1.2,0.7-1.8c0-0.8,0.7-1,0.9-1.5c0.1,0.2,0.2,0.5,0.4,0.8c0.2-0.3,0.3-0.5,0.6-1
			c0.2,0.6,0.3,0.9,0.4,1.3c0.6-0.8,1.1-1.4,1.7-2c0.3-0.3,0.6-0.5,0.9-0.7c0,0.2,0.1,0.5,0.1,0.7c0,0.1,0.1,0.1,0.1,0.1
			c1,0.2,0.2,1.8,1.4,1.8c0,0,0,0.1,0.1,0.1c0.3,0.6,0.7,1.2,0.3,1.9c0,0.1,0.1,0.2,0.2,0.4c0.2-0.2,0.3-0.4,0.4-0.5
			c0.4,0.5,0.8,0.9,1.4,1.5c0,0.3,0.6,1.8,1.1,2c0.4-0.6,0.9-1.2,1.4-2c0.2,0.5,0.5,1,0.7,1.4c-0.1,0.1-0.1,0.1-0.2,0.2
			c0.3,0,0.5,0.1,0.8,0.1c-0.1,1.8-0.1,1.9,1.1,2.4c0,0.5,0,1,0,1.4c0.1,0,0.2,0,0.2,0c0.1-0.1,0.2-0.3,0.2-0.4
			c0-0.5-0.1-1.1,0.7-1.2c0.3,0,0.8-0.5,0.9-0.8c0.2-0.7,0.6-0.8,1-0.7c0.2-0.4,0.3-0.8,0.5-0.9c0.4-0.1,0.8,0.1,1.2,0.1
			c-0.1-0.6,0.3-1.1,0.9-1.4c0.1-0.1,0.3-0.1,0.4-0.2c0.1-0.3,0.2-0.5,0.2-0.8c0,0,0,0,0,0c0-0.5,0.1-1,0.1-1.4
			c0.1,0,0.1-0.1,0.2-0.1c0.2,0.4,0.4,0.9,0.7,1.3c-0.1-1.4,0.9-2,1.9-2.6c0.3,0.5,0.2,1.3,0.9,1.5c0,0,0,0.2,0,0.3
			c-0.2,0.6-0.3,1.2-0.6,2c0.4-0.3,0.7-0.6,0.8-0.7c0.7,0.5,1.2,1,1.8,1.4c-0.4,1.4-0.4,1.4-1.2,1.7c0.3,0.1,0.5,0.2,0.7,0.3
			c0.2,0.1,0.3,0.4,0.3,0.5c0,0.3,0,0.6-0.1,0.9c0.1,0,0.1,0,0.2,0c-0.1,0.3-0.2,0.7-0.2,0.8c-0.4,0.1-0.8,0-1,0.2
			c-0.5,0.6,0.3,1,0.4,1.6c0.5-0.1,1-0.2,1.4-0.3c0.2-0.4-0.2-1.1,0.6-1c0.1,0.2,0.2,0.5,0.3,0.8c0.7-0.8,1.4-1.5,2.2-2.3
			c0.1-1,0.1-2.2,1.2-3.2c0.1,0.5,0.3,1,0.4,1.4c0.1,0,0.2,0,0.3,0c-0.1-1.3-0.1-2.5,0.8-3.4c0.3-0.2,0.5-0.3,0.9-0.5
			c0.2,0.6,0.3,1.2,0.4,1.7c0.1,0,0.4-0.1,0.6-0.1c0,0.2,0,0.5,0,0.7c-0.1,0.4-0.2,0.8-0.3,1.3c0.3,0,0.6,0.1,0.9,0.1
			c0,0.2,0,0.3,0,0.6c0.5-0.3,0.9-0.4,1.5-0.7c-0.4,1.1-0.7,2.1-1.1,3.2c0.2,0.1,0.6,0.3,0.9,0.4c0-0.1,0-0.2-0.1-0.3
			c0.2-0.2,0.5-0.5,0.7-0.5c0.4,0,0.7,0.3,1,0.4c-0.2,0.4-0.5,0.8-0.7,1.2c-0.1,0-0.2,0-0.2-0.1c0.1,0.2,0.2,0.3,0.3,0.4
			c0.4-0.3,0.8-0.5,1.2-0.7c0.1,0.1,0.1,0.2,0.2,0.3c-0.4,0.4-0.8,0.7-1.2,1.1c0.1,0.1,0.3,0.2,0.6,0.3c0,0.4,0,0.8,0,1.2
			c-0.2,0.2-0.6,0.4-0.9,0.6c0.2,0.4,1.4,0.2,0.8,1.2c0,0,0,0.1,0.1,0.1c0.3,0.6,0.6,1.3,1,1.9c1.1-0.6,1.1-0.6,0.6-1.3
			c0.2-0.2,0.3-0.3,0.5-0.5c-0.1-0.1-0.2-0.1-0.3-0.1c0.1-0.2,0.2-0.3,0.3-0.5c0.1-0.4,0.2-0.8,0.4-1.2c0,0,0.3,0,0.4,0
			c0.1,0,0.1,0.2,0.2,0.2c0.1-0.1,0.2-0.3,0.1-0.4c-0.2-0.2-0.4-0.5-0.7-0.7c-0.4-0.2-0.8-0.4-1.2-0.7c0.5-0.7,0.8-1.2,1.2-1.8
			c0-0.1-0.2-0.3-0.4-0.7c0.5,0,0.9,0,1.4,0c-0.1-0.4-0.3-0.9-0.4-1.2c-0.3,0.2-0.5,0.4-0.8,0.6c-0.2-0.3-0.3-0.5-0.5-0.9
			c0.1,0,0.3-0.1,0.6-0.2c-0.2-0.4-0.4-0.7-0.6-1.1c0.4-0.1,0.7-0.1,1-0.2c-0.2-0.5-0.7-0.7-0.7-1.4c0-0.7,0.1-0.9,0.4-1.1
			c0.5,0.3,0.9,0.5,1.3,0.6c0.2,0,0.4-0.3,0.8-0.5c0.3,0.2,0.7,0.4,1.1,0.7c0.1-0.4,0.3-0.8,0.4-1.2c-0.1,0-0.5-0.1-0.5-0.1
			c0-0.4,0.1-0.7,0.2-1.1c0-0.1,0.4,0,0.8-0.1c-0.1-0.5-0.1-1.1-0.2-1.7c0.1,0,0.2,0.1,0.2,0.1c0.2-0.3,0.6-0.5,0.6-0.8
			c0.1-0.5,0-0.6,0.6-0.6c0.1-1.1,0.3-2.2,1.3-2.9c0.2,0.1,0.5,0.3,0.8,0.5c0-0.3,0.1-0.5,0.1-0.9c0.4,0.1,0.7,0.3,1.1,0.4
			c0.1-0.3,0.2-0.5,0.3-0.8c0.3,0,0.6-0.1,0.9-0.1c0-0.1,0-0.2,0-0.3c0-0.1,0.1-0.2,0.2-0.3c1.1,0.8,0.1,1.7,0.3,2.7
			c0.4-0.5,0.8-0.9,1.2-1.3c0.1-0.1,0.3-0.3,0.4-0.3c0.2,0.1,0.4,0.3,0.4,0.4c0.1,0.6,0.3,1.1,0,1.8c-0.2,0.3,0,0.9,0.2,1.4
			c0.2,0.5,0.7,0.9,0.3,1.5c0,0,0.2,0.2,0.2,0.2c0.6-0.6,1.1-1.2,1.7-1.8c0,0,0.3,0.1,0.5,0.2l0.2,1.7c0.1,0.3,0.1,0.7,0.2,1
			c0.1,0,0.1,0,0.2,0c0.1-0.3,0.3-0.7,0.4-1c0.5,0.1,0.9,0.3,1.3,0.4c0.4-0.5,0.8-1.1,1.3-1.7c0.3,0.6,0.8,1,0.4,1.7
			c0,0.1,0,0.3,0,0.3c0.7,0.3,0.1,0.8,0.2,1.4c0.4-0.1,0.8-0.2,1.1-0.3c0.3,0.9-0.9,1.4-0.4,2.4c0.3-0.1,0.6-0.3,0.8-0.4
			c0.4,0.5,0.1,0.8-0.2,1.1c-0.4,0.4-0.4,1-0.1,1.2c0.4,0.4,0.2,0.6,0.1,0.9c-0.3,0.9-0.1,1.5,0.8,1.9c-0.1,1.6,0,1.8,1,1.9
			c0.3-0.3,0.6-0.8,0.6-0.8c0.7,0.4,0.9-0.2,1.2-0.6c0.8,0.8,0.1,1.5,0,2.3c1.1,0,1.8-0.6,2.5-1.3c0.2-0.2,0.3-0.4-0.1-0.6
			c-0.1-0.1,0-0.6,0.1-0.9c0-0.1,0.1-0.3,0.1-0.4c-0.2-1.1,0.1-1.7,1.2-2.3c0.4-0.2,0.8-0.9,0.7-1.1c-0.3-0.5-0.1-0.7,0.2-1
			c0.4-0.4,0.6-0.9,1-0.3c0.3-0.2,0.6-0.6,0.8-0.5c0.2,0,0.4,0.5,0.7,0.8c0.2-0.7-0.2-1.4,0.4-1.8c0.4-0.3,0.9-0.6,1.4-0.6
			c0.5,0,1.1,0.3,0.9,1c0.4-0.4,0.7-0.7,1.1-1.1c0.9,1.1,1.3,0.2,1.9-0.5c0.1,1,0.2,1.7,0.3,2.5c0.6-0.6,1-1.1,1.5-1.6
			c0.1,0.1,0.1,0.1,0.2,0.2c0.1-0.2,0.1-0.5,0.2-0.7c0.1,0,0.2,0,0.3,0c0.3,1,0.6,2,0.9,3.1c1.1-0.5,1.3-1.7,2.1-2.7
			c0.2,0.7,0.4,1.4,0.6,2.1c0.2-0.2,0.4-0.4,0.4-0.5c-0.1-0.5-0.2-0.9,0.3-1.2c0.3-0.2,0.5-0.5,0.8-0.8c0,0,0-0.2-0.1-0.4
			c0.1,0,0.2,0.1,0.2,0.1c0.2-0.2,0.4-0.4,0.5-0.6c0.1-0.1,0.2-0.2,0.3-0.3c0.1,0.1,0.1,0.2,0.2,0.3c0.3,0.4,0.7,0.7,1.1,1.2
			c0.1-0.3,0.1-0.6,0.2-0.7c0.4,0,0.8,0.1,1.2,0.1c0-0.4,0-0.7,0-1.2c0.2,0.2,0.4,0.3,0.6,0.5c0.1-0.4,0.2-0.7,0.2-1
			c0.6,1.2,0.7,1.5,0.6,2.5c0,0.2,0.1,0.3,0.2,0.5c0,0,0.1,0,0.2,0c0-0.2,0-0.4,0-0.6c0.4,0.1,0.8,0.2,1.2,0.3
			c0.1-0.4,0.2-0.7,0.3-1.1c0.3,0.4-0.2,1.3,0.7,1.1c-0.4,1-0.4,1.1,0.4,1.4c0.4,0.8-1,1.3-0.5,2c0.7-0.5,1.3-0.9,2-1.4
			c0.3,1.4,0.5,2.7,0.7,3.7c0.5,0.1,1,0.2,1.3,0.3c0.2-0.3,0.5-0.8,0.8-1.2c0.4-0.4,0.8-0.7,1.4-1.2c-0.1-0.8,0.7-0.5,1.3-0.6
			c-0.1-0.7-0.3-1.3,0.7-1.8c0.1,0.7,0.2,1.4,0.3,2.1c0.7-0.7,0.5-1.6,0.5-2.5c0-0.4,0.2-0.7,0.3-1.1c0.1-0.3,0.2-0.5,0.3-0.8
			c0.1-0.2,0.4-0.5,0.4-0.7c-0.1-0.5-0.4-1,0.3-1.3c0.1,0,0.1-0.2,0.2-0.3c0.1,0.1,0.2,0.2,0.3,0.3c0.1,0.5,0.2,1.1,0.4,1.6
			c0.1,0,0.2,0,0.3,0c-0.2-1.7,0.6-3.1,1.2-4.8c0.4,0.7,0.7,1.1,0.9,1.6c0.2,0.6,0.4,0.8,0.8,0.2c0.2-0.3,0.6-0.4,0.9-0.6
			c0.2,0.4,0.3,0.8,0.5,1.1c0,0,0,0.1,0,0.2c0,0.6,0.1,1.2,0.8,1.5c0.1,0,0.1,0.3,0.2,0.5c0.1,0.2,0.1,0.3,0.2,0.5
			c0.1-0.1,0.3-0.2,0.4-0.3c0.3-0.4,0.6-0.7,0.9-1.1c0.1,0,0.1,0.1,0.2,0.1c0,0.6,0.1,1.2,0.1,1.9c0.2,0,0.4,0.1,0.6,0.2
			c-0.1,0.6-0.3,1.1-0.4,1.7c0.3-0.1,0.5-0.2,0.9-0.4c0,0.6,0,1,0,1.5c0,0.2,0,0.5,0.1,0.5c0.9,0.4,0.4,1,0.3,1.5c0.5,0,0.9,0,1.5,0
			c-0.1,0.8-0.2,1.5-0.3,2.3c0.4-0.2,0.6-0.3,0.7-0.4c0.1-1,0.1-2,0.2-2.9c0.4,0.1,0.6,0.1,1,0.2c-0.3-0.4-0.4-0.6-0.6-0.9
			c0.3-0.5,0.6-0.9,1-1.6c0.2,0.4,0.3,0.7,0.4,1c0.4-0.2,0.8-0.4,1.2-0.7c-0.5-0.9,0.7-0.9,0.9-1.6c0.2,0.5,0.4,1.1,0.6,1.5
			c0.4-0.3,0.8-0.7,1.4-1.2c0.1,0.3,0.2,0.6,0.2,0.7c0.2,0.1,0.4,0.2,0.6,0.2c0.2,0,0.4-0.2,0.5-0.3c0.2-0.4,0.3-0.9,0.6-1.2
			c0.4-0.5,0.9-0.8,1.6-1.4c0.2-0.2,0.5-0.7,0.8-1.2c0.1,0,0.1,0,0.2,0.1c0,0.3,0.1,0.6,0.1,1c0.2,0,0.4,0,0.6,0
			c0,0.2-0.1,0.4-0.1,0.7c0.7,0,0.7,0.4,0.5,0.8c0.3,0.1,0.7,0.3,0.7,0.4c-0.2,1.1-0.4,2.2-0.8,3.3c-0.2,0.4-0.1,0.7,0.1,0.9
			c0.1,0.3,0.5,0.5,0.7,0.7c0.1-0.1,0.2-0.3,0.5-0.7c0.1,1,0.1,1.7,0.2,2.4c0.1,0,0.1,0,0.2,0.1c0.1-0.2,0.2-0.5,0.3-0.7
			c0.5-0.2,1-0.5,1.3-0.8c0.2-0.2,0.4-0.5,0.6-0.8c0.6,1.1,0.7,1.1,1.9,1.7c-0.3-0.9-0.5-1.7-0.8-2.4c0.5-0.2,1-0.2,1.1-0.4
			c0.2-0.2,0.1-0.6,0.2-0.9c0-0.6-0.1-1.1-0.1-1.8c0.5,0.4,0.8,0.6,0.9,0.8c0.2-0.7,0.4-1.4,0.7-2.2c0.7,0.4,1.3,0.9,1-0.3
			c0-0.1,0.1-0.1,0.1-0.2c0.3-1,0.6-2.1,0.9-3.1c0.1-0.3,0.1-0.8,0.3-0.9c0.7-0.4,1.4-0.7,2.2-1c0.1,0.3,0.2,0.6,0.3,0.9
			c0-0.4,0.1-0.7,0.1-1c1,0.6,0.4-0.4,0.7-0.6c0.2,0.1,0.4,0.1,0.6,0.2c0.1-0.2,0.1-0.4,0.2-0.6c0.6,0.6,1,0.7,1.3-0.2
			c0.3,0.5,0.5,1,0.6,1.5c0.1,0.6,0.1,1.2,0.1,1.8c0.2-0.1,0.4-0.1,0.8-0.2c-0.2,0.9-0.4,1.8-0.6,2.6c0.4,0.1,0.8,0.6,1.2-0.2
			c0.2-0.4,0.9-0.5,1.5-0.8c0-1.1,1.5-0.3,1.8-1.3c0.2,0.6,0.4,1,0.6,1.5c0.3-0.2,0.6-0.5,0.9-0.8c0.4,0.5-0.2,1.7,1.2,1.7
			c-0.1,0.5-0.2,1-0.3,1.5c0,0.2,0,0.5,0.1,0.6c0.2,0.2,0.5,0.2,0.8,0.2c0-0.2,0-0.4,0.1-0.6c0.1-0.5,0.3-1,0.5-1.7
			c0.3,0.5,0.4,0.7,0.4,0.8c0.5-0.2,1-0.4,1.5-0.6c1-0.4,0.4,1.1,1.1,0.9c0,0.4,0,0.8-0.1,1.1c0.1,0,0.1,0.1,0.2,0.1
			c0.2-0.2,0.5-0.4,0.7-0.6c0.1,1.1,0.2,2.2,0.3,3.5c0.4-0.5,0.7-0.9,1-1.3c0.1,0.1,0.2,0.1,0.3,0.2c0.1,0.3,0.1,0.6,0.2,1
			c0.4-0.1,0.7-0.2,0.9-0.3c0.5,0.7-0.3,1.7,0.6,2.5c0.1-0.5,0.1-0.7,0.2-1c0.1-0.3,0.3-0.7,0.5-1c0.1-0.1,0.6-0.1,0.7,0.1
			c0.3,0.5,0.4,0.7,0.9,0.2c0.1-0.1,0.4-0.1,0.6-0.1c0-0.2,0-0.4,0-0.8c0.2,0.2,0.3,0.3,0.4,0.5c0.2,0.4,0.2,1,0.5,1.1
			c0.6,0.3,0.5,1.1,0.4,1.1c-0.6,0.3,0,1.4-0.9,1.4c0,0.3-0.1,0.6,0.1,0.8c0.3,0.3,0.7,0.6,1,0.9c0.1-1.2,0.1-2.7,1.3-3.7
			c0.1,0.2,0.2,0.4,0.3,0.6c1.1-0.9,1.1-0.9,1.4-0.5c0.3-0.8,0.7-1.6,1-2.4c0.2,0.1,0.3,0.1,0.4,0.2c0-0.1-0.1-0.1-0.1-0.2
			c0.4-0.5,0.8-0.9,1.2-1.4c0.2,0.2,0.3,0.3,0.3,0.4c0.5,1-0.1,1.9,0.1,2.9c0.2,0,0.5-0.1,0.7-0.1c0.2-0.3,0.3-0.5,0.4-0.7
			c0.2-0.2,0.4-0.2,0.8-0.4c1.1,0.4,0,1.4,0.2,2.2c0.3-0.2,0.5-0.3,0.9-0.6c0,1-0.7,1.4-0.9,1.8c0.1,0.5,0.2,0.7,0.3,1
			c0,0,0.1,0,0.1,0c0.3-0.6,0.6-1.3,1.2-1.6c-0.4-0.9,0.5-1.1,0.8-1.6c0.1-0.1,0.2-0.3,0.3-0.4c0.3-0.4,0.6-0.8,0.9-1.3
			c0.1,0,0.2,0.1,0.2,0.1c0.1,0.5,0.2,1,0.2,1.4c0.3-0.3,0.6-0.6,0.7-0.8c0.3-0.7,0.3-1.5,0.7-1.8c0.8-0.5,1.2-1,1.2-1.9
			c0-0.8,0.5-1.2,1.1-1.1c0.2-0.5,0.4-1,0.6-1.6c0.3,0.4,0.6,0.7,0.8,1c0.5-0.5,0.7-0.4,1,0.5c0.2-0.1,0.5-0.2,0.7-0.2
			c0.2,0,0.4,0.2,0.5,0.4c0.1,0.1,0.1,0.4,0.1,0.4c0.2,0,0.4,0,0.5-0.1C912.9,569.8,913.1,569.7,913.3,569.6z"/>
	</g>
	<g id="XMLID_26_">
		<path id="XMLID_39_" fill="#021A23" d="M1492.7,841c0,66.3,0,132.6,0,198.9c-231.7,0-463.5,0-695.2,0c0-63.5,0-126.9,0-190.3
			c0.6,0.8,1.2,1.5,1.7,2.3c0.8-0.2,1.8-0.5,2.4-0.6c1,1.6,1.7,2.8,2.2,3.6c-0.5,2.1-1,3.9-1.4,5.7c0.3,0.2,0.6,0.4,0.9,0.5
			c1-0.9,2-1.8,3.1-2.7c0.1,0.2,0.3,0.6,0.7,1.5c0.4-1.7,0.6-3,0.9-4.3c0.6,0.2,0.9,0.2,1.1,0.4c2.1,2.2,2,2.2,4.1-0.7
			c0.1-0.1,0.3-0.2,0.5-0.4c0.5,0.4,1.1,0.9,2.1,1.7c-0.7-3.8,1.4-4.1,3.9-4.3c0.1,0.7,0.1,1.3,0.2,1.8c0.2,0.1,0.4,0.2,0.7,0.2
			c0.6-1.3,1.2-2.6,1.8-4c0.5,0.3,0.9,0.7,1.5,1.1c0.4-1.2,0.7-2.3,1.2-4c0.9,1.4,1.6,2.4,2.5,3.7c0-1.9,1.9-2.9,0.9-5.4
			c-0.5-1.3,1.9-4.1,3.3-6c1-1.4,2.4-2.5,3.5-3.5c0.2-1.5,0.4-3.1,0.6-4.5c1.1-0.5,2.2-1,3.1-1.3c0.6,1.3,1.1,2.5,1.8,4.1
			c0.5-1.1,0.7-1.7,1.3-2.8c0.8,1.7,1.3,2.8,2.1,4.4c0.9-2.5,1.7-4.6,2.4-6.7c0.1,0.2,0.3,0.3,0.4,0.5c1.4-0.8,2.7-1.6,4.3-2.6
			c1.2,3.1,2.4,6.1,3.7,9.4c3.4,0.2,3.8,0.9,2.8,5.4c0.7,0,1.8-0.1,2,0.2c1.2,2.6,2.9,1.6,4.6,0.7c0.6,5.2,0.6,5.2-0.2,6.5
			c-1.3,2.1-1.2,2.5,0.6,2.9c1.1-1,1.8-1.8,2.2-2.1c0.9-1.1,1.5-1.8,2-2.5c0.3,0.1,0.7,0.1,1,0.2c0,2.9,0,5.8,0,8.6
			c0.7-0.4,1.5-0.9,2.2-1.4c0.3,0.1,0.5,0.2,0.8,0.3c-1.5,3.7-3.1,7.3-0.5,11.4c0.3-0.7,0.7-1.4,1-2.2c1,2.8,1.7,5,3.7,6.4
			c1.9-1.9-2.2-4.7,0.9-5.6c0-2.1,0-3.9,0-5.8c1.1,0.2,1.7,0.3,1.9,0.3c1.1-1.4,2-2.6,3-3.9c0.1,0.1-0.3-0.3-0.5-0.6
			c0.9-0.6,1.8-0.9,2.4-1.5c1.3-1.3,2.4-2.8,3.6-4.3c1.1-1.4,2-2.9,3.3-4.1c0.8-0.7,2.1-0.9,3.2-1.2c0.1,0,0.5,1.2,0.8,1.9
			c1.5-0.7,2.3-2.3,3.8-3.3c1.5-0.9,2.4-3.8,2.4-5.9c0-2.4,2.1-3.1,3-4.9c0.3,0.7,0.7,1.5,1.2,2.6c0.6-0.9,1.1-1.8,1.9-3.1
			c0.6,1.9,1,3,1.4,4.3c2-2.4,3.7-4.6,5.5-6.5c0.8-0.9,2-1.6,3-2.3c0.2,0.7,0.3,1.5,0.5,2.2c0,0.2,0.2,0.4,0.3,0.4
			c3.4,0.6,0.6,5.8,4.6,5.9c0.1,0,0.1,0.3,0.2,0.5c0.9,2,2.4,3.9,0.8,6.2c-0.1,0.2,0.3,0.7,0.5,1.2c0.5-0.6,1-1.1,1.4-1.6
			c1.4,1.5,2.7,2.9,4.4,4.8c-0.1,1.1,2.1,5.9,3.5,6.6c1.4-2,2.8-4,4.6-6.4c0.8,1.7,1.5,3.2,2.1,4.7c-0.2,0.2-0.4,0.3-0.7,0.5
			c0.8,0.1,1.6,0.2,2.4,0.3c-0.5,5.7-0.2,6.3,3.6,7.7c0,1.6,0,3.1,0,4.6c0.2,0,0.5,0,0.7,0c0.2-0.5,0.6-0.9,0.7-1.4
			c0.1-1.7-0.5-3.6,2.4-3.8c1-0.1,2.4-1.6,2.8-2.7c0.7-2.1,1.8-2.5,3.1-2.1c0.6-1.2,0.9-2.7,1.7-2.9c1.2-0.4,2.6,0.2,4,0.3
			c-0.4-2,0.9-3.5,2.8-4.7c0.4-0.2,1.1-0.2,1.2-0.5c0.4-0.8,0.5-1.7,0.8-2.6c-0.1,0-0.1,0-0.2,0c0.1-1.6,0.3-3.1,0.4-4.7
			c0.2-0.1,0.5-0.2,0.7-0.3c0.7,1.4,1.4,2.8,2.1,4.2c-0.4-4.4,2.9-6.3,6.1-8.4c0.9,1.6,0.5,4.1,2.9,4.8c0.1,0,0.1,0.7,0,1
			c-0.5,2-1.1,3.9-1.8,6.4c1.2-1,2.2-1.8,2.7-2.2c2.1,1.7,3.9,3.1,5.7,4.5c-1.4,4.6-1.4,4.6-4,5.5c0.9,0.4,1.7,0.5,2.2,0.9
			c0.5,0.4,1,1.1,1.1,1.8c0.1,1-0.1,2-0.2,3c0.2,0,0.4,0,0.5,0c-0.3,1.1-0.6,2.2-0.7,2.7c-1.3,0.2-2.6,0.1-3.1,0.6
			c-1.8,2,1,3.2,1.2,5c1.6-0.4,3.2-0.7,4.4-1c0.6-1.4-0.8-3.6,2.1-3.2c0.3,0.8,0.6,1.6,0.9,2.5c2.4-2.5,4.6-4.7,7.1-7.3
			c0.4-3.2,0.2-7.2,3.8-10.4c0.4,1.6,0.8,3.1,1.2,4.5c0.3,0,0.6,0,0.9,0c-0.5-4.2-0.4-8.2,2.5-10.9c1-0.5,1.6-0.8,2.8-1.5
			c0.5,2,1,3.9,1.4,5.6c0.4-0.1,1.2-0.2,2-0.4c0,0.8,0.1,1.6,0,2.3c-0.2,1.3-0.6,2.7-1,4.2c1,0.1,1.9,0.2,2.9,0.3c0,0.5,0,1-0.1,2
			c1.6-0.8,2.9-1.4,4.7-2.4c-1.3,3.6-2.4,6.7-3.6,10.2c0.8,0.3,1.9,0.8,3,1.3c-0.1-0.3-0.2-0.7-0.2-1c0.8-0.6,1.5-1.7,2.3-1.7
			c1.1,0,2.2,0.9,3.3,1.4c-0.7,1.3-1.5,2.6-2.2,3.9c-0.3-0.1-0.5-0.2-0.8-0.2c0.4,0.5,0.7,1,0.9,1.3c1.4-0.8,2.6-1.6,3.9-2.4
			c0.2,0.3,0.5,0.6,0.7,0.9c-1.2,1.1-2.5,2.3-3.9,3.5c0.4,0.2,1.1,0.5,1.8,0.9c0,1.2,0,2.4,0,3.9c-0.8,0.5-1.9,1.2-2.9,1.9
			c0.6,1.4,4.4,0.8,2.5,3.9c-0.1,0.1,0.1,0.3,0.2,0.5c1,2,2.1,4.1,3.1,6.1c3.6-2,3.6-2,1.8-4.2c0.6-0.5,1.1-1,1.7-1.6
			c-0.4-0.2-0.8-0.4-1-0.5c0.3-0.6,0.7-1.1,0.9-1.7c0.5-1.3,0.8-2.6,1.3-3.8c0.1-0.2,0.9-0.1,1.4,0c0.3,0.1,0.4,0.5,0.6,0.8
			c0.2-0.4,0.6-1.1,0.5-1.3c-0.6-0.8-1.4-1.6-2.2-2.2c-1.2-0.8-2.4-1.4-3.7-2.1c1.5-2.3,2.5-3.9,3.8-5.8c-0.1-0.2-0.5-0.9-1.1-2.2
			c1.6,0,3.1,0,4.4,0c-0.4-1.4-0.9-2.9-1.2-4c-0.8,0.6-1.7,1.3-2.6,2c-0.5-0.9-1.1-1.8-1.6-2.7c0.4-0.1,1.1-0.4,1.8-0.6
			c-0.6-1.2-1.2-2.3-1.8-3.5c1.4-0.3,2.3-0.4,3.3-0.6c-0.7-1.7-2.1-2.3-2.2-4.5c-0.1-2.1,0.5-2.9,1.2-3.5c1.6,0.8,2.8,1.7,4.2,2
			c0.5,0.1,1.3-0.9,2.5-1.7c0.9,0.6,2.1,1.4,3.5,2.3c0.5-1.3,1-2.6,1.4-3.9c-0.4-0.1-1.5-0.3-1.5-0.4c0.1-1.2,0.2-2.4,0.7-3.4
			c0.1-0.3,1.4-0.1,2.5-0.2c-0.2-1.8-0.4-3.7-0.6-5.6c0.3,0.1,0.5,0.2,0.8,0.3c0.7-0.8,1.8-1.6,2-2.5c0.3-1.8,0.1-1.9,2-1.8
			c0.3-3.6,0.9-6.9,4.3-9.2c0.8,0.4,1.7,1,2.6,1.5c0.1-0.8,0.2-1.6,0.4-2.8c1.3,0.5,2.3,0.8,3.5,1.3c0.3-0.9,0.6-1.7,0.9-2.6
			c0.9-0.1,1.9-0.2,3-0.3c0-0.4-0.2-0.7-0.1-1c0-0.3,0.3-0.6,0.5-1c3.5,2.6,0.4,5.5,1,8.7c1.4-1.6,2.6-2.9,3.8-4.2
			c0.4-0.4,1.1-1.1,1.3-0.9c0.5,0.3,1.2,0.9,1.3,1.4c0.2,1.9,1.1,3.6-0.1,5.7c-0.6,1,0,3,0.5,4.4c0.6,1.6,2.2,2.9,0.9,4.8
			c0,0,0.7,0.5,0.7,0.5c1.9-2.1,3.6-4,5.5-5.8c0.2-0.2,1,0.4,1.6,0.7l0.7,5.5c0.2,1.1,0.4,2.2,0.6,3.3c0.2,0,0.4,0,0.6,0
			c0.5-1.1,0.9-2.2,1.4-3.3c1.6,0.5,3,0.9,4.2,1.3c1.3-1.7,2.6-3.5,4.1-5.5c1,1.9,2.6,3.3,1.4,5.6c-0.1,0.2-0.2,0.8-0.1,0.9
			c2.3,1.1,0.4,2.7,0.5,4.5c1.4-0.3,2.6-0.6,3.6-0.8c1.1,2.8-3,4.6-1.2,7.7c1-0.5,1.8-0.9,2.7-1.3c1.4,1.5,0.4,2.6-0.5,3.6
			c-1.3,1.3-1.4,3.1-0.4,4c1.4,1.1,0.8,1.9,0.4,2.9c-1.1,3-0.3,4.8,2.6,6.1c-0.4,5.2,0,5.8,3.2,6c0.9-1.1,1.9-2.7,2-2.6
			c2.3,1.4,2.9-0.6,4-2.1c2.5,2.5,0.5,5,0.1,7.5c3.5,0.1,5.8-2,8-4.2c0.6-0.6,0.8-1.3-0.2-2.1c-0.4-0.3,0.1-1.8,0.2-2.8
			c0.1-0.4,0.5-0.9,0.4-1.3c-0.8-3.6,0.4-5.6,3.7-7.4c1.2-0.6,2.7-3,2.3-3.6c-1-1.7-0.2-2.2,0.8-3.2c1.2-1.2,1.9-2.8,3.2-0.9
			c1-0.7,2-1.8,2.7-1.7c0.8,0.2,1.3,1.5,2.3,2.7c0.7-2.4-0.5-4.5,1.3-5.7c1.4-0.9,3-2,4.5-2.1c1.7-0.1,3.5,0.8,3,3.1
			c1.2-1.2,2.3-2.4,3.6-3.7c3,3.5,4.1,0.6,6.1-1.8c0.4,3.1,0.7,5.4,1,8.1c1.9-2,3.3-3.5,4.7-5c0.2,0.2,0.3,0.4,0.5,0.6
			c0.2-0.8,0.4-1.5,0.6-2.3c0.3,0,0.7-0.1,1-0.1c0.9,3.2,1.9,6.4,2.9,9.9c3.6-1.5,4.1-5.4,6.7-8.8c0.7,2.3,1.3,4.4,2,6.7
			c0.5-0.5,1.4-1.2,1.3-1.5c-0.4-1.5-0.6-2.8,1.1-3.7c0.9-0.5,1.5-1.6,2.6-2.7c0,0-0.1-0.7-0.3-1.4c0.3,0.1,0.5,0.2,0.8,0.4
			c0.6-0.6,1.1-1.3,1.7-1.9c0.3-0.3,0.6-0.7,0.9-1c0.2,0.4,0.4,0.7,0.7,1.1c1.1,1.2,2.2,2.4,3.5,3.8c0.2-1.1,0.4-1.9,0.5-2.4
			c1.4,0.1,2.6,0.2,3.7,0.3c0-1.2,0-2.4,0-3.8c0.7,0.6,1.3,1,1.8,1.5c0.3-1.1,0.5-2.2,0.8-3.2c2,3.9,2.1,4.9,2,8
			c0,0.5,0.5,1,0.8,1.5c0.1,0.1,0.5,0,0.7,0c0-0.8,0-1.4,0-1.9c1.4,0.4,2.6,0.7,3.9,1.1c0.3-1.3,0.6-2.2,0.9-3.4
			c1,1.4-0.6,4,2.4,3.5c-1.4,3.1-1.2,3.6,1.4,4.4c1.4,2.6-3.3,4.1-1.7,6.5c2.1-1.6,4.1-3,6.3-4.6c0.8,4.7,1.6,8.6,2.2,12
			c1.7,0.3,3.1,0.6,4.2,0.9c0.8-1.1,1.6-2.6,2.7-3.9c1.2-1.3,2.7-2.4,4.6-3.9c-0.2-2.5,2.3-1.6,4.1-1.9c-0.4-2.1-0.8-4.3,2.3-5.8
			c0.3,2.4,0.7,4.5,1,6.6c2.1-2.3,1.6-5.2,1.6-8.1c0-1.2,0.6-2.4,1-3.5c0.3-0.9,0.7-1.7,1.1-2.5c0.3-0.7,1.4-1.5,1.3-2.1
			c-0.2-1.6-1.4-3.1,0.9-4.1c0.3-0.1,0.4-0.6,0.7-0.9c0.3,0.4,0.7,0.7,0.8,1.1c0.4,1.7,0.8,3.5,1.1,5.2c0.3,0,0.7,0,1,0.1
			c-0.8-5.6,2.1-10.1,3.8-15.5c1.2,2.1,2.2,3.6,2.8,5.3c0.7,2,1.2,2.5,2.7,0.6c0.7-0.9,1.9-1.4,2.9-2c0.5,1.2,1,2.5,1.5,3.7
			c0.1,0.2,0,0.4,0,0.5c0.1,2,0.3,3.8,2.5,4.8c0.4,0.2,0.3,1.1,0.5,1.7c0.2,0.5,0.4,1,0.6,1.5c0.4-0.3,0.9-0.5,1.2-0.8
			c1-1.1,1.9-2.3,2.8-3.5c0.2,0.1,0.4,0.2,0.6,0.2c0.1,2,0.2,4,0.3,6c0.6,0.1,1.2,0.3,1.9,0.5c-0.4,1.9-0.8,3.6-1.3,5.6
			c1-0.4,1.7-0.7,3.1-1.2c0,1.9,0,3.3,0,4.8c0,0.6,0.1,1.5,0.4,1.7c2.8,1.2,1.3,3.1,0.9,5c1.5,0,2.9,0,4.7,0c-0.3,2.4-0.7,4.9-1,7.4
			c1.2-0.6,2.1-1.1,2.4-1.2c0.2-3.3,0.4-6.4,0.6-9.5c1.2,0.2,1.9,0.4,3.2,0.6c-0.9-1.3-1.4-2.1-1.9-2.8c1-1.6,2-3.1,3.3-5.1
			c0.5,1.4,0.9,2.3,1.2,3.1c1.3-0.7,2.5-1.4,3.8-2.1c-1.7-2.9,2.2-3,3-5c0.7,1.7,1.3,3.4,1.9,4.9c1.3-1.1,2.7-2.3,4.4-3.8
			c0.3,1,0.6,1.8,0.7,2.4c0.8,0.2,1.4,0.6,2.1,0.5c0.6-0.1,1.3-0.5,1.6-1c0.8-1.2,1.1-2.8,2-3.9c1.3-1.5,3-2.7,5.1-4.5
			c0.6-0.8,1.6-2.3,2.6-3.8c0.2,0.1,0.5,0.1,0.7,0.2c0.1,1,0.2,2.1,0.3,3.3c0.5,0,1.1-0.1,1.9-0.1c-0.1,0.8-0.2,1.4-0.3,2.3
			c2.3-0.1,2.3,1.1,1.7,2.5c0.8,0.4,2.3,1,2.3,1.2c-0.7,3.6-1.3,7.2-2.6,10.5c-0.5,1.3-0.2,2.1,0.3,2.9c0.5,0.9,1.5,1.5,2.4,2.3
			c0.2-0.4,0.7-1,1.6-2.3c0.3,3.1,0.5,5.4,0.7,7.7c0.2,0.1,0.4,0.1,0.6,0.2c0.3-0.7,0.6-1.5,0.9-2.2c1.6-0.5,3.1-1.5,4.3-2.6
			c0.8-0.7,1.3-1.7,2.1-2.7c2.1,3.4,2.4,3.7,6,5.5c-0.9-2.8-1.7-5.5-2.4-7.8c1.7-0.6,3.1-0.6,3.6-1.3c0.6-0.7,0.4-2.1,0.5-2.9
			c-0.1-2-0.3-3.5-0.4-5.7c1.5,1.3,2.5,2.1,3.1,2.6c0.7-2.3,1.4-4.5,2.1-7c2.3,1.4,4.3,2.7,3.2-1.1c0-0.2,0.3-0.4,0.4-0.7
			c1-3.4,1.9-6.8,2.8-10.1c0.3-1,0.3-2.5,1-2.9c2.2-1.3,4.6-2.2,7.1-3.3c0.4,1,0.6,1.8,1.1,3.1c0.1-1.4,0.2-2.3,0.3-3.3
			c3.2,1.9,1.4-1.2,2.3-1.9c0.6,0.2,1.3,0.4,1.9,0.6c0.2-0.6,0.3-1.1,0.6-2c1.8,1.8,3.3,2.3,4.3-0.7c0.9,1.6,1.6,3.1,1.9,4.7
			c0.4,1.9,0.3,3.9,0.5,5.9c0.8-0.2,1.4-0.3,2.5-0.6c-0.7,3.1-1.3,5.7-1.9,8.4c1.1,0.2,2.5,2,4-0.7c0.7-1.2,3-1.6,4.9-2.5
			c0-3.5,4.7-1,6-4.1c0.7,1.9,1.2,3.3,1.8,4.9c0.9-0.8,1.9-1.6,3-2.5c1.4,1.6-0.6,5.5,3.7,5.6c-0.4,1.8-0.7,3.3-0.9,4.8
			c-0.1,0.7,0,1.7,0.4,2.1c0.6,0.5,1.6,0.5,2.4,0.7c0.1-0.7,0-1.4,0.2-2c0.5-1.6,1-3.3,1.8-5.6c0.8,1.6,1.2,2.4,1.4,2.7
			c1.8-0.7,3.3-1.4,4.9-2c3.2-1.4,1.2,3.7,3.7,2.8c-0.1,1.3-0.1,2.4-0.2,3.6c0.2,0.1,0.5,0.2,0.7,0.3c0.7-0.6,1.5-1.3,2.3-2
			c0.3,3.6,0.6,7.2,0.9,11.4c1.2-1.6,2.2-2.9,3.2-4.2c0.3,0.2,0.6,0.4,0.9,0.7c0.2,1,0.4,2,0.7,3.2c1.2-0.4,2.1-0.7,3-1
			c1.5,2.4-1,5.5,2.1,8.2c0.3-1.5,0.4-2.3,0.7-3.1c0.4-1.1,0.9-2.3,1.7-3.2c0.3-0.4,2-0.2,2.2,0.2c0.8,1.5,1.4,2.4,2.9,0.7
			c0.4-0.4,1.4-0.3,2.1-0.4c0-0.7,0-1.3,0-2.5c0.7,0.8,1.1,1.1,1.3,1.5c0.6,1.2,0.7,3.2,1.6,3.6c2,1,1.6,3.5,1.3,3.7
			c-1.8,1.1,0.1,4.5-3,4.6c0.1,0.9-0.2,2.1,0.2,2.7c0.9,1.1,2.2,1.9,3.2,2.8c0.3-4,0.3-8.6,4.3-12c0.4,0.7,0.7,1.3,1.1,2
			c3.5-2.8,3.5-2.8,4.7-1.5c1-2.4,2.1-5,3.2-7.6c0.5,0.2,0.9,0.3,1.3,0.5c-0.2-0.2-0.3-0.5-0.5-0.7c1.3-1.5,2.6-3,4-4.6
			c0.5,0.6,0.9,0.9,1.1,1.3c1.6,3.1-0.3,6.3,0.4,9.4c0.8-0.1,1.7-0.3,2.1-0.3c0.6-0.9,0.9-1.6,1.4-2.1c0.6-0.5,1.3-0.7,2.6-1.4
			c3.4,1.3-0.1,4.6,0.7,7.1c0.9-0.6,1.7-1,2.9-1.8c0.1,3.3-2.3,4.6-3,5.7c0.4,1.5,0.7,2.4,1,3.4c0,0,0.3,0.1,0.3,0.1
			c1-1.9,1.8-4.1,3.9-5.2c-1.3-2.7,1.6-3.5,2.5-5.3c0.2-0.5,0.5-1,0.8-1.4c1-1.4,2-2.7,2.9-4c0.2,0.2,0.5,0.3,0.7,0.5
			c0.3,1.6,0.6,3.2,0.8,4.4c0.9-1,1.8-2,2.4-2.6c0.9-2.2,1-4.9,2.4-5.8c2.4-1.6,3.7-3.3,3.8-6.2c0.1-2.5,1.6-3.7,3.5-3.4
			c0.6-1.6,1.2-3.1,2-5.1c1.1,1.3,1.9,2.2,2.7,3.2c1.6-1.7,2.2-1.3,3.2,1.6c0.7-0.3,1.5-0.8,2.2-0.7c0.6,0.1,1.1,0.8,1.6,1.4
			c0.3,0.3,0.2,1.3,0.3,1.3c0.5,0.1,1.2-0.1,1.7-0.3C1491.3,841.8,1492,841.4,1492.7,841z"/>
	</g>
	<polygon id="XMLID_12_" fill="#02293F" points="1924.2,638.4 1848.6,558.2 1785.6,414 1722.6,554.4 1609.5,452 1443.8,598 
		1354.5,668.4 1238.8,538.9 1107.6,375 988.6,527.7 846.9,612 833.8,571.8 788.5,417 747.4,561.2 728.1,592.7 619.7,443.3 
		560.5,267 495.2,456.2 470,521.6 443.8,485.5 411.7,390 376.4,492.5 340.6,585.5 333.7,572.8 291.8,522.1 252.1,468.4 216,518.4 
		198,530 141.1,453 43.1,589 0,616.7 0,1081 355,1081 481.1,1081 664,1081 664,1083 931,1083 930.9,1080 1087.9,1080 1520.5,1080 
		1924.2,1080 	"/>
	<g id="XMLID_36_">
		<path id="XMLID_37_" fill="#012C44" d="M733.3,751.1c0,50.1,0,100.2,0,150.4c-116.8,0-233.6,0-350.4,0c0-48,0-95.9,0-143.9
			c0.3,0.6,0.6,1.2,0.9,1.7c0.4-0.2,0.9-0.4,1.2-0.5c0.5,1.2,0.9,2.1,1.1,2.7c-0.3,1.6-0.5,3-0.7,4.3c0.2,0.1,0.3,0.3,0.5,0.4
			c0.5-0.7,1-1.3,1.5-2c0,0.1,0.1,0.5,0.4,1.1c0.2-1.3,0.3-2.2,0.4-3.3c0.3,0.2,0.5,0.2,0.5,0.3c1,1.7,1,1.7,2.1-0.5
			c0-0.1,0.1-0.2,0.2-0.3c0.3,0.3,0.5,0.7,1,1.3c-0.3-2.8,0.7-3.1,2-3.3c0,0.5,0.1,1,0.1,1.4c0.1,0.1,0.2,0.1,0.3,0.2
			c0.3-1,0.6-2,0.9-3c0.2,0.3,0.5,0.5,0.8,0.8c0.2-0.9,0.3-1.7,0.6-3c0.5,1,0.8,1.8,1.3,2.8c0-1.5,0.9-2.2,0.4-4.1
			c-0.3-1,1-3.1,1.7-4.5c0.5-1,1.2-1.9,1.7-2.7c0.1-1.2,0.2-2.3,0.3-3.4c0.6-0.4,1.1-0.7,1.6-1c0.3,1,0.5,1.9,0.9,3.1
			c0.3-0.8,0.4-1.3,0.6-2.1c0.4,1.3,0.7,2.1,1,3.3c0.5-1.9,0.8-3.5,1.2-5c0.1,0.1,0.1,0.3,0.2,0.4c0.7-0.6,1.4-1.2,2.2-2
			c0.6,2.4,1.2,4.6,1.9,7.1c1.7,0.1,1.9,0.7,1.4,4.1c0.3,0,0.9-0.1,1,0.1c0.6,2,1.5,1.2,2.3,0.5c0.3,3.9,0.3,3.9-0.1,4.9
			c-0.7,1.6-0.6,1.9,0.3,2.2c0.5-0.8,0.9-1.3,1.1-1.6c0.4-0.8,0.7-1.3,1-1.9c0.2,0.1,0.3,0.1,0.5,0.2c0,2.2,0,4.4,0,6.5
			c0.4-0.3,0.7-0.7,1.1-1c0.1,0.1,0.3,0.1,0.4,0.2c-0.8,2.8-1.5,5.5-0.3,8.6c0.2-0.5,0.3-1.1,0.5-1.6c0.5,2.1,0.9,3.8,1.9,4.8
			c1-1.5-1.1-3.5,0.4-4.3c0-1.6,0-2.9,0-4.4c0.6,0.1,0.9,0.2,1,0.2c0.6-1.1,1-2,1.5-3c0,0.1-0.1-0.3-0.3-0.5
			c0.5-0.4,0.9-0.7,1.2-1.2c0.6-1,1.2-2.1,1.8-3.2c0.6-1,1-2.2,1.7-3.1c0.4-0.6,1.1-0.7,1.6-0.9c0,0,0.2,0.9,0.4,1.4
			c0.7-0.5,1.1-1.8,1.9-2.5c0.7-0.7,1.2-2.9,1.2-4.4c0-1.8,1.1-2.3,1.5-3.7c0.2,0.6,0.4,1.1,0.6,2c0.3-0.7,0.5-1.3,0.9-2.3
			c0.3,1.4,0.5,2.3,0.7,3.3c1-1.8,1.9-3.4,2.8-5c0.4-0.7,1-1.2,1.5-1.8c0.1,0.6,0.2,1.1,0.2,1.7c0,0.1,0.1,0.3,0.1,0.3
			c1.7,0.4,0.3,4.4,2.3,4.5c0,0,0.1,0.2,0.1,0.3c0.4,1.5,1.2,2.9,0.4,4.7c-0.1,0.1,0.2,0.6,0.3,0.9c0.3-0.5,0.5-0.9,0.7-1.2
			c0.7,1.1,1.3,2.2,2.2,3.6c0,0.8,1.1,4.5,1.8,5c0.7-1.5,1.4-3,2.3-4.8c0.4,1.3,0.7,2.4,1.1,3.5c-0.1,0.1-0.2,0.3-0.3,0.4
			c0.4,0.1,0.8,0.1,1.2,0.2c-0.2,4.3-0.1,4.7,1.8,5.8c0,1.2,0,2.3,0,3.5c0.1,0,0.2,0,0.4,0c0.1-0.3,0.3-0.7,0.3-1
			c0-1.3-0.2-2.7,1.2-2.9c0.5-0.1,1.2-1.2,1.4-2c0.3-1.6,0.9-1.9,1.6-1.6c0.3-0.9,0.5-2.1,0.8-2.2c0.6-0.3,1.3,0.1,2,0.3
			c-0.2-1.5,0.5-2.6,1.4-3.5c0.2-0.2,0.6-0.2,0.6-0.4c0.2-0.6,0.3-1.3,0.4-2c0,0-0.1,0-0.1,0c0.1-1.2,0.2-2.4,0.2-3.5
			c0.1-0.1,0.2-0.2,0.3-0.2c0.4,1.1,0.7,2.1,1.1,3.2c-0.2-3.4,1.5-4.8,3.1-6.3c0.5,1.2,0.3,3.1,1.4,3.6c0,0,0,0.5,0,0.7
			c-0.3,1.5-0.5,3-0.9,4.8c0.6-0.7,1.1-1.4,1.4-1.7c1.1,1.3,2,2.3,2.9,3.4c-0.7,3.5-0.7,3.5-2,4.2c0.5,0.3,0.9,0.4,1.1,0.7
			c0.3,0.3,0.5,0.9,0.5,1.3c0.1,0.7-0.1,1.5-0.1,2.3c0.1,0,0.2,0,0.3,0c-0.2,0.8-0.3,1.7-0.4,2c-0.7,0.2-1.3,0-1.6,0.5
			c-0.9,1.5,0.5,2.4,0.6,3.8c0.8-0.3,1.6-0.5,2.2-0.7c0.3-1-0.4-2.8,1-2.4c0.1,0.6,0.3,1.2,0.5,1.9c1.2-1.9,2.3-3.6,3.6-5.5
			c0.2-2.4,0.1-5.4,1.9-7.9c0.2,1.2,0.4,2.3,0.6,3.4c0.2,0,0.3,0,0.5,0c-0.2-3.2-0.2-6.2,1.3-8.2c0.5-0.4,0.8-0.6,1.4-1.1
			c0.3,1.5,0.5,2.9,0.7,4.2c0.2-0.1,0.6-0.2,1-0.3c0,0.6,0.1,1.2,0,1.8c-0.1,1-0.3,2-0.5,3.2c0.5,0.1,1,0.1,1.5,0.2
			c0,0.4,0,0.7-0.1,1.5c0.8-0.6,1.5-1.1,2.4-1.8c-0.6,2.7-1.2,5.1-1.8,7.7c0.4,0.3,0.9,0.6,1.5,1c0-0.3-0.1-0.5-0.1-0.8
			c0.4-0.5,0.8-1.3,1.1-1.3c0.6,0,1.1,0.7,1.7,1c-0.4,1-0.7,2-1.1,3c-0.1-0.1-0.3-0.1-0.4-0.2c0.2,0.4,0.4,0.8,0.4,1
			c0.7-0.6,1.3-1.2,1.9-1.8c0.1,0.2,0.2,0.5,0.4,0.7c-0.6,0.9-1.2,1.7-2,2.7c0.2,0.1,0.5,0.4,0.9,0.7c0,0.9,0,1.8,0,3
			c-0.4,0.4-0.9,0.9-1.5,1.4c0.3,1.1,2.2,0.6,1.3,3c0,0.1,0,0.2,0.1,0.4c0.5,1.5,1.1,3.1,1.6,4.6c1.8-1.5,1.8-1.5,0.9-3.1
			c0.3-0.4,0.6-0.8,0.9-1.2c-0.2-0.1-0.4-0.3-0.5-0.4c0.2-0.4,0.4-0.8,0.5-1.3c0.2-1,0.4-2,0.7-2.9c0-0.1,0.5-0.1,0.7,0
			c0.1,0.1,0.2,0.4,0.3,0.6c0.1-0.3,0.3-0.8,0.2-1c-0.3-0.6-0.7-1.2-1.1-1.6c-0.6-0.6-1.2-1.1-1.9-1.6c0.7-1.7,1.3-3,1.9-4.4
			c-0.1-0.2-0.2-0.7-0.6-1.7c0.8,0,1.5,0,2.2,0c-0.2-1.1-0.4-2.2-0.6-3c-0.4,0.5-0.9,1-1.3,1.5c-0.3-0.7-0.5-1.3-0.8-2.1
			c0.2-0.1,0.6-0.3,0.9-0.5c-0.3-0.9-0.6-1.8-0.9-2.6c0.7-0.2,1.2-0.3,1.7-0.5c-0.4-1.3-1.1-1.8-1.1-3.4c-0.1-1.6,0.2-2.2,0.6-2.6
			c0.8,0.6,1.4,1.3,2.1,1.5c0.3,0.1,0.7-0.7,1.2-1.3c0.4,0.4,1.1,1.1,1.8,1.8c0.2-1,0.5-2,0.7-2.9c-0.2-0.1-0.7-0.2-0.7-0.3
			c0-0.9,0.1-1.8,0.3-2.6c0.1-0.2,0.7-0.1,1.2-0.2c-0.1-1.3-0.2-2.8-0.3-4.2c0.1,0.1,0.3,0.2,0.4,0.3c0.3-0.6,0.9-1.2,1-1.9
			c0.1-1.3,0-1.4,1-1.4c0.1-2.7,0.5-5.3,2.2-7c0.4,0.3,0.8,0.7,1.3,1.1c0.1-0.6,0.1-1.2,0.2-2.1c0.6,0.3,1.2,0.6,1.8,1
			c0.2-0.7,0.3-1.3,0.5-2c0.5-0.1,0.9-0.1,1.5-0.2c0-0.3-0.1-0.5-0.1-0.8c0-0.2,0.1-0.4,0.2-0.8c1.7,1.9,0.2,4.1,0.5,6.6
			c0.7-1.2,1.3-2.2,1.9-3.2c0.2-0.3,0.5-0.8,0.7-0.7c0.3,0.2,0.6,0.7,0.6,1.1c0.1,1.4,0.5,2.7-0.1,4.3c-0.3,0.8,0,2.3,0.3,3.3
			c0.3,1.2,1.1,2.2,0.4,3.6c0,0,0.4,0.4,0.3,0.4c1-1.6,1.8-3,2.7-4.4c0.1-0.1,0.5,0.3,0.8,0.5l0.3,4.2c0.1,0.8,0.2,1.7,0.3,2.5
			c0.1,0,0.2,0,0.3,0c0.2-0.8,0.5-1.6,0.7-2.5c0.8,0.4,1.5,0.7,2.1,1c0.6-1.3,1.3-2.7,2.1-4.2c0.5,1.4,1.3,2.5,0.7,4.2
			c-0.1,0.2-0.1,0.6,0,0.7c1.1,0.8,0.2,2,0.3,3.4c0.7-0.2,1.3-0.4,1.8-0.6c0.5,2.1-1.5,3.5-0.6,5.9c0.5-0.4,0.9-0.7,1.3-1
			c0.7,1.1,0.2,2-0.3,2.7c-0.6,1-0.7,2.4-0.2,3c0.7,0.9,0.4,1.4,0.2,2.2c-0.5,2.3-0.2,3.6,1.3,4.6c-0.2,3.9,0,4.4,1.6,4.6
			c0.4-0.8,1-2,1-2c1.2,1.1,1.5-0.4,2-1.6c1.2,1.9,0.2,3.7,0,5.7c1.8,0.1,2.9-1.5,4-3.2c0.3-0.5,0.4-1-0.1-1.6
			c-0.2-0.2,0-1.4,0.1-2.1c0-0.3,0.2-0.7,0.2-1c-0.4-2.7,0.2-4.2,1.9-5.6c0.6-0.5,1.4-2.3,1.2-2.7c-0.5-1.3-0.1-1.6,0.4-2.4
			c0.6-0.9,1-2.2,1.6-0.7c0.5-0.5,1-1.4,1.4-1.3c0.4,0.1,0.7,1.1,1.2,2c0.4-1.8-0.3-3.4,0.6-4.3c0.7-0.7,1.5-1.5,2.3-1.6
			c0.8,0,1.8,0.6,1.5,2.4c0.6-0.9,1.2-1.8,1.8-2.8c1.5,2.7,2.1,0.4,3.1-1.3c0.2,2.4,0.3,4.1,0.5,6.1c0.9-1.5,1.7-2.6,2.4-3.8
			c0.1,0.1,0.2,0.3,0.2,0.4c0.1-0.6,0.2-1.2,0.3-1.7c0.2,0,0.3,0,0.5-0.1c0.5,2.4,0.9,4.9,1.4,7.5c1.8-1.1,2.1-4.1,3.4-6.6
			c0.4,1.7,0.7,3.3,1,5c0.3-0.4,0.7-0.9,0.7-1.1c-0.2-1.2-0.3-2.1,0.6-2.8c0.5-0.4,0.8-1.2,1.3-2.1c0,0-0.1-0.5-0.1-1
			c0.1,0.1,0.3,0.2,0.4,0.3c0.3-0.5,0.6-1,0.9-1.4c0.2-0.3,0.3-0.5,0.5-0.8c0.1,0.3,0.2,0.6,0.3,0.8c0.6,0.9,1.1,1.8,1.8,2.9
			c0.1-0.9,0.2-1.4,0.3-1.8c0.7,0.1,1.3,0.2,1.9,0.2c0-0.9,0-1.8,0-2.8c0.4,0.4,0.6,0.8,0.9,1.1c0.1-0.9,0.3-1.6,0.4-2.4
			c1,3,1.1,3.7,1,6c0,0.4,0.2,0.8,0.4,1.1c0,0.1,0.2,0,0.3,0c0-0.6,0-1.1,0-1.4c0.7,0.3,1.3,0.5,2,0.8c0.2-1,0.3-1.7,0.4-2.6
			c0.5,1.1-0.3,3.1,1.2,2.7c-0.7,2.3-0.6,2.7,0.7,3.3c0.7,2-1.7,3.1-0.8,4.9c1.1-1.2,2.1-2.2,3.2-3.5c0.4,3.5,0.8,6.5,1.1,9.1
			c0.8,0.3,1.6,0.5,2.1,0.7c0.4-0.8,0.8-2,1.4-2.9c0.6-1,1.4-1.8,2.3-3c-0.1-1.9,1.2-1.2,2.1-1.4c-0.2-1.6-0.4-3.2,1.2-4.4
			c0.2,1.8,0.3,3.4,0.5,5c1.1-1.8,0.8-3.9,0.8-6.1c0-0.9,0.3-1.8,0.5-2.7c0.2-0.7,0.4-1.3,0.5-1.9c0.2-0.5,0.7-1.1,0.7-1.6
			c-0.1-1.2-0.7-2.4,0.4-3.1c0.1-0.1,0.2-0.4,0.3-0.7c0.1,0.3,0.4,0.5,0.4,0.8c0.2,1.3,0.4,2.6,0.6,3.9c0.2,0,0.3,0,0.5,0.1
			c-0.4-4.2,1-7.6,1.9-11.7c0.6,1.6,1.1,2.7,1.4,4c0.3,1.5,0.6,1.9,1.3,0.4c0.3-0.7,1-1,1.4-1.5c0.2,0.9,0.5,1.9,0.7,2.8
			c0,0.1,0,0.3,0,0.4c0.1,1.5,0.1,2.9,1.2,3.6c0.2,0.1,0.2,0.9,0.3,1.3c0.1,0.4,0.2,0.7,0.3,1.1c0.2-0.2,0.4-0.4,0.6-0.6
			c0.5-0.9,1-1.8,1.4-2.7c0.1,0.1,0.2,0.1,0.3,0.2c0.1,1.5,0.1,3,0.2,4.6c0.3,0.1,0.6,0.2,1,0.4c-0.2,1.4-0.4,2.7-0.7,4.2
			c0.5-0.3,0.9-0.5,1.5-0.9c0,1.4,0,2.5,0,3.6c0,0.4,0,1.2,0.2,1.3c1.4,0.9,0.6,2.3,0.5,3.8c0.7,0,1.5,0,2.4,0
			c-0.2,1.8-0.3,3.7-0.5,5.6c0.6-0.5,1-0.8,1.2-0.9c0.1-2.5,0.2-4.8,0.3-7.2c0.6,0.2,0.9,0.3,1.6,0.5c-0.4-1-0.7-1.6-0.9-2.1
			c0.5-1.2,1-2.3,1.7-3.8c0.3,1.1,0.4,1.7,0.6,2.3c0.7-0.6,1.3-1.1,1.9-1.6c-0.9-2.2,1.1-2.3,1.5-3.8c0.3,1.3,0.7,2.6,1,3.7
			c0.7-0.8,1.4-1.7,2.2-2.8c0.2,0.8,0.3,1.4,0.4,1.8c0.4,0.2,0.7,0.5,1,0.4c0.3,0,0.6-0.4,0.8-0.7c0.4-0.9,0.6-2.1,1-2.9
			c0.7-1.1,1.5-2,2.5-3.4c0.3-0.6,0.8-1.7,1.3-2.8c0.1,0,0.2,0.1,0.4,0.1c0,0.8,0.1,1.6,0.2,2.5c0.2,0,0.6-0.1,1-0.1
			c-0.1,0.6-0.1,1.1-0.2,1.7c1.1-0.1,1.2,0.9,0.8,1.9c0.4,0.3,1.2,0.7,1.2,0.9c-0.3,2.7-0.6,5.4-1.3,8c-0.3,1-0.1,1.6,0.1,2.2
			c0.2,0.7,0.7,1.1,1.2,1.7c0.1-0.3,0.3-0.7,0.8-1.7c0.1,2.3,0.2,4.1,0.3,5.8c0.1,0.1,0.2,0.1,0.3,0.2c0.1-0.6,0.3-1.1,0.4-1.7
			c0.8-0.4,1.5-1.1,2.2-1.9c0.4-0.5,0.7-1.3,1.1-2.1c1,2.6,1.2,2.8,3,4.2c-0.4-2.1-0.9-4.2-1.2-5.9c0.9-0.4,1.5-0.5,1.8-1
			c0.3-0.5,0.2-1.6,0.3-2.2c-0.1-1.5-0.1-2.6-0.2-4.3c0.8,1,1.2,1.6,1.5,2c0.3-1.7,0.7-3.4,1.1-5.3c1.2,1,2.2,2.1,1.6-0.8
			c0-0.1,0.2-0.3,0.2-0.5c0.5-2.6,0.9-5.1,1.4-7.7c0.1-0.8,0.2-1.9,0.5-2.2c1.1-1,2.3-1.7,3.6-2.5c0.2,0.7,0.3,1.4,0.6,2.3
			c0.1-1.1,0.1-1.7,0.2-2.5c1.6,1.4,0.7-0.9,1.2-1.4c0.3,0.1,0.6,0.3,0.9,0.4c0.1-0.4,0.2-0.9,0.3-1.5c0.9,1.4,1.6,1.7,2.2-0.5
			c0.4,1.2,0.8,2.4,1,3.6c0.2,1.5,0.2,3,0.2,4.4c0.4-0.1,0.7-0.2,1.3-0.4c-0.4,2.3-0.7,4.3-1,6.3c0.6,0.2,1.3,1.5,2-0.5
			c0.3-0.9,1.5-1.2,2.5-1.9c0-2.7,2.4-0.7,3-3.1c0.4,1.5,0.6,2.5,0.9,3.7c0.4-0.6,0.9-1.2,1.5-1.9c0.7,1.2-0.3,4.1,1.9,4.2
			c-0.2,1.3-0.4,2.5-0.5,3.6c0,0.5,0,1.3,0.2,1.6c0.3,0.4,0.8,0.4,1.2,0.6c0-0.5,0-1,0.1-1.5c0.2-1.2,0.5-2.5,0.9-4.2
			c0.4,1.2,0.6,1.8,0.7,2c0.9-0.5,1.7-1,2.5-1.5c1.6-1,0.6,2.8,1.8,2.1c0,1-0.1,1.8-0.1,2.7c0.1,0.1,0.2,0.1,0.3,0.2
			c0.4-0.5,0.7-1,1.2-1.5c0.1,2.7,0.3,5.4,0.5,8.6c0.6-1.2,1.1-2.2,1.6-3.2c0.1,0.2,0.3,0.3,0.4,0.5c0.1,0.7,0.2,1.5,0.4,2.4
			c0.6-0.3,1.1-0.6,1.5-0.8c0.8,1.8-0.5,4.2,1,6.2c0.2-1.1,0.2-1.7,0.3-2.3c0.2-0.8,0.5-1.8,0.8-2.4c0.2-0.3,1-0.2,1.1,0.1
			c0.4,1.1,0.7,1.8,1.5,0.5c0.2-0.3,0.7-0.2,1.1-0.3c0-0.5,0-1,0-1.9c0.3,0.6,0.6,0.8,0.7,1.1c0.3,0.9,0.4,2.4,0.8,2.7
			c1,0.8,0.8,2.7,0.7,2.8c-0.9,0.8,0.1,3.4-1.5,3.5c0,0.7-0.1,1.6,0.1,2c0.4,0.8,1.1,1.4,1.6,2.1c0.1-3,0.1-6.5,2.2-9.1
			c0.2,0.5,0.4,1,0.5,1.5c1.8-2.1,1.8-2.1,2.4-1.1c0.5-1.8,1.1-3.8,1.6-5.8c0.3,0.1,0.5,0.3,0.7,0.4c-0.1-0.2-0.2-0.4-0.2-0.5
			c0.6-1.1,1.3-2.2,2-3.5c0.2,0.4,0.5,0.7,0.6,1c0.8,2.3-0.2,4.8,0.2,7.1c0.4-0.1,0.9-0.2,1.1-0.2c0.3-0.7,0.4-1.2,0.7-1.6
			c0.3-0.4,0.7-0.6,1.3-1.1c1.7,1-0.1,3.4,0.3,5.4c0.5-0.4,0.8-0.8,1.5-1.4c0.1,2.5-1.2,3.5-1.5,4.3c0.2,1.1,0.3,1.8,0.5,2.5
			c0,0,0.1,0.1,0.1,0.1c0.5-1.5,0.9-3.1,1.9-4c-0.7-2.1,0.8-2.7,1.2-4c0.1-0.4,0.3-0.7,0.4-1.1c0.5-1,1-2,1.5-3.1
			c0.1,0.1,0.3,0.2,0.4,0.4c0.1,1.2,0.3,2.4,0.4,3.3c0.5-0.8,0.9-1.5,1.2-1.9c0.4-1.7,0.5-3.7,1.2-4.4c1.2-1.2,1.9-2.5,1.9-4.7
			c0-1.9,0.8-2.8,1.8-2.6c0.3-1.2,0.6-2.3,1-3.8c0.5,1,0.9,1.7,1.3,2.4c0.8-1.3,1.1-1,1.6,1.2c0.4-0.2,0.8-0.6,1.1-0.5
			c0.3,0.1,0.6,0.6,0.8,1c0.1,0.3,0.1,1,0.2,1c0.3,0,0.6-0.1,0.8-0.2C732.6,751.7,733,751.4,733.3,751.1z"/>
	</g>
	<path id="XMLID_11_" fill="#012C44" d="M1924.2,770.3c-0.1,0-0.1-0.1-0.2-0.1c-0.3-0.1-0.7,0.3-1.1,0.5c-0.5-2.2-0.8-2.5-1.6-1.2
		c-0.4-0.7-0.8-1.4-1.3-2.4c-0.4,1.5-0.7,2.6-1,3.8c-0.9-0.2-1.7,0.7-1.8,2.6c0,2.2-0.7,3.5-1.9,4.7c-0.7,0.7-0.8,2.7-1.2,4.4
		c-0.3,0.4-0.7,1.2-1.2,1.9c-0.1-0.9-0.3-2.1-0.4-3.3c-0.1-0.1-0.3-0.2-0.4-0.4c-0.5,1-1,2-1.5,3.1c-0.2,0.3-0.3,0.7-0.4,1.1
		c-0.4,1.3-1.9,1.9-1.2,4c-1,0.9-1.4,2.5-1.9,4c0,0-0.2-0.1-0.1-0.1c-0.1-0.7-0.3-1.4-0.5-2.5c0.4-0.9,1.6-1.9,1.5-4.3
		c-0.6,0.6-1,0.9-1.5,1.4c-0.4-1.9,1.4-4.4-0.3-5.4c-0.6,0.5-1,0.7-1.3,1.1c-0.3,0.4-0.4,0.9-0.7,1.6c-0.2,0-0.7,0.1-1.1,0.2
		c-0.4-2.3,0.6-4.8-0.2-7.1c-0.1-0.3-0.3-0.6-0.6-1c-0.7,1.2-1.4,2.3-2,3.5c0.1,0.2,0.2,0.4,0.2,0.5c-0.2-0.1-0.4-0.2-0.7-0.4
		c-0.6,2-1.1,3.9-1.6,5.8c-0.6-1-0.6-1-2.4,1.1c-0.2-0.5-0.4-1-0.5-1.5c-2,2.6-2,6-2.2,9.1c-0.5-0.7-1.2-1.3-1.6-2.1
		c-0.2-0.5-0.1-1.3-0.1-2c1.6,0,0.6-2.6,1.5-3.5c0.1-0.1,0.3-2-0.7-2.8c-0.5-0.3-0.5-1.8-0.8-2.7c-0.1-0.3-0.3-0.6-0.7-1.1
		c0,0.9,0,1.3,0,1.9c-0.4,0.1-0.9,0-1.1,0.3c-0.8,1.3-1.1,0.6-1.5-0.5c-0.1-0.3-1-0.4-1.1-0.1c-0.4,0.6-0.6,1.6-0.8,2.4
		c-0.2,0.6-0.2,1.2-0.3,2.3c-1.5-2-0.3-4.4-1-6.2c-0.4,0.2-0.9,0.5-1.5,0.8c-0.1-1-0.2-1.7-0.4-2.4c-0.1-0.2-0.3-0.3-0.4-0.5
		c-0.5,1-1,2-1.6,3.2c-0.2-3.2-0.3-5.9-0.5-8.6c-0.4,0.5-0.8,1-1.2,1.5c-0.1-0.1-0.2-0.1-0.3-0.2c0-0.8,0.1-1.7,0.1-2.7
		c-1.2,0.7-0.3-3.1-1.8-2.1c-0.8,0.5-1.6,1-2.5,1.5c-0.1-0.2-0.3-0.8-0.7-2c-0.4,1.7-0.7,3-0.9,4.2c-0.1,0.5-0.1,1-0.1,1.5
		c-0.4-0.2-0.9-0.2-1.2-0.6c-0.2-0.3-0.3-1-0.2-1.6c0.1-1.2,0.3-2.3,0.5-3.6c-2.2-0.1-1.2-3-1.9-4.2c-0.6,0.7-1.1,1.3-1.5,1.9
		c-0.3-1.3-0.5-2.3-0.9-3.7c-0.6,2.4-3,0.4-3,3.1c-1,0.7-2.2,1-2.5,1.9c-0.7,2.1-1.4,0.7-2,0.5c0.3-2.1,0.6-4,1-6.3
		c-0.6,0.2-0.9,0.3-1.3,0.4c-0.1-1.5-0.1-3-0.2-4.4c-0.1-1.2-0.5-2.3-1-3.6c-0.5,2.3-1.3,1.9-2.2,0.5c-0.1,0.6-0.2,1.1-0.3,1.5
		c-0.3-0.1-0.6-0.3-0.9-0.4c-0.4,0.5,0.4,2.9-1.2,1.4c0,0.8-0.1,1.4-0.2,2.5c-0.2-1-0.4-1.6-0.6-2.3c-1.3,0.9-2.5,1.5-3.6,2.5
		c-0.3,0.3-0.4,1.4-0.5,2.2c-0.5,2.6-0.9,5.1-1.4,7.7c0,0.2-0.2,0.4-0.2,0.5c0.5,2.9-0.5,1.9-1.6,0.8c-0.4,1.9-0.7,3.6-1.1,5.3
		c-0.3-0.4-0.8-1-1.5-2c0.1,1.7,0.1,2.8,0.2,4.3c-0.1,0.6,0,1.6-0.3,2.2c-0.3,0.5-1,0.6-1.8,1c0.4,1.7,0.8,3.8,1.2,5.9
		c-1.8-1.4-2-1.6-3-4.2c-0.4,0.8-0.7,1.5-1.1,2.1c-0.6,0.8-1.3,1.5-2.2,1.9c-0.1,0.6-0.3,1.1-0.4,1.7c-0.1-0.1-0.2-0.1-0.3-0.2
		c-0.1-1.7-0.2-3.5-0.3-5.8c-0.5,1-0.7,1.5-0.8,1.7c-0.4-0.6-0.9-1.1-1.2-1.7c-0.2-0.6-0.4-1.2-0.1-2.2c0.7-2.5,1-5.3,1.3-8
		c0-0.2-0.7-0.6-1.2-0.9c0.3-1,0.3-2-0.8-1.9c0.1-0.6,0.1-1.1,0.2-1.7c-0.4,0-0.7,0.1-1,0.1c-0.1-0.9-0.1-1.7-0.2-2.5
		c-0.1,0-0.2-0.1-0.4-0.1c-0.5,1.1-1,2.2-1.3,2.8c-1,1.3-1.9,2.2-2.5,3.4c-0.5,0.8-0.6,2-1,2.9c-0.1,0.4-0.5,0.7-0.8,0.7
		c-0.3,0-0.7-0.2-1-0.4c-0.1-0.4-0.2-1-0.4-1.8c-0.9,1.1-1.6,2-2.2,2.8c-0.3-1.1-0.6-2.4-1-3.7c-0.4,1.5-2.4,1.6-1.5,3.8
		c-0.7,0.6-1.3,1.1-1.9,1.6c-0.2-0.6-0.3-1.3-0.6-2.3c-0.7,1.5-1.1,2.6-1.7,3.8c0.2,0.5,0.5,1.1,0.9,2.1c-0.7-0.2-1-0.3-1.6-0.5
		c-0.1,2.3-0.2,4.6-0.3,7.2c-0.2,0.1-0.6,0.5-1.2,0.9c0.2-1.9,0.3-3.7,0.5-5.6c-0.9,0-1.6,0-2.4,0c0.2-1.4,0.9-2.9-0.5-3.8
		c-0.2-0.1-0.2-0.8-0.2-1.3c0-1.1,0-2.2,0-3.6c-0.7,0.4-1,0.6-1.5,0.9c0.2-1.5,0.4-2.8,0.7-4.2c-0.3-0.1-0.7-0.3-1-0.4
		c-0.1-1.6-0.1-3.1-0.2-4.6c-0.1-0.1-0.2-0.1-0.3-0.2c-0.5,0.9-0.9,1.8-1.4,2.7c-0.2,0.3-0.4,0.4-0.6,0.6c-0.1-0.4-0.2-0.7-0.3-1.1
		c-0.1-0.4-0.1-1.2-0.3-1.3c-1.1-0.7-1.2-2.1-1.2-3.6c0-0.1,0-0.3,0-0.4c-0.2-0.9-0.5-1.9-0.7-2.8c-0.5,0.5-1.1,0.9-1.4,1.5
		c-0.7,1.4-1,1.1-1.3-0.4c-0.3-1.2-0.8-2.4-1.4-4c-0.9,4.1-2.3,7.5-1.9,11.7c-0.2,0-0.3,0-0.5-0.1c-0.2-1.3-0.4-2.6-0.6-3.9
		c-0.1-0.3-0.3-0.6-0.4-0.8c-0.1,0.2-0.2,0.6-0.3,0.7c-1.2,0.8-0.5,2-0.4,3.1c0,0.5-0.5,1.1-0.7,1.6c-0.2,0.6-0.4,1.3-0.5,1.9
		c-0.2,0.9-0.5,1.8-0.5,2.7c0,2.1,0.3,4.3-0.8,6.1c-0.2-1.6-0.3-3.2-0.5-5c-1.6,1.2-1.4,2.8-1.2,4.4c-0.9,0.2-2.2-0.5-2.1,1.4
		c-0.9,1.2-1.7,2-2.3,3c-0.6,0.9-1,2.1-1.4,2.9c-0.6-0.2-1.3-0.4-2.1-0.7c-0.3-2.6-0.7-5.6-1.1-9.1c-1.1,1.2-2.1,2.3-3.2,3.5
		c-0.8-1.8,1.6-3,0.8-4.9c-1.3-0.6-1.4-1-0.7-3.3c-1.5,0.4-0.7-1.6-1.2-2.7c-0.2,0.9-0.3,1.6-0.4,2.6c-0.7-0.3-1.3-0.5-2-0.8
		c0,0.4,0,0.9,0,1.4c-0.1,0-0.3,0.1-0.3,0c-0.2-0.4-0.4-0.8-0.4-1.1c0-2.3,0-3-1-6c-0.1,0.8-0.3,1.5-0.4,2.4
		c-0.3-0.3-0.5-0.7-0.9-1.1c0,1,0,1.9,0,2.8c-0.6-0.1-1.2-0.2-1.9-0.2c-0.1,0.3-0.1,0.9-0.3,1.8c-0.6-1-1.2-1.9-1.8-2.9
		c-0.1-0.2-0.2-0.5-0.3-0.8c-0.2,0.3-0.3,0.5-0.5,0.8c-0.3,0.5-0.6,1-0.9,1.4c-0.1-0.1-0.3-0.2-0.4-0.3c0.1,0.5,0.1,1,0.1,1
		c-0.5,0.9-0.8,1.7-1.3,2.1c-0.9,0.7-0.8,1.6-0.6,2.8c0,0.3-0.4,0.7-0.7,1.1c-0.3-1.7-0.7-3.3-1-5c-1.3,2.5-1.5,5.5-3.4,6.6
		c-0.5-2.6-1-5-1.4-7.5c-0.2,0-0.3,0-0.5,0.1c-0.1,0.6-0.2,1.2-0.3,1.7c-0.1-0.1-0.2-0.3-0.2-0.4c-0.7,1.2-1.5,2.3-2.4,3.8
		c-0.2-2-0.3-3.8-0.5-6.1c-1,1.8-1.6,4-3.1,1.3c-0.6,1-1.2,1.9-1.8,2.8c0.3-1.7-0.7-2.4-1.5-2.4c-0.8,0-1.6,0.9-2.3,1.6
		c-0.9,0.9-0.3,2.5-0.6,4.3c-0.5-0.9-0.8-1.9-1.2-2c-0.4-0.1-0.8,0.7-1.4,1.3c-0.6-1.4-1-0.2-1.6,0.7c-0.5,0.8-0.9,1.1-0.4,2.4
		c0.2,0.4-0.6,2.2-1.2,2.7c-1.7,1.4-2.3,2.9-1.9,5.6c0,0.3-0.2,0.6-0.2,1c-0.1,0.7-0.3,1.9-0.1,2.1c0.5,0.6,0.4,1.1,0.1,1.6
		c-1.1,1.6-2.3,3.2-4,3.2c0.2-1.9,1.2-3.8,0-5.7c-0.5,1.2-0.8,2.6-2,1.6c0,0-0.6,1.2-1,2c-1.6-0.2-1.8-0.7-1.6-4.6
		c-1.5-0.9-1.8-2.3-1.3-4.6c0.2-0.8,0.5-1.4-0.2-2.2c-0.5-0.6-0.5-2,0.2-3c0.5-0.8,1-1.6,0.3-2.7c-0.4,0.3-0.8,0.6-1.3,1
		c-0.9-2.4,1.1-3.7,0.6-5.9c-0.5,0.2-1.1,0.4-1.8,0.6c0-1.4,0.9-2.6-0.3-3.4c-0.1,0,0-0.5,0-0.7c0.6-1.7-0.2-2.8-0.7-4.2
		c-0.7,1.5-1.4,2.9-2.1,4.2c-0.6-0.3-1.3-0.6-2.1-1c-0.2,0.8-0.5,1.6-0.7,2.5c-0.1,0-0.2,0-0.3,0c-0.1-0.8-0.2-1.7-0.3-2.5l-0.3-4.2
		c-0.3-0.2-0.7-0.6-0.8-0.5c-0.9,1.4-1.8,2.8-2.7,4.4c0,0-0.3-0.4-0.3-0.4c0.6-1.5-0.1-2.4-0.4-3.6c-0.3-1-0.6-2.5-0.3-3.3
		c0.6-1.5,0.1-2.9,0.1-4.3c0-0.4-0.4-0.9-0.6-1.1c-0.1-0.1-0.5,0.4-0.7,0.7c-0.6,1-1.2,2-1.9,3.2c-0.3-2.4,1.2-4.6-0.5-6.6
		c-0.1,0.4-0.2,0.6-0.2,0.8c0,0.2,0,0.5,0.1,0.8c-0.6,0.1-1,0.1-1.5,0.2c-0.2,0.6-0.3,1.3-0.5,2c-0.6-0.3-1.1-0.6-1.8-1
		c-0.1,0.9-0.1,1.5-0.2,2.1c-0.5-0.4-0.9-0.8-1.3-1.1c-1.7,1.7-2,4.3-2.2,7c-1,0-0.9,0-1,1.4c-0.1,0.7-0.6,1.3-1,1.9
		c-0.1-0.1-0.3-0.2-0.4-0.3c0.1,1.4,0.2,2.9,0.3,4.2c-0.5,0-1.2-0.1-1.2,0.2c-0.2,0.8-0.3,1.7-0.3,2.6c0,0.1,0.5,0.2,0.7,0.3
		c-0.2,0.9-0.5,2-0.7,2.9c-0.7-0.7-1.3-1.3-1.8-1.8c-0.6,0.6-1,1.4-1.2,1.3c-0.7-0.2-1.3-0.9-2.1-1.5c-0.4,0.5-0.7,1-0.6,2.6
		c0.1,1.6,0.8,2.1,1.1,3.4c-0.5,0.1-1,0.3-1.7,0.5c0.3,0.9,0.6,1.7,0.9,2.6c-0.3,0.2-0.7,0.3-0.9,0.5c0.3,0.7,0.6,1.4,0.8,2.1
		c0.5-0.5,0.9-1,1.3-1.5c0.2,0.9,0.4,1.9,0.6,3c-0.7,0-1.4,0-2.2,0c0.3,1,0.5,1.5,0.6,1.7c-0.6,1.5-1.2,2.7-1.9,4.4
		c0.7,0.5,1.3,1,1.9,1.6c0.4,0.4,0.8,1,1.1,1.6c0.1,0.1-0.2,0.6-0.2,1c-0.1-0.2-0.2-0.5-0.3-0.6c-0.2-0.1-0.7-0.2-0.7,0
		c-0.3,0.9-0.4,1.9-0.7,2.9c-0.1,0.5-0.3,0.9-0.5,1.3c0.1,0.1,0.3,0.2,0.5,0.4c-0.3,0.4-0.6,0.8-0.9,1.2c0.9,1.7,0.9,1.7-0.9,3.1
		c-0.5-1.5-1-3.1-1.6-4.6c0-0.1-0.1-0.3-0.1-0.4c1-2.3-1-1.9-1.3-3c0.5-0.5,1.1-1.1,1.5-1.4c0-1.1,0-2,0-3c-0.4-0.3-0.7-0.5-0.9-0.7
		c0.7-1,1.3-1.8,2-2.7c-0.1-0.2-0.2-0.5-0.4-0.7c-0.6,0.6-1.3,1.2-1.9,1.8c-0.1-0.2-0.3-0.6-0.4-1c0.1,0.1,0.3,0.1,0.4,0.2
		c0.4-1,0.7-2,1.1-3c-0.6-0.4-1.1-1-1.7-1c-0.4,0-0.8,0.8-1.1,1.3c0,0.3,0.1,0.5,0.1,0.8c-0.6-0.4-1.1-0.7-1.5-1
		c0.6-2.7,1.2-5,1.8-7.7c-0.9,0.7-1.6,1.2-2.4,1.8c0-0.8,0-1.1,0.1-1.5c-0.5-0.1-1-0.1-1.5-0.2c0.2-1.2,0.4-2.2,0.5-3.2
		c0.1-0.6,0-1.2,0-1.8c-0.4,0.1-0.8,0.2-1,0.3c-0.2-1.3-0.5-2.7-0.7-4.2c-0.6,0.5-0.9,0.7-1.4,1.1c-1.4,2-1.5,5.1-1.3,8.2
		c-0.2,0-0.3,0-0.5,0c-0.2-1.1-0.4-2.2-0.6-3.4c-1.8,2.4-1.7,5.4-1.9,7.9c-1.3,1.9-2.4,3.6-3.6,5.5c-0.2-0.7-0.3-1.3-0.5-1.9
		c-1.4-0.3-0.7,1.4-1,2.4c-0.6,0.2-1.4,0.5-2.2,0.7c-0.1-1.4-1.5-2.3-0.6-3.8c0.2-0.4,0.9-0.3,1.6-0.5c0.1-0.4,0.2-1.2,0.4-2
		c-0.1,0-0.2,0-0.3,0c0-0.8,0.2-1.5,0.1-2.3c0-0.5-0.3-1-0.5-1.3c-0.3-0.3-0.6-0.4-1.1-0.7c1.3-0.7,1.3-0.7,2-4.2
		c-0.9-1.1-1.8-2.2-2.9-3.4c-0.3,0.3-0.7,0.9-1.4,1.7c0.4-1.9,0.6-3.3,0.9-4.8c0-0.2,0-0.7,0-0.7c-1.2-0.5-1-2.4-1.4-3.6
		c-1.6,1.6-3.3,3-3.1,6.3c-0.4-1.1-0.7-2.1-1.1-3.2c-0.1,0.1-0.2,0.2-0.3,0.2c-0.1,1.2-0.2,2.4-0.2,3.5c0,0,0.1,0,0.1,0
		c-0.1,0.7-0.2,1.4-0.4,2c-0.1,0.2-0.4,0.2-0.6,0.4c-1,0.9-1.6,2-1.4,3.5c-0.7-0.1-1.4-0.5-2-0.3c-0.4,0.2-0.5,1.3-0.8,2.2
		c-0.6-0.3-1.2,0-1.6,1.6c-0.2,0.8-0.9,2-1.4,2c-1.4,0.2-1.2,1.6-1.2,2.9c0,0.4-0.2,0.7-0.3,1c-0.1,0-0.2,0-0.4,0c0-1.1,0-2.3,0-3.5
		c-1.9-1.1-2-1.5-1.8-5.8c-0.4-0.1-0.8-0.1-1.2-0.2c0.1-0.1,0.2-0.3,0.3-0.4c-0.3-1.1-0.7-2.2-1.1-3.5c-0.9,1.8-1.6,3.3-2.3,4.8
		c-0.7-0.5-1.8-4.1-1.8-5c-0.9-1.4-1.5-2.5-2.2-3.6c-0.2,0.3-0.5,0.8-0.7,1.2c-0.1-0.3-0.3-0.7-0.3-0.9c0.8-1.8,0-3.2-0.4-4.7
		c0-0.1-0.1-0.3-0.1-0.3c-2-0.1-0.6-4.1-2.3-4.5c-0.1,0-0.1-0.2-0.1-0.3c-0.1-0.6-0.2-1.1-0.2-1.7c-0.5,0.6-1.1,1.1-1.5,1.8
		c-0.9,1.5-1.8,3.1-2.8,5c-0.2-1-0.4-1.8-0.7-3.3c-0.4,1-0.7,1.6-0.9,2.3c-0.3-0.9-0.5-1.4-0.6-2c-0.4,1.4-1.5,1.9-1.5,3.7
		c0,1.5-0.4,3.7-1.2,4.4c-0.8,0.7-1.2,1.9-1.9,2.5c-0.1-0.6-0.3-1.5-0.4-1.4c-0.6,0.2-1.2,0.4-1.6,0.9c-0.6,0.9-1.1,2.1-1.7,3.1
		c-0.6,1.1-1.2,2.2-1.8,3.2c-0.3,0.5-0.7,0.7-1.2,1.2c0.1,0.2,0.3,0.5,0.3,0.5c-0.5,1-1,1.9-1.5,3c-0.1,0-0.4-0.1-1-0.2
		c0,1.5,0,2.8,0,4.4c-1.5,0.7,0.5,2.8-0.4,4.3c-1-1.1-1.3-2.7-1.9-4.8c-0.2,0.6-0.3,1.1-0.5,1.6c-1.3-3.1-0.5-5.8,0.3-8.6
		c-0.1-0.1-0.3-0.1-0.4-0.2c-0.4,0.3-0.8,0.7-1.1,1c0-2.1,0-4.3,0-6.5c-0.2-0.1-0.3-0.1-0.5-0.2c-0.3,0.5-0.6,1.1-1,1.9
		c-0.2,0.3-0.6,0.8-1.1,1.6c-0.9-0.3-1-0.6-0.3-2.2c0.4-1,0.4-1,0.1-4.9c-0.8,0.7-1.7,1.4-2.3-0.5c-0.1-0.2-0.6-0.1-1-0.1
		c0.5-3.5,0.3-4-1.4-4.1c-0.6-2.5-1.2-4.8-1.9-7.1c-0.8,0.7-1.5,1.3-2.2,2c-0.1-0.1-0.1-0.3-0.2-0.4c-0.4,1.6-0.8,3.2-1.2,5
		c-0.4-1.2-0.6-2-1-3.3c-0.3,0.9-0.4,1.3-0.6,2.1c-0.4-1.2-0.6-2.1-0.9-3.1c-0.5,0.3-1,0.6-1.6,1c-0.1,1.1-0.2,2.2-0.3,3.4
		c-0.5,0.8-1.2,1.6-1.7,2.7c-0.7,1.4-1.9,3.5-1.7,4.5c0.5,1.9-0.4,2.6-0.4,4.1c-0.4-1-0.8-1.8-1.3-2.8c-0.3,1.3-0.4,2.2-0.6,3
		c-0.3-0.3-0.5-0.6-0.8-0.8c-0.3,1.1-0.6,2.1-0.9,3c-0.1-0.1-0.2-0.1-0.3-0.2c0-0.4-0.1-0.8-0.1-1.4c-1.2,0.2-2.3,0.4-2,3.3
		c-0.5-0.6-0.8-1-1-1.3c-0.1,0.1-0.2,0.2-0.2,0.3c-1,2.2-1,2.2-2.1,0.5c-0.1-0.1-0.2-0.1-0.5-0.3c-0.1,1-0.3,1.9-0.4,3.3
		c-0.2-0.7-0.3-1-0.4-1.1c-0.5,0.7-1,1.4-1.5,2c-0.2-0.1-0.3-0.3-0.5-0.4c0.2-1.4,0.5-2.8,0.7-4.3c-0.2-0.6-0.6-1.4-1.1-2.7
		c-0.3,0.1-0.8,0.3-1.2,0.5c-0.3-0.5-0.6-1.1-0.9-1.7c0,48,0,95.9,0,143.9c115.9,0,231.8,0,347.7,0V770.3z"/>
	<polygon id="XMLID_13_" fill="#032433" points="1924.2,841 1862.1,876.7 1828.7,906 1779.3,813.2 1689.1,701.8 1603.7,583.8 
		1526.2,693.7 1384.4,786.8 1359,767.2 1305.3,677.3 1246,773.8 1228.9,798.8 1043.3,746.3 887.5,651.1 715.9,753.3 564.4,834 
		447.5,790.1 230.7,699.1 82.6,762.9 0.2,675.4 0,675.6 0,1090.5 286.3,1090.5 347.2,1090.5 913.3,1090.5 1118.9,1090.5 
		1118.7,1092.3 1468.2,1092.3 1468.2,1091.1 1707.7,1091.1 1872.7,1091.1 1924.2,1091.1 	"/>
</g>
<g id="Layer_2">
</g>
</svg>
