<?xml version="1.0" encoding="utf-8"?>
<!-- Generator: Adobe Illustrator 19.0.0, SVG Export Plug-In . SVG Version: 6.00 Build 0)  -->
<svg version="1.1" id="Layer_1" xmlns="http://www.w3.org/2000/svg" xmlns:xlink="http://www.w3.org/1999/xlink" x="0px" y="0px"
	 viewBox="0 0 94 207" style="enable-background:new 0 0 94 207;" xml:space="preserve">
<style type="text/css">
	.st0{fill:#FFFFFF;}
</style>
<path id="XMLID_406_" class="st0" d="M27.8,48c2.1-3.1,3.8-6.2,6.3-9.1C34.9,38,36,37,36.9,36c0.1,1.5,0.2,3.1,0.4,4.6
	c0.4,4.3,1,8.9,0,13.1c-0.5,2,2.7,2.6,3.2,0.6c1.2-5.6,0.6-11.8-0.1-17.7c1.1,1,2.2,1.8,3.2,2.9c1.7,1.9,2.8,4.4,4.7,6.2
	c1.5,1.4,3.5-1,2.1-2.5c-2-1.9-3-4.6-5-6.5c-1.1-1.1-2.3-2-3.3-3.1c-0.8-1-1.3-2.1-2.2-3c-0.4-3.5-1.1-6.9-1.8-10.3
	c-0.4-1.8-0.8-3.7-1.3-5.5c-0.3-1.1-1.5-3.8-0.9-4.9c1-1.8-1.9-3.2-2.9-1.4c-1.3,2.5,0.6,6.3,1.1,8.8c0.8,3.7,1.8,7.4,2.3,11.1
	c0.1,0.7,0.2,1.3,0.2,2c-0.5,0.3-0.8,0.8-0.8,1.5c0.1,1-1.4,2.2-2.1,3c-1.1,1.2-2.2,2.4-3.3,3.7c-2,2.3-3.2,4.9-4.9,7.4
	C24.2,47.6,26.6,49.7,27.8,48z"/>
<path id="XMLID_400_" class="st0" d="M62.2,95.5c3.2-2.1,5.9-4.3,9.3-5.9c1.1-0.5,2.5-1,3.7-1.6c-0.5,1.5-1,2.9-1.4,4.4
	c-1.3,4.1-2.6,8.5-5.1,12.1c-1.2,1.7,1.5,3.4,2.7,1.7c3.3-4.7,5.1-10.7,6.8-16.4c0.6,1.3,1.3,2.6,1.8,3.9c0.8,2.5,0.9,5.1,1.9,7.5
	c0.8,1.9,3.7,0.4,2.9-1.5c-1.1-2.5-1-5.4-2.1-8c-0.6-1.4-1.4-2.7-1.9-4.2c-0.4-1.2-0.4-2.4-0.9-3.6c1-3.3,1.7-6.8,2.3-10.2
	c0.3-1.9,0.7-3.7,1-5.6c0.2-1.1,0.1-4.1,1.1-4.8c1.6-1.3-0.6-3.7-2.2-2.4c-2.2,1.8-1.9,6-2.4,8.6c-0.6,3.7-1.2,7.5-2.2,11.1
	c-0.2,0.7-0.4,1.3-0.6,2c-0.6,0.1-1.1,0.4-1.3,1.1c-0.3,1-2.2,1.5-3.1,1.9c-1.5,0.7-3,1.4-4.5,2.1c-2.8,1.4-4.9,3.3-7.4,4.9
	C59,93.8,60.5,96.7,62.2,95.5z"/>
<path id="XMLID_401_" class="st0" d="M9.1,145.9c2.7-2.7,4.9-5.4,7.9-7.7c1-0.8,2.2-1.5,3.3-2.4c-0.2,1.5-0.3,3.1-0.5,4.6
	c-0.4,4.3-0.7,8.9-2.4,12.9c-0.8,1.9,2.2,3,3,1.1c2.3-5.3,2.8-11.5,3.2-17.5c0.9,1.2,1.8,2.2,2.6,3.5c1.3,2.2,1.9,4.8,3.4,6.9
	c1.2,1.7,3.7-0.4,2.5-2.1c-1.6-2.2-2.1-5.1-3.7-7.4c-0.9-1.3-1.9-2.4-2.7-3.7c-0.6-1.1-0.9-2.3-1.6-3.4c0.3-3.5,0.2-7,0.1-10.5
	c-0.1-1.9-0.1-3.8-0.2-5.7c0-1.1-0.7-4,0-4.9c1.3-1.6-1.3-3.5-2.6-1.9c-1.8,2.2-0.6,6.3-0.5,8.9c0.1,3.8,0.4,7.6,0.2,11.3
	c0,0.7-0.1,1.4-0.1,2c-0.5,0.2-1,0.6-1.1,1.3c-0.1,1-1.8,1.9-2.6,2.5c-1.3,1-2.6,2-3.9,3c-2.4,1.9-4.1,4.2-6.2,6.4
	C5.6,144.9,7.6,147.4,9.1,145.9z"/>
<path id="XMLID_402_" class="st0" d="M38.2,190.8c3.1-2.1,5.9-4.3,9.3-5.9c1.1-0.5,2.5-1,3.7-1.6c-0.5,1.5-1,2.9-1.4,4.4
	c-1.3,4.1-2.6,8.6-5.1,12.1c-1.2,1.7,1.5,3.4,2.7,1.7c3.3-4.7,5.1-10.7,6.7-16.4c0.6,1.3,1.3,2.6,1.8,3.9c0.8,2.5,0.9,5.1,1.9,7.5
	c0.8,1.9,3.7,0.4,2.9-1.5c-1.1-2.5-1-5.4-2.1-8c-0.6-1.4-1.4-2.7-1.9-4.2c-0.4-1.2-0.4-2.4-0.9-3.6c1-3.3,1.7-6.8,2.3-10.2
	c0.3-1.9,0.6-3.7,1-5.6c0.2-1.1,0.1-4.1,1-4.8c1.6-1.3-0.6-3.7-2.2-2.4c-2.2,1.8-1.9,6-2.4,8.6c-0.6,3.7-1.2,7.5-2.2,11.1
	c-0.2,0.7-0.4,1.3-0.6,2c-0.6,0.1-1.1,0.4-1.3,1.1c-0.3,1-2.2,1.5-3.1,2c-1.5,0.7-3,1.4-4.5,2.1c-2.8,1.4-4.8,3.3-7.4,4.9
	C35,189.1,36.5,191.9,38.2,190.8z"/>
</svg>
